<svg xmlns="http://www.w3.org/2000/svg" viewBox="0 0 300 200"><defs><style>.cls-1{fill:#f16a24;}</style></defs><g id="fg1"><path class="cls-1" d="M113,57.34a19.9,19.9,0,0,0-19.89,18c0,.49-.08,5.49-.08,15a19.95,19.95,0,1,0,39.89,0V87.75a11.23,11.23,0,0,0,2.3.24,11.48,11.48,0,1,0,0-22.95,11.3,11.3,0,0,0-5.52,1.41A20,20,0,0,0,113,57.34ZM98.65,76.9V75.85A14.33,14.33,0,0,1,123.78,68c-8,1.13-17.63,4.08-25.13,8.92Zm36.58,5.48a5.64,5.64,0,0,1-2.3-.48V77.34a19.47,19.47,0,0,0-.84-5.73,5.74,5.74,0,0,1,3.14-.92,5.85,5.85,0,1,1,0,11.69Zm-7.94-1.89a22.26,22.26,0,0,1-13.4-4.44,64.27,64.27,0,0,1,12.83-2.74,14.57,14.57,0,0,1,.57,4v3.19ZM113,104.61A14.32,14.32,0,0,1,98.65,90.29c0-1.9,0-4.2,0-6.46A42.24,42.24,0,0,1,108,78.31a27.23,27.23,0,0,0,19.32,7.82v4.16A14.33,14.33,0,0,1,113,104.61Z"/><path class="cls-1" d="M184.34,123.13H184a21.51,21.51,0,0,0-15.33,36.22,13,13,0,0,1,3.59,8.35,2.81,2.81,0,0,0,.72,5.52h22.71a2.81,2.81,0,0,0,2.83-2.82,2.85,2.85,0,0,0-2.34-2.78,12.74,12.74,0,0,1,3.71-8.23,21.66,21.66,0,0,0,5.88-14.76,21.47,21.47,0,0,0-21.47-21.5Zm-6.4,44.49a18.9,18.9,0,0,0-5.16-12.15,15.66,15.66,0,0,1-4.27-11.09,16.2,16.2,0,0,1,15.57-15.61h.3a15.47,15.47,0,0,1,11,4.56,15.89,15.89,0,0,1,.44,22.23,18.34,18.34,0,0,0-5.24,12.06Z"/><path class="cls-1" d="M191.34,175.48H177.46a2.83,2.83,0,0,0,0,5.65h13.88a2.83,2.83,0,0,0,0-5.65Z"/><path class="cls-1" d="M183.91,106.43a2.8,2.8,0,0,0-2.82,2.82V117a2.83,2.83,0,0,0,5.65,0v-7.75a2.81,2.81,0,0,0-2.83-2.82Z"/><path class="cls-1" d="M208.59,117.07a2.77,2.77,0,0,0-1.93.77L201,123.21a2.86,2.86,0,0,0-.12,4,2.83,2.83,0,0,0,4,.12l5.68-5.36a2.85,2.85,0,0,0,.12-4,2.76,2.76,0,0,0-2.06-.9Z"/><path class="cls-1" d="M160.21,116.19a2.87,2.87,0,0,0-2,.81,2.81,2.81,0,0,0,0,4l5.45,5.53a2.78,2.78,0,0,0,2,.84,2.82,2.82,0,0,0,2-4.8L162.21,117a2.74,2.74,0,0,0-2-.85Z"/><path class="cls-1" d="M183.91,100.16a43.51,43.51,0,1,1-43.5,43.51,43.56,43.56,0,0,1,43.5-43.51m0-5.24a48.75,48.75,0,1,0,48.76,48.75,48.75,48.75,0,0,0-48.76-48.75Z"/><path class="cls-1" d="M133.62,112.11H129.3a2.7,2.7,0,0,0-1.57.48l-14.32,9.68L100,112.63a2.7,2.7,0,0,0-1.65-.52H93.45a20.66,20.66,0,0,0-20.57,22.58V159.1a2.82,2.82,0,0,0,2.82,2.82h63a49.27,49.27,0,0,1-1.89-5.65H78.56v-22a15,15,0,0,1,3.75-11.57A15.24,15.24,0,0,1,90.78,118l13.39,18a2.91,2.91,0,0,0,2.23,1.13h.11a2.79,2.79,0,0,0,2.26-1.29l4.56-7,4.56,7a2.91,2.91,0,0,0,2.26,1.29h.11a2.79,2.79,0,0,0,2.23-1.13L135.92,118a15,15,0,0,1,5.4,2,49.74,49.74,0,0,1,3.05-4.79,20.58,20.58,0,0,0-10.75-3Zm-27.31,17.3-8.39-11.29,10.73,7.7-2.34,3.59Zm14.16,0-2.3-3.51,9.84-6.65-7.54,10.16Z"/></g></svg>