<svg xmlns="http://www.w3.org/2000/svg" viewBox="0 0 300 200"><defs><style>.cls-1{fill:#f16823;}</style></defs><g id="fg10"><path class="cls-1" d="M158.51,70.26H136.29a2.46,2.46,0,0,0,0,4.91h22.22a2.46,2.46,0,1,0,0-4.91Z"/><path class="cls-1" d="M168.61,80.78H136.29a2.46,2.46,0,0,0,0,4.91h32.32a2.46,2.46,0,0,0,0-4.91Z"/><path class="cls-1" d="M138.85,80.78H106.53a2.46,2.46,0,0,0,0,4.91h32.32a2.46,2.46,0,0,0,0-4.91Z"/><path class="cls-1" d="M138.85,70.26H106.53a2.46,2.46,0,0,0,0,4.91h32.32a2.46,2.46,0,0,0,0-4.91Z"/><path class="cls-1" d="M138.85,115.83H106.53a2.46,2.46,0,0,0,0,4.91h32.32a2.46,2.46,0,0,0,0-4.91Z"/><path class="cls-1" d="M138.85,105.31H106.53a2.46,2.46,0,0,0,0,4.91h32.32a2.46,2.46,0,0,0,0-4.91Z"/><path class="cls-1" d="M138.85,150.88H106.53a2.45,2.45,0,0,0,0,4.9h32.32a2.45,2.45,0,1,0,0-4.9Z"/><path class="cls-1" d="M138.85,140.36H106.53a2.46,2.46,0,0,0,0,4.91h32.32a2.46,2.46,0,0,0,0-4.91Z"/><path class="cls-1" d="M158.51,105.31H136.29a2.46,2.46,0,0,0,0,4.91h22.22a2.46,2.46,0,1,0,0-4.91Z"/><path class="cls-1" d="M99.91,169.07h0M137.59,17a13.08,13.08,0,0,0-13.08,13.07v.35h-3.75a9.47,9.47,0,0,0-9.46,9.47v2.41h-16a14,14,0,0,0-14,14V160a14,14,0,0,0,14,14h65.86a41.49,41.49,0,1,0,32.6-68.91V56.31a14,14,0,0,0-14-14H163.88V39.88a9.47,9.47,0,0,0-9.47-9.47h-3.75v-.35A13.07,13.07,0,0,0,137.59,17Zm-8.13,13.42,0-.35a8.17,8.17,0,1,1,16.34,0v.35ZM116.21,55V39.84a4.55,4.55,0,0,1,4.55-4.56h33.65A4.55,4.55,0,0,1,159,39.84V55Zm-2.46,4.94h47.67a2.44,2.44,0,0,0,2.46-2.45V47.2h15.91a9.11,9.11,0,0,1,9.11,9.11v48.9a41.51,41.51,0,0,0-24.46,10.62H136.26a2.46,2.46,0,1,0,0,4.91h23.55a41.57,41.57,0,0,0-8.59,19.62h-15a2.46,2.46,0,0,0,0,4.91h14.55c0,.42,0,.84,0,1.3,0,1.47.07,2.91.21,4.31H136.19a2.46,2.46,0,1,0,0,4.91H151a2,2,0,0,0,.77-.14,40.88,40.88,0,0,0,5.68,13.42H95.35v0A9.14,9.14,0,0,1,86.24,160V56.31a9.14,9.14,0,0,1,9.11-9.11h16V57.44a2.44,2.44,0,0,0,2.45,2.45Zm51.81,111.56a36.57,36.57,0,1,1,53.49,0V158.35a13.14,13.14,0,0,0-13.11-13.11h-3a2.14,2.14,0,0,0-2,1.36l-4.7,12.55-.42-3a2,2,0,0,0,1-1.19l2.1-6.17a2.13,2.13,0,0,0-.28-1.89A2,2,0,0,0,197,146l-8.76,0a2.15,2.15,0,0,0-1.72.87,2.19,2.19,0,0,0-.28,1.9l2.11,6.17a2.09,2.09,0,0,0,1.26,1.29l-.42,3-4.8-12.65a2.13,2.13,0,0,0-2-1.37h-3.71a13.14,13.14,0,0,0-13.11,13.11v13.14Zm27.2,6.94A2.11,2.11,0,0,0,194,178l3.36-2.27a2.13,2.13,0,0,0,.92-2l-.81-5.82,6.94-18.5h1.58a8.91,8.91,0,0,1,8.9,8.9v17a36.32,36.32,0,0,1-22.5,7.78h-.16a36.13,36.13,0,0,1-22.38-7.74v-17a8.91,8.91,0,0,1,8.9-8.9H181l7.05,18.5-.81,5.82a2.13,2.13,0,0,0,.91,2L191.6,178a1.93,1.93,0,0,0,1.16.35Zm-.95-26.21-.66-2H194l-.67,2Zm.95,21.66-1.19-.77,1.15-8.49,1.16,8.49-1.12.77Z"/><path class="cls-1" d="M192.3,114.64a12.59,12.59,0,0,0-12.58,12.58v4.21a12.59,12.59,0,0,0,25.17,0v-4.21a12.6,12.6,0,0,0-12.59-12.58Zm0,25.2a8.38,8.38,0,0,1-8.38-8.38v-4.2a8.38,8.38,0,1,1,16.75,0v4.2a8.38,8.38,0,0,1-8.37,8.38Z"/></g></svg>