<svg xmlns="http://www.w3.org/2000/svg" viewBox="0 0 300 200"><defs><style>.cls-1{fill:#f16823;}</style></defs><g id="fg2"><path class="cls-1" d="M118,71.23H100.5a2.44,2.44,0,0,0-2.45,2.45V91.14a2.43,2.43,0,0,0,2.45,2.44H118a2.42,2.42,0,0,0,2.44-2.44V73.68A2.43,2.43,0,0,0,118,71.23Zm-15,17.46V76.12h12.57V88.69Z"/><path class="cls-1" d="M152.28,74.73H130.15a2.44,2.44,0,1,0,0,4.88h22.13a2.44,2.44,0,1,0,0-4.88Z"/><path class="cls-1" d="M162.34,85.2H130.15a2.45,2.45,0,1,0,0,4.89h32.19a2.45,2.45,0,1,0,0-4.89Z"/><path class="cls-1" d="M118,106.15H100.5a2.44,2.44,0,0,0-2.45,2.45v17.46a2.43,2.43,0,0,0,2.45,2.44H118a2.42,2.42,0,0,0,2.44-2.44V108.6a2.43,2.43,0,0,0-2.44-2.45Zm-15,17.46V111h12.57v12.57Z"/><path class="cls-1" d="M152.28,109.65H130.15a2.44,2.44,0,1,0,0,4.88h22.13a2.44,2.44,0,1,0,0-4.88Z"/><path class="cls-1" d="M118,141.07H100.5a2.44,2.44,0,0,0-2.45,2.45V161a2.43,2.43,0,0,0,2.45,2.44H118A2.42,2.42,0,0,0,120.4,161V143.52a2.43,2.43,0,0,0-2.44-2.45Zm-15,17.46V146h12.57v12.57Z"/><path class="cls-1" d="M93.9,173.16h0M131.44,21.65a13,13,0,0,0-13,13V35h-3.73a9.43,9.43,0,0,0-9.43,9.43v2.41H89.36a14,14,0,0,0-14,14V164.12a14,14,0,0,0,14,14H155a41.33,41.33,0,1,0,32.48-68.65V60.83a14,14,0,0,0-14-14H157.63V44.45A9.44,9.44,0,0,0,148.2,35h-3.74v-.35a13,13,0,0,0-13-13ZM123.34,35l0-.35a8.14,8.14,0,0,1,16.27,0V35Zm-13.2,24.45v-15a4.52,4.52,0,0,1,4.54-4.54H148.2a4.53,4.53,0,0,1,4.54,4.54v15Zm-2.45,4.92h47.49A2.43,2.43,0,0,0,157.63,62V51.75h15.85a9.08,9.08,0,0,1,9.08,9.08v48.71a41.37,41.37,0,0,0-24.37,10.58H130.11a2.45,2.45,0,0,0,0,4.89h23.47A41.52,41.52,0,0,0,145,144.56H130.08a2.45,2.45,0,1,0,0,4.89h14.49c0,.42,0,.84,0,1.3q0,2.19.21,4.29H130a2.45,2.45,0,0,0,0,4.89h14.74a1.9,1.9,0,0,0,.76-.14,40.79,40.79,0,0,0,5.66,13.37H89.36v0a9.11,9.11,0,0,1-9.08-9.08V60.83a9.11,9.11,0,0,1,9.08-9.08h15.89V62a2.42,2.42,0,0,0,2.44,2.44ZM159.3,175.54a36.44,36.44,0,1,1,53.29,0V162.48a13.09,13.09,0,0,0-13.06-13.06h-3a2.13,2.13,0,0,0-2,1.36l-4.68,12.5-.42-3a2,2,0,0,0,1-1.18l2.09-6.15a2.13,2.13,0,0,0-.28-1.89,2.05,2.05,0,0,0-1.71-.87l-8.73,0a2.13,2.13,0,0,0-1.71.87,2.16,2.16,0,0,0-.28,1.89l2.1,6.14a2.08,2.08,0,0,0,1.25,1.29l-.42,3L178,150.75a2.11,2.11,0,0,0-2-1.37h-3.7a13.09,13.09,0,0,0-13.06,13.06v13.1Zm27.1,6.91a2.11,2.11,0,0,0,1.19-.35l3.35-2.27a2.11,2.11,0,0,0,.91-2L191,172,198,153.57h1.57a8.88,8.88,0,0,1,8.87,8.87v16.94A36.21,36.21,0,0,1,186,187.13h-.15a35.92,35.92,0,0,1-22.3-7.72v-17a8.88,8.88,0,0,1,8.87-8.87h2.27l7,18.44-.81,5.8a2.11,2.11,0,0,0,.91,2l3.46,2.27a1.9,1.9,0,0,0,1.15.35Zm-.94-26.12-.67-2h2.87l-.67,2Zm.94,21.58-1.19-.77,1.16-8.45,1.15,8.45-1.12.77Z"/><path class="cls-1" d="M186,118.93a12.55,12.55,0,0,0-12.54,12.54v4.19a12.54,12.54,0,1,0,25.07,0v-4.19A12.55,12.55,0,0,0,186,118.93ZM186,144a8.34,8.34,0,0,1-8.34-8.34v-4.2a8.35,8.35,0,0,1,16.69,0v4.2A8.35,8.35,0,0,1,186,144Z"/></g></svg>