<svg xmlns="http://www.w3.org/2000/svg" viewBox="0 0 300 200"><defs><style>.cls-1{fill:#f16823;}</style></defs><g id="fg3"><path class="cls-1" d="M150.3,82.26A17.67,17.67,0,0,0,132.66,99.9V106a17.64,17.64,0,1,0,35.28,0V99.9A17.68,17.68,0,0,0,150.3,82.26Zm0,36.53A12.81,12.81,0,0,1,137.5,106V99.9a12.8,12.8,0,0,1,25.59,0V106a12.81,12.81,0,0,1-12.79,12.8Z"/><path class="cls-1" d="M200.07,71.68A14.37,14.37,0,0,0,185.71,86v4.78a14.36,14.36,0,0,0,28.71,0V86a14.36,14.36,0,0,0-14.35-14.35Zm0,28.64a9.55,9.55,0,0,1-9.51-9.51V86a9.51,9.51,0,0,1,19,0v4.78a9.53,9.53,0,0,1-9.51,9.51Z"/><path class="cls-1" d="M101,132.75v.12h0v-.12M215.6,106.48h-3.43a2.42,2.42,0,1,0,0,4.84h3.43a10.11,10.11,0,0,1,10.1,10.1v28H206.29L204.08,119a2.63,2.63,0,0,0,1.25-1.39l2.38-7a2.45,2.45,0,0,0-.31-2.18,2.42,2.42,0,0,0-2-1l-10,0a2.43,2.43,0,0,0-2,1,2.33,2.33,0,0,0-.31,2.18l2.38,7a2.44,2.44,0,0,0,1.52,1.52l-2.21,30.27h-6.4V145a18.45,18.45,0,0,0-13.94-17.85v-5.7a10.11,10.11,0,0,1,10.1-10.1h4.26a2.43,2.43,0,0,0,0-4.85h-4.26a15,15,0,0,0-14.94,14.95v5.15h-4a2.42,2.42,0,0,0,0,4.84h4.39A13.55,13.55,0,0,1,183.64,145v29.6H157.56l-2.8-33.17a2.28,2.28,0,0,0,1.62-1.55l3.05-8.93a2.4,2.4,0,0,0-2.29-3.18l-12.69,0a2.42,2.42,0,0,0-2,1,2.33,2.33,0,0,0-.31,2.18l3,9a2.42,2.42,0,0,0,2,1.62l-2.8,33.1H117.13V145a13.54,13.54,0,0,1,13.52-13.53h5.4a2.42,2.42,0,0,0,0-4.84h-5v-5.15a15,15,0,0,0-14.94-14.95h-3.43a2.43,2.43,0,0,0,0,4.85h3.43a10.11,10.11,0,0,1,10.1,10.1v5.7A18.45,18.45,0,0,0,112.25,145v4.33h-5.54L104.5,119a2.63,2.63,0,0,0,1.25-1.39l2.38-7a2.39,2.39,0,0,0-2.28-3.18l-10,0a2.43,2.43,0,0,0-2,1,2.36,2.36,0,0,0-.32,2.18l2.39,7a2.44,2.44,0,0,0,1.52,1.52l-2.28,30.24H74.89V121.45A10.11,10.11,0,0,1,85,111.35h4.26a2.42,2.42,0,0,0,0-4.84H84.93a14.92,14.92,0,0,0-14.88,14.91v30.37a2.4,2.4,0,0,0,2.42,2.42H94.88l-.2,2.8a2.44,2.44,0,0,0,1.07,2.21l3.94,2.6a2.38,2.38,0,0,0,2.67,0l3.84-2.6a2.48,2.48,0,0,0,1.07-2.18l-.21-2.83h5.12V177a2.4,2.4,0,0,0,2.42,2.42h29.3l-.35,4.25a2.44,2.44,0,0,0,1.07,2.22l5,3.28a2.34,2.34,0,0,0,1.35.42,2.39,2.39,0,0,0,1.35-.42l4.87-3.28a2.48,2.48,0,0,0,1.08-2.22l-.35-4.25H186a2.41,2.41,0,0,0,2.42-2.42V154.21h6.05l-.21,2.8a2.46,2.46,0,0,0,1.07,2.21l3.95,2.6a2.41,2.41,0,0,0,1.35.41,2.46,2.46,0,0,0,1.35-.41l3.83-2.6a2.47,2.47,0,0,0,1.08-2.18l-.21-2.8h21.41a2.4,2.4,0,0,0,2.42-2.42V121.49a15,15,0,0,0-14.94-15Zm-16,7.92-.72-2.18H202l-.73,2.18Zm-99.58,0-.72-2.18h3.15l-.73,2.18Zm49.19,22.27-1.38-4.11,5.88,0-1.39,4.08Zm51.4,20.2-1.39-.93,1.35-18.58L201.94,156l-1.35.9Zm-99.58,0-1.39-.93L101,137.36,102.32,156l-1.31.9ZM151,184.3l-2.45-1.63,2.42-28.5,2.42,28.5L151,184.3Z"/><path class="cls-1" d="M100.49,71.71A14.34,14.34,0,0,0,86.13,86v4.78a14.36,14.36,0,1,0,28.71,0V86.07a14.37,14.37,0,0,0-14.35-14.36Zm0,28.61A9.55,9.55,0,0,1,91,90.81V86a9.51,9.51,0,1,1,19,0v4.78a9.53,9.53,0,0,1-9.51,9.51Z"/><path class="cls-1" d="M133,18.48a30.11,30.11,0,0,0-15.46,55.93v7.72a2.4,2.4,0,0,0,1.25,2.1,2.37,2.37,0,0,0,1.17.32,2.42,2.42,0,0,0,1.28-.38l9-5.64c.9.07,1.84.14,2.77.14a30.1,30.1,0,0,0,0-60.19ZM122.38,77.73V73a2.41,2.41,0,0,0-1.28-2.15,25.21,25.21,0,1,1,11.9,3,30.29,30.29,0,0,1-3-.17l-.29,0a2.64,2.64,0,0,0-1.3.37l-6,3.73Z"/><path class="cls-1" d="M142,49.09h-20.2a2.43,2.43,0,0,0,0,4.85H142a2.43,2.43,0,0,0,0-4.85Z"/><path class="cls-1" d="M134.9,39.48H121.62a2.4,2.4,0,0,0-2.42,2.42,2.43,2.43,0,0,0,2.42,2.42H134.9a2.42,2.42,0,0,0,0-4.84Z"/><path class="cls-1" d="M184.88,26.51a19.72,19.72,0,0,0,0,39.43c.49,0,1,0,1.49-.07l5.36,3.35a2.34,2.34,0,0,0,1.28.38,2.37,2.37,0,0,0,1.18-.31,2.41,2.41,0,0,0,1.24-2.11V62.86a19.7,19.7,0,0,0-10.55-36.35Zm0,34.59a14.89,14.89,0,1,1,7-1.77,2.41,2.41,0,0,0-1.28,2.15v1.34l-2.36-1.48A2.42,2.42,0,0,0,187,61a.74.74,0,0,0-.27,0,15.53,15.53,0,0,1-1.8.11Z"/><path class="cls-1" d="M192,45.63H179.38a2.43,2.43,0,0,0,0,4.85H192a2.43,2.43,0,0,0,0-4.85Z"/><path class="cls-1" d="M187.58,39.62h-8.3a2.42,2.42,0,1,0,0,4.84h8.3a2.42,2.42,0,0,0,0-4.84Z"/></g></svg>