<svg xmlns="http://www.w3.org/2000/svg" viewBox="0 0 300 200"><defs><style>.cls-1{fill:#f16823;}</style></defs><g id="fg4"><path class="cls-1" d="M106.54,54.46H91.12a2.47,2.47,0,1,0,0,4.93h15.42a2.47,2.47,0,0,0,0-4.93Z"/><path class="cls-1" d="M156.41,54.46H141a2.47,2.47,0,0,0,0,4.93h15.42a2.47,2.47,0,1,0,0-4.93Z"/><path class="cls-1" d="M131.51,54.46H116.09a2.47,2.47,0,0,0,0,4.93h15.42a2.47,2.47,0,1,0,0-4.93Z"/><path class="cls-1" d="M106.54,75.93H91.12a2.47,2.47,0,0,0,0,4.94h15.42a2.47,2.47,0,0,0,0-4.94Z"/><path class="cls-1" d="M156.41,75.93H141a2.47,2.47,0,0,0,0,4.94h15.42a2.47,2.47,0,0,0,0-4.94Z"/><path class="cls-1" d="M131.51,75.93H116.09a2.47,2.47,0,0,0,0,4.94h15.42A2.46,2.46,0,0,0,134,78.4a2.48,2.48,0,0,0-2.47-2.47Z"/><path class="cls-1" d="M106.54,97.45H91.12a2.47,2.47,0,0,0,0,4.94h15.42a2.47,2.47,0,0,0,0-4.94Z"/><path class="cls-1" d="M156.41,97.45H141a2.45,2.45,0,0,0-2.46,2.47,2.47,2.47,0,0,0,2.46,2.47h15.42a2.47,2.47,0,0,0,0-4.94Z"/><path class="cls-1" d="M131.51,97.45H116.09a2.47,2.47,0,0,0,0,4.94h15.42a2.47,2.47,0,0,0,0-4.94Z"/><path class="cls-1" d="M106.54,118.93H91.12a2.47,2.47,0,0,0,0,4.94h15.42a2.47,2.47,0,0,0,0-4.94Z"/><path class="cls-1" d="M131.51,118.93H116.09a2.47,2.47,0,0,0,0,4.94h15.42a2.47,2.47,0,1,0,0-4.94Z"/><path class="cls-1" d="M195.94,94.63a45.78,45.78,0,0,0-18.55,3.88V36.72a2.45,2.45,0,0,0-2.47-2.47h-11V16.82a2.46,2.46,0,0,0-2.47-2.47H89.64a2.46,2.46,0,0,0-2.47,2.47V34.25h-11a2.45,2.45,0,0,0-2.47,2.47V178a2.45,2.45,0,0,0,2.47,2.47h94.77a46.55,46.55,0,1,0,25-85.81ZM92.11,19.29H159v15H92.11ZM141.88,175.5H107.59V139.21h34.29Zm4.93,0V136.74a2.45,2.45,0,0,0-2.47-2.47H105.09a2.45,2.45,0,0,0-2.47,2.47V175.5h-24V39.18h93.81V101a46.61,46.61,0,0,0-17.38,17.92H141a2.47,2.47,0,0,0,0,4.94h11.75a46.46,46.46,0,0,0,11.78,51.63Zm23.39-1.62V152a10.16,10.16,0,0,1,10.16-10.16h2.53l8.33,22.75-1.13,10.61a2.44,2.44,0,0,0,1.09,2.33l3.95,2.61a2.41,2.41,0,0,0,2.72,0l3.84-2.61a2.51,2.51,0,0,0,1.06-2.33l-1.13-10.61,8.19-22.75h1.72A10.16,10.16,0,0,1,221.69,152v21.9a41.47,41.47,0,0,1-51.49,0Zm27.51.39-1.27.84-1.34-.88,1.3-12Zm-.6-29.42h-1.69l-.75-2.15h3.14Zm29.52,24.44V152a15.11,15.11,0,0,0-15.1-15.1h-3.45a2.49,2.49,0,0,0-2.33,1.62l-5.33,14.82-.42-3.85a2.38,2.38,0,0,0,1.2-1.41l2.4-7.05a2.5,2.5,0,0,0-.32-2.22,2.47,2.47,0,0,0-2-1l-10,0a2.49,2.49,0,0,0-2,1,2.35,2.35,0,0,0-.31,2.22l2.39,7.09a2.54,2.54,0,0,0,1.49,1.52l-.43,3.84-5.46-14.95a2.44,2.44,0,0,0-2.33-1.62h-4.27a15.12,15.12,0,0,0-15.1,15.09v17.32a41.59,41.59,0,1,1,61.41,0Z"/><path class="cls-1" d="M195.94,101.86a14.49,14.49,0,0,0-14.49,14.49v4.8a14.5,14.5,0,1,0,29,0v-4.8a14.5,14.5,0,0,0-14.5-14.49Zm0,28.85a9.58,9.58,0,0,1-9.55-9.56v-4.8a9.56,9.56,0,0,1,19.11,0v4.8a9.59,9.59,0,0,1-9.56,9.56Z"/></g></svg>