<svg xmlns="http://www.w3.org/2000/svg" viewBox="0 0 300 200"><defs><style>.cls-1{fill:#f16823;}</style></defs><g id="fg5"><path class="cls-1" d="M122.47,16.44a13,13,0,0,0-13,13v.35h-3.74a9.42,9.42,0,0,0-9.41,9.41v2.41H80.46a14,14,0,0,0-13.95,14V158.71a14,14,0,0,0,13.95,13.95H146A41.27,41.27,0,1,0,178.4,104.1V55.57a14,14,0,0,0-14-14H148.62V39.21a9.42,9.42,0,0,0-9.41-9.41h-3.73v-.35a13,13,0,0,0-13-13ZM114.38,29.8l0-.35a8.13,8.13,0,0,1,16.25,0v.35ZM101.2,54.21v-15a4.53,4.53,0,0,1,4.53-4.54h33.48a4.53,4.53,0,0,1,4.53,4.54v15Zm-2.44,4.91h47.42a2.42,2.42,0,0,0,2.44-2.44V46.5h15.83a9.08,9.08,0,0,1,9.07,9.07v48.64a41.36,41.36,0,0,0-37.9,41.14,40.8,40.8,0,0,0,6.66,22.42H80.46a9.09,9.09,0,0,1-9.07-9.06V55.57a9.09,9.09,0,0,1,9.07-9.07H96.32V56.68a2.42,2.42,0,0,0,2.44,2.44Zm51.54,111a36.4,36.4,0,1,1,53.21,0V156.58A12.55,12.55,0,0,0,191,144h-3.48a2.09,2.09,0,0,0-2,1.46L181,159.65l-.56-4.74a2.07,2.07,0,0,0,1-1.19l2.1-6.14a2.14,2.14,0,0,0-.28-1.88,2,2,0,0,0-1.71-.87l-8.72,0a2.13,2.13,0,0,0-1.71.87,2.17,2.17,0,0,0-.28,1.88l2.1,6.14a2.07,2.07,0,0,0,1.29,1.29l-.56,4.77L169,145.46a2.06,2.06,0,0,0-2-1.43h-4.18a12.54,12.54,0,0,0-12.55,12.55v13.56Zm27.12,10.36a2.09,2.09,0,0,0,1.19-.35l3.35-2.26a2,2,0,0,0,.9-2l-.69-6.17L189,148.14h2a8.4,8.4,0,0,1,8.37,8.37V174A36.18,36.18,0,0,1,177,181.69h-.15a35.91,35.91,0,0,1-22.3-7.71V156.55a8.38,8.38,0,0,1,8.36-8.37h2.69l7,21.58-.7,6.14a2.12,2.12,0,0,0,.94,2l3.45,2.26a1.92,1.92,0,0,0,1.15.35Zm-1-29.57-.66-2h2.86l-.66,2Zm1,25-1.19-.8,1.19-10.29,1.15,10.33-1.15.76Z"/><path class="cls-1" d="M176.9,113.59a12.53,12.53,0,0,0-12.52,12.52v4.18a12.52,12.52,0,1,0,25,0v-4.18a12.53,12.53,0,0,0-12.52-12.52Zm0,25.07a8.33,8.33,0,0,1-8.34-8.34v-4.18a8.34,8.34,0,0,1,16.67,0v4.18a8.33,8.33,0,0,1-8.33,8.34Z"/><path class="cls-1" d="M109.68,72.72A24.43,24.43,0,0,0,92.31,79.9a24.54,24.54,0,0,0,17.37,41.85A24.4,24.4,0,0,0,127,114.56a24.66,24.66,0,0,0,7.15-17.33,2.42,2.42,0,0,0-2.44-2.44H112.12V75.16a2.43,2.43,0,0,0-2.44-2.44Zm0,44.15A19.63,19.63,0,0,1,95.83,83.36a19.43,19.43,0,0,1,11.44-5.58V97.23a2.43,2.43,0,0,0,2.44,2.45h19.46a20.08,20.08,0,0,1-5.58,11.43,19.48,19.48,0,0,1-13.88,5.76Z"/><path class="cls-1" d="M117.87,64.67a2.42,2.42,0,0,0-2.44,2.44V89.18a2.44,2.44,0,0,0,2.44,2.44h22.07a2.42,2.42,0,0,0,2.44-2.44,24.64,24.64,0,0,0-7.15-17.33l0,0a24.66,24.66,0,0,0-17.33-7.15Zm2.47,8.78V69.69a24.63,24.63,0,0,1,3.11.66l-3.11,3.1Zm0,9.77V80.39l7.88-7.88a17.07,17.07,0,0,1,1.67,1.15l-9.55,9.56Zm3.42,3.52,9.62-9.62a14.09,14.09,0,0,1,1.15,1.67l-8,7.95Zm9.73,0,3.2-3.21a19.78,19.78,0,0,1,.7,3.21Z"/><path class="cls-1" d="M117.49,134.86H87.64a2.44,2.44,0,1,0,0,4.88h29.85a2.44,2.44,0,1,0,0-4.88Z"/><path class="cls-1" d="M128,148.81H87.64a2.44,2.44,0,1,0,0,4.88H128a2.42,2.42,0,0,0,2.44-2.44,2.45,2.45,0,0,0-2.44-2.44Z"/><path class="cls-1" d="M165.85,71.26H150.68a2.44,2.44,0,0,0,0,4.88h15.17a2.44,2.44,0,0,0,0-4.88Z"/></g></svg>