<svg xmlns="http://www.w3.org/2000/svg" viewBox="0 0 300 200"><defs><style>.cls-1{fill:#f16823;}</style></defs><g id="fg6"><path class="cls-1" d="M221.31,92.57a14.89,14.89,0,0,0-13.93,9.62l-12.31-2.45c0-.73.07-1.5.07-2.27a43.19,43.19,0,0,0-15.26-33l14.17-20a19.22,19.22,0,1,0-4-2.86L176,61.47a43.39,43.39,0,0,0-57,7.52L89.27,46a14.87,14.87,0,1,0-3.14,3.74l29.8,23.16a43.28,43.28,0,0,0-.87,47.86l-16.9,25a20.45,20.45,0,1,0,3.74,3.18L118.14,125a43.33,43.33,0,0,0,54.36,10.6l14,20.68a17.06,17.06,0,1,0,4-2.87L176.67,133a43.58,43.58,0,0,0,17.84-28.34L206.4,107v.49a14.91,14.91,0,1,0,14.91-14.94Zm-32.54-65a14.17,14.17,0,1,1,14.17,14.17A14.2,14.2,0,0,1,188.77,27.6ZM76.47,48.38a10,10,0,1,1,10-10A10,10,0,0,1,76.47,48.38ZM87,178.21a15.5,15.5,0,1,1,15.49-15.5A15.53,15.53,0,0,1,87,178.21Zm123.56-9.69a12.21,12.21,0,1,1-12.21-12.21A12.22,12.22,0,0,1,210.53,168.52Zm-33.34-42.26a38.41,38.41,0,0,1-51,0l-3.88-3.88a38.54,38.54,0,1,1,58.77,0l-3.88,3.92m44.12-8.78a10,10,0,1,1,10-10A10,10,0,0,1,221.31,117.48Z"/><path class="cls-1" d="M153.11,128.73l-1,.64-1-.68,1-9.17Zm-.5-27.38h-1.28l-.53-1.57h2.35Zm27.74,22.33V108.14A14.21,14.21,0,0,0,166.16,94H163a2.52,2.52,0,0,0-2.35,1.64l-4.66,13-.28-2.56a2.52,2.52,0,0,0,1.1-1.32L159,98.15a2.46,2.46,0,0,0-2.34-3.27l-9.29,0h0a2.49,2.49,0,0,0-2,1,2.4,2.4,0,0,0-.32,2.24l2.24,6.58a2.38,2.38,0,0,0,1.35,1.46l-.29,2.56-4.76-13.09A2.47,2.47,0,0,0,141.23,94h-3.94a14.2,14.2,0,0,0-14.19,14.19v15.53l4.87,4.66V108.18A9.21,9.21,0,0,1,137.18,99h2.2L147,119.91,146,129.72a2.48,2.48,0,0,0,1.1,2.35l3.67,2.42a2.45,2.45,0,0,0,1.35.43,2.5,2.5,0,0,0,1.39-.43l3.59-2.42a2.53,2.53,0,0,0,1.06-2.35l-1.06-9.81L164.59,99h1.46a9.21,9.21,0,0,1,9.21,9.21v20.2Z"/><path class="cls-1" d="M151.69,93.21a13.66,13.66,0,0,0,13.65-13.66V75.11a13.66,13.66,0,1,0-27.31,0v4.44A13.67,13.67,0,0,0,151.69,93.21ZM143,75.11a8.68,8.68,0,1,1,17.35,0v4.44a8.68,8.68,0,1,1-17.35,0V75.11Z"/></g></svg>