<svg xmlns="http://www.w3.org/2000/svg" viewBox="0 0 300 200"><defs><style>.cls-1{fill:#f16823;}</style></defs><g id="fg7"><path class="cls-1" d="M115.74,75.44A17.49,17.49,0,0,0,98.22,92.82v6a17.52,17.52,0,0,0,35,0v-6a17.46,17.46,0,0,0-17.51-17.38Zm0,35.84a12.55,12.55,0,0,1-12.57-12.47v-6a12.57,12.57,0,0,1,25.14,0v6a12.55,12.55,0,0,1-12.57,12.47Z"/><path class="cls-1" d="M136.18,166.82,134.61,162H122.8l-.81-8.75,10.66-29.4h2.58a13.32,13.32,0,0,1,12.65,9.09l2.64-5.77A18.32,18.32,0,0,0,135.23,119h-4.34a2.49,2.49,0,0,0-2.33,1.61l-7.67,21.2-.77-8.13a2.51,2.51,0,0,0,1.59-1.54l3-8.76a2.42,2.42,0,0,0-2.33-3.22l-12.54,0a2.47,2.47,0,0,0-2,1,2.35,2.35,0,0,0-.32,2.2l3,8.8a2.45,2.45,0,0,0,1.94,1.64l-.77,8.17-7.81-21.34a2.44,2.44,0,0,0-2.33-1.61H96.21A18.21,18.21,0,0,0,78,137.06v27.4a2.45,2.45,0,0,0,2.47,2.45h28.92L109,171a2.52,2.52,0,0,0,1.09,2.28l5,3.22a2.4,2.4,0,0,0,2.71,0l4.84-3.22a2.52,2.52,0,0,0,1.1-2.28l-.39-4.1H151a2.32,2.32,0,0,0,.65-.09H136.18ZM109.84,162H82.89V137.06a13.28,13.28,0,0,1,13.32-13.21h3.6l10.84,29.4Zm6.53,9.5L114,170l2.3-24.32L118.63,170Zm1.24-42.71h-3l-1.35-3.88,5.69,0Z"/><path class="cls-1" d="M216,124.5a2.37,2.37,0,0,0-2.05-1.12H167.26l-5.16,0h-8.26a2.53,2.53,0,0,0-2.26,1.43l-1.06,2.32a18.13,18.13,0,0,1,2.6,6.24l2.34-5.12h54.6l-15.39,33.63H153.49v2.54a2.43,2.43,0,0,1-1.82,2.36h44.55a2.53,2.53,0,0,0,2.26-1.43l17.66-38.54A2.43,2.43,0,0,0,216,124.5Z"/><path class="cls-1" d="M148.55,143.4v-6.34a13.08,13.08,0,0,0-.67-4.12l-13.29,29,0,.05h13.94v-.08h-8.48Z"/><path class="cls-1" d="M153.49,164.46v-2.54h-4.94V162H134.61l1.57,4.82h15.49A2.43,2.43,0,0,0,153.49,164.46Z"/><path class="cls-1" d="M148.55,137.06v6.34l4.57-10a18.13,18.13,0,0,0-2.6-6.24l-2.64,5.77A13.08,13.08,0,0,1,148.55,137.06Z"/><path class="cls-1" d="M231.38,35.68h-42a2.45,2.45,0,0,0-2.47,2.46V58.42a2.46,2.46,0,0,0,2.47,2.45h42a2.44,2.44,0,0,0,2.47-2.45V38.14a2.45,2.45,0,0,0-2.47-2.46ZM191.86,56V40.59h37V56Z"/><path class="cls-1" d="M247.38,88.48h-58a2.44,2.44,0,0,0-2.47,2.45v20.28a2.45,2.45,0,0,0,2.47,2.46h58a2.46,2.46,0,0,0,2.48-2.46V90.93a2.5,2.5,0,0,0-2.51-2.45Zm-55.52,20.25V93.35h53.08v15.38H191.86Z"/><path class="cls-1" d="M166.29,40a8.5,8.5,0,1,1-8.6,8.5,8.56,8.56,0,0,1,8.6-8.5m0-4.57a13.07,13.07,0,1,0,13.17,13.07,13.12,13.12,0,0,0-13.17-13.07Z"/><path class="cls-1" d="M166.29,92.54a8.5,8.5,0,1,1-8.6,8.5,8.56,8.56,0,0,1,8.6-8.5m0-4.57A13.07,13.07,0,1,0,179.46,101,13.12,13.12,0,0,0,166.29,88Z"/><path class="cls-1" d="M171.26,100.26h0m-2.07-3.71A1.59,1.59,0,0,0,168,97l-1.75,1.73L164.54,97a1.59,1.59,0,0,0-1.15-.47,1.62,1.62,0,0,0-1.16,2.76L164,101l-1.75,1.73a1.62,1.62,0,0,0,1.15,2.76,1.68,1.68,0,0,0,1.14-.47l1.75-1.73,1.75,1.73a1.58,1.58,0,0,0,1.16.47,1.62,1.62,0,0,0,1.14-2.76L168.58,101l1.74-1.73a1.6,1.6,0,0,0,0-2.29,1.63,1.63,0,0,0-1.16-.47Z"/><polygon class="cls-1" points="169.04 60.87 163.78 60.87 163.78 90.06 169.04 90.06 169.04 60.87 169.04 60.87"/><polygon class="cls-1" points="169.04 113.67 163.78 113.67 163.78 126.85 169.04 126.85 169.04 113.67 169.04 113.67"/><path class="cls-1" d="M171.26,47.7h0M169.19,44a1.59,1.59,0,0,0-1.15.47l-1.75,1.73-1.75-1.73a1.59,1.59,0,0,0-1.15-.47,1.62,1.62,0,0,0-1.16,2.76L164,48.48l-1.75,1.73A1.62,1.62,0,0,0,163.38,53a1.68,1.68,0,0,0,1.14-.47l1.75-1.73L168,52.5a1.58,1.58,0,0,0,1.16.47,1.62,1.62,0,0,0,1.14-2.76l-1.74-1.73,1.74-1.73a1.6,1.6,0,0,0,0-2.29,1.63,1.63,0,0,0-1.16-.47Z"/></g></svg>