<svg xmlns="http://www.w3.org/2000/svg" viewBox="0 0 300 200"><defs><style>.cls-1{fill:#f16823;}</style></defs><g id="fg9"><path class="cls-1" d="M166,41.87H161a2.52,2.52,0,0,0-1.69.67l-7.15,6.69-6.86-6.65a2.45,2.45,0,0,0-1.72-.71h-5.39a12.49,12.49,0,0,0-12.43,13.62V85a7.82,7.82,0,0,0,7.78,7.78h.11a7.26,7.26,0,0,0,3.24-.77l1.26,40.44a8.21,8.21,0,0,0,8.24,7.92,8.35,8.35,0,0,0,3.27-.67V143H88.15a2.45,2.45,0,0,0-2.46,2.46v14.26H71.15a2.45,2.45,0,0,0-2.46,2.46v24.18a2.45,2.45,0,0,0,2.46,2.47h33.41a2.45,2.45,0,0,0,2.46-2.47V162.15a2.45,2.45,0,0,0-2.46-2.46H90.62v-11.8h59v11.8H135.43a2.45,2.45,0,0,0-2.46,2.46v24.18a2.45,2.45,0,0,0,2.46,2.47h33.4a2.45,2.45,0,0,0,2.47-2.47V162.15a2.45,2.45,0,0,0-2.47-2.46H154.58v-11.8h59v11.8H199.67a2.45,2.45,0,0,0-2.46,2.46v24.18a2.45,2.45,0,0,0,2.46,2.47h33.4a2.45,2.45,0,0,0,2.47-2.47V162.15a2.47,2.47,0,0,0-2.47-2.46H218.54V145.43a2.45,2.45,0,0,0-2.47-2.46H154.58v-3.28a8.06,8.06,0,0,0,3.31.71,8.23,8.23,0,0,0,8.23-8L167.39,92a8,8,0,0,0,3.27.74A7.78,7.78,0,0,0,178.44,85V55.49A12.48,12.48,0,0,0,166,41.87ZM152.19,55.1a2.51,2.51,0,0,0,1.68-.66L162,46.8h4.08a7.44,7.44,0,0,1,5.6,2.5,7.51,7.51,0,0,1,1.9,5.81V85a2.84,2.84,0,0,1-2.86,2.85,2.66,2.66,0,0,1-2-.85,2.85,2.85,0,0,1-.85-2V65.14a2.46,2.46,0,1,0-4.92,0V80H141.38V65.14a2.47,2.47,0,1,0-4.93,0V84.85h0a2.93,2.93,0,0,1-2.81,3,2.76,2.76,0,0,1-2-.84,2.89,2.89,0,0,1-.85-2V55.11a7.55,7.55,0,0,1,7.5-8.31h4.4l7.81,7.6a1.68,1.68,0,0,0,.5.35s.1,0,.14.08.07,0,.14.07a2.65,2.65,0,0,0,1,.2ZM162.67,85l-1.47,47.28a3.31,3.31,0,0,1-6.62-.14V91.82a2.47,2.47,0,0,0-4.93,0v40.34a3.25,3.25,0,0,1-3.27,3.31,3.3,3.3,0,0,1-3.31-3.17L141.59,85Zm39.46,98.91V164.65h28.48V183.9Zm-64.27,0V164.65h28.47V183.9Zm-64.24,0V164.65h28.47V183.9Z"/><path class="cls-1" d="M151.76,14.52a12.11,12.11,0,0,0-12.11,12.11V30.5a12.11,12.11,0,0,0,24.22,0V26.63a12.11,12.11,0,0,0-12.11-12.11Zm0,23.16a7.18,7.18,0,0,1-7.18-7.18V26.63a7.18,7.18,0,1,1,14.36,0V30.5a7.19,7.19,0,0,1-7.18,7.18Z"/></g></svg>