<svg xmlns="http://www.w3.org/2000/svg" viewBox="0 0 300 200"><defs><style>.cls-1{fill:#f16823;}</style></defs><g id="fo1"><path class="cls-1" d="M161.24,8H137a2.47,2.47,0,0,0-2.45,2.21L133,27a69.52,69.52,0,0,0-20.42,8.59L99.62,24.87A2.48,2.48,0,0,0,98,24.3a2.42,2.42,0,0,0-1.72.71L78.65,42.68a2.44,2.44,0,0,0-.14,3.3L89.24,59a71.51,71.51,0,0,0-8.59,20.37L63.81,81A2.44,2.44,0,0,0,61.6,83.4v25.08a2.49,2.49,0,0,0,2.21,2.46l16.84,1.61A69.58,69.58,0,0,0,89.24,133L78.51,145.9a2.47,2.47,0,0,0,.14,3.3l17.71,17.71a2.4,2.4,0,0,0,1.71.72,2.53,2.53,0,0,0,1.59-.58l13-10.73A71.69,71.69,0,0,0,133,164.91l1.61,16.84a2.46,2.46,0,0,0,2.46,2.21h24.2a2.47,2.47,0,0,0,2.45-2.21l1.62-16.84a71.69,71.69,0,0,0,20.38-8.59l13,10.73a2.48,2.48,0,0,0,1.58.57,2.42,2.42,0,0,0,1.72-.71l17.71-17.71a2.44,2.44,0,0,0,.14-3.3L209.12,133a69.58,69.58,0,0,0,8.59-20.41l16.84-1.61a2.46,2.46,0,0,0,2.21-2.46V83.4A2.49,2.49,0,0,0,234.51,81l-16.83-1.61A71.72,71.72,0,0,0,209.08,59l10.74-13a2.49,2.49,0,0,0-.14-3.3L202,25a2.4,2.4,0,0,0-1.71-.72,2.43,2.43,0,0,0-1.58.58L185.73,35.6A69.52,69.52,0,0,0,165.31,27L163.7,10.17A2.45,2.45,0,0,0,161.24,8ZM112.39,41.07a2.43,2.43,0,0,0,1.37-.42,64,64,0,0,1,22-9.26,2.44,2.44,0,0,0,1.93-2.17l1.57-16.38H159l1.58,16.38a2.51,2.51,0,0,0,1.93,2.17,64.89,64.89,0,0,1,22,9.26,2.55,2.55,0,0,0,1.37.41,2.4,2.4,0,0,0,1.54-.55L200,30.06l14.52,14.52L204.07,57.2a2.53,2.53,0,0,0-.18,2.91,66.64,66.64,0,0,1,9.3,22,2.43,2.43,0,0,0,2.17,1.93l16.38,1.58.07,20.62-16.38,1.58a2.49,2.49,0,0,0-2.17,1.93,65.09,65.09,0,0,1-9.26,22,2.46,2.46,0,0,0,.14,2.91l10.45,12.63-14.52,14.52-12.63-10.46a2.53,2.53,0,0,0-2.91-.17,66.69,66.69,0,0,1-22,9.29,2.41,2.41,0,0,0-1.93,2.18L159,179.05H139.29l-1.58-16.38a2.51,2.51,0,0,0-1.93-2.18,66.42,66.42,0,0,1-22-9.29,2.46,2.46,0,0,0-1.34-.4,2.5,2.5,0,0,0-1.58.57L98.22,161.83,83.7,147.31l10.45-12.63a2.42,2.42,0,0,0,.14-2.91,64.29,64.29,0,0,1-9.26-22,2.42,2.42,0,0,0-2.17-1.93l-16.38-1.58V85.65l16.38-1.58A2.5,2.5,0,0,0,85,82.14a66.64,66.64,0,0,1,9.3-22,2.44,2.44,0,0,0-.18-2.91L83.7,44.58,98.22,30.06l12.62,10.45a2.44,2.44,0,0,0,1.55.56Z"/><path class="cls-1" d="M149.49,43a53,53,0,1,0,53,53,53,53,0,0,0-53-53Zm0,101a48.05,48.05,0,1,1,48-48,48.11,48.11,0,0,1-48,48.05Z"/><path class="cls-1" d="M114.39,75.3a8.12,8.12,0,0,0-8.1,8.1v2.25a8.1,8.1,0,0,0,16.2,0V83.4a8.13,8.13,0,0,0-8.1-8.1Zm0,13.54a3.2,3.2,0,0,1-3.19-3.19V83.4a3.19,3.19,0,1,1,6.38,0v2.25a3.21,3.21,0,0,1-3.19,3.19Z"/><path class="cls-1" d="M131.92,85.12a8.13,8.13,0,0,0-8.1,8.1v2.25a8.11,8.11,0,0,0,16.21,0V93.22a8.13,8.13,0,0,0-8.11-8.1Zm0,13.5a3.2,3.2,0,0,1-3.19-3.19V93.19a3.2,3.2,0,0,1,6.39,0v2.24a3.2,3.2,0,0,1-3.2,3.19Z"/><path class="cls-1" d="M166.82,85.12a8.13,8.13,0,0,0-8.1,8.1v2.25a8.1,8.1,0,0,0,16.2,0V93.22a8.12,8.12,0,0,0-8.1-8.1Zm0,13.5a3.2,3.2,0,0,1-3.19-3.19V93.19a3.19,3.19,0,0,1,6.38,0v2.24a3.2,3.2,0,0,1-3.19,3.19Z"/><path class="cls-1" d="M149.46,75.3a8.13,8.13,0,0,0-8.1,8.1v2.25a8.1,8.1,0,0,0,16.2,0V83.4a8.13,8.13,0,0,0-8.1-8.1Zm0,13.54a3.21,3.21,0,0,1-3.19-3.19V83.4a3.19,3.19,0,1,1,6.38,0v2.25a3.21,3.21,0,0,1-3.19,3.19Z"/><path class="cls-1" d="M184.53,75.27a8.1,8.1,0,0,0-8.1,8.1v2.24a8.1,8.1,0,0,0,16.2,0V83.37a8.12,8.12,0,0,0-8.1-8.1Zm0,13.53a3.2,3.2,0,0,1-3.19-3.19V83.37a3.19,3.19,0,1,1,6.38,0v2.24a3.19,3.19,0,0,1-3.19,3.19Z"/><path class="cls-1" d="M131.92,60.57a8.13,8.13,0,0,0-8.1,8.1v2.25a8.11,8.11,0,0,0,16.21,0V68.67a8.13,8.13,0,0,0-8.11-8.1Zm0,13.5a3.2,3.2,0,0,1-3.19-3.19V68.64a3.2,3.2,0,0,1,6.39,0v2.24a3.2,3.2,0,0,1-3.2,3.19Z"/><path class="cls-1" d="M166.82,60.57a8.13,8.13,0,0,0-8.1,8.1v2.25a8.1,8.1,0,0,0,16.2,0V68.67a8.12,8.12,0,0,0-8.1-8.1Zm0,13.5a3.2,3.2,0,0,1-3.19-3.19V68.64a3.19,3.19,0,1,1,6.38,0v2.24a3.2,3.2,0,0,1-3.19,3.19Z"/><path class="cls-1" d="M149.46,48.3a8.12,8.12,0,0,0-8.1,8.1v2.24a8.1,8.1,0,1,0,16.2,0V56.4a8.12,8.12,0,0,0-8.1-8.1Zm0,13.5a3.21,3.21,0,0,1-3.19-3.19V56.36a3.19,3.19,0,1,1,6.38,0v2.25a3.21,3.21,0,0,1-3.19,3.19Z"/><path class="cls-1" d="M172,103.92a2.47,2.47,0,0,0-1.68.67l-3.47,3.26-3.34-3.23a2.44,2.44,0,0,0-1.71-.7,11.44,11.44,0,0,0-11.44,11.43v10.77a2.45,2.45,0,0,0,2.46,2.46h28a2.44,2.44,0,0,0,2.45-2.46V115.18A11.25,11.25,0,0,0,172,103.92Zm-16.69,19.75v-8.28a6.57,6.57,0,0,1,5.61-6.49l4.21,4.1a4.48,4.48,0,0,0,.42.36c.1.07.21.1.31.17a2.5,2.5,0,0,0,2.67-.46l4.42-4.13a6.33,6.33,0,0,1,5.43,6.27v8.46Z"/><path class="cls-1" d="M137.11,103.92a2.49,2.49,0,0,0-1.68.67L132,107.85l-3.33-3.23a2.48,2.48,0,0,0-1.72-.7,11.44,11.44,0,0,0-11.44,11.43v10.77a2.45,2.45,0,0,0,2.46,2.46h28a2.44,2.44,0,0,0,2.45-2.46V115.18a11.27,11.27,0,0,0-11.26-11.26Zm-16.73,19.75v-8.28A6.58,6.58,0,0,1,126,108.9l4.2,4.1c.15.14.29.25.43.36s.21.1.31.17a2.5,2.5,0,0,0,2.67-.46l4.42-4.13a6.34,6.34,0,0,1,5.43,6.27v8.46Z"/></g></svg>