<svg xmlns="http://www.w3.org/2000/svg" viewBox="0 0 300 200"><defs><style>.cls-1{fill:#f16823;}</style></defs><g id="fo2"><path class="cls-1" d="M77,78.47A13.6,13.6,0,0,0,63.44,92.06v4.47a13.59,13.59,0,0,0,27.17,0V92.06A13.6,13.6,0,0,0,77,78.47Zm0,26.75a8.72,8.72,0,0,1-8.7-8.69V92.06a8.7,8.7,0,1,1,17.39,0v4.47A8.71,8.71,0,0,1,77,105.22Z"/><path class="cls-1" d="M180.52,97.85a13.61,13.61,0,0,0-13.59,13.59v4.47a13.59,13.59,0,0,0,27.18,0v-4.47a13.63,13.63,0,0,0-13.59-13.59Zm0,26.76a8.73,8.73,0,0,1-8.7-8.7v-4.47a8.7,8.7,0,1,1,17.4,0v4.47a8.72,8.72,0,0,1-8.7,8.7Z"/><path class="cls-1" d="M146.22,78.47a13.63,13.63,0,0,0-13.59,13.59v4.47a13.59,13.59,0,0,0,27.18,0V92.06a13.6,13.6,0,0,0-13.59-13.59Zm0,26.75a8.72,8.72,0,0,1-8.7-8.69V92.06a8.7,8.7,0,1,1,17.4,0v4.47a8.72,8.72,0,0,1-8.7,8.69Z"/><path class="cls-1" d="M215.42,78.47a13.6,13.6,0,0,0-13.59,13.59v4.47a13.59,13.59,0,0,0,27.17,0V92.06a13.62,13.62,0,0,0-13.58-13.59Zm0,26.75a8.72,8.72,0,0,1-8.7-8.69V92.06a8.7,8.7,0,1,1,17.39,0v4.47a8.71,8.71,0,0,1-8.69,8.69Z"/><path class="cls-1" d="M111.64,49.41A13.63,13.63,0,0,0,98.05,63v4.47a13.59,13.59,0,0,0,27.18,0V63a13.59,13.59,0,0,0-13.59-13.58Zm0,26.75a8.72,8.72,0,0,1-8.7-8.7V63a8.7,8.7,0,0,1,17.39,0v4.47a8.72,8.72,0,0,1-8.69,8.7Z"/><path class="cls-1" d="M180.52,49.41A13.6,13.6,0,0,0,166.93,63v4.47a13.59,13.59,0,1,0,27.18,0V63a13.59,13.59,0,0,0-13.59-13.58Zm0,26.75a8.73,8.73,0,0,1-8.7-8.7V63a8.7,8.7,0,0,1,17.4,0v4.47a8.72,8.72,0,0,1-8.7,8.7Z"/><path class="cls-1" d="M146.22,25.2a13.63,13.63,0,0,0-13.59,13.59v4.47a13.59,13.59,0,1,0,27.18,0V38.79A13.6,13.6,0,0,0,146.22,25.2Zm0,26.76a8.73,8.73,0,0,1-8.7-8.7V38.79a8.7,8.7,0,1,1,17.4,0v4.47a8.73,8.73,0,0,1-8.7,8.7Z"/><path class="cls-1" d="M111.64,97.85a13.64,13.64,0,0,0-13.59,13.59v4.47a13.59,13.59,0,0,0,27.18,0v-4.47a13.63,13.63,0,0,0-13.59-13.59Zm0,26.76a8.72,8.72,0,0,1-8.7-8.7v-4.47a8.7,8.7,0,1,1,17.39,0v4.47a8.72,8.72,0,0,1-8.69,8.7Z"/><path class="cls-1" d="M191.91,135a2.4,2.4,0,0,0-1.08.24l-10.27,7.48-9.92-7.44a2.48,2.48,0,0,0-1.12-.28,22.21,22.21,0,0,0-22.18,22.18v23.58a2.42,2.42,0,0,0,2.44,2.44h61.45a2.42,2.42,0,0,0,2.44-2.44v-24A21.81,21.81,0,0,0,191.91,135Zm-6.71,8.49,7.27-3.57a16.92,16.92,0,0,1,16.35,16.87l0,21.52H152.26V157.2A17.31,17.31,0,0,1,169,139.91l6.95,3.53"/><path class="cls-1" d="M170.82,138.17,169,139.91l9.72,7.4a2.54,2.54,0,0,0,.84.49,2.38,2.38,0,0,0,.79.13,2.53,2.53,0,0,0,1.62-.58l10.5-7.41-3-1.09L180.73,143l-3.73-.74-6.18-4.12Z"/><path class="cls-1" d="M123.05,135a2.41,2.41,0,0,0-1.09.24l-10.27,7.48-9.92-7.44a2.44,2.44,0,0,0-1.11-.28A22.21,22.21,0,0,0,78.48,157.2v23.58a2.42,2.42,0,0,0,2.44,2.44h61.44a2.43,2.43,0,0,0,2.45-2.44v-24A21.81,21.81,0,0,0,123.05,135Zm-6.71,8.49,7.26-3.57A16.92,16.92,0,0,1,140,156.81l0,21.52H83.4V157.2a17.31,17.31,0,0,1,16.73-17.29l7,3.53"/><path class="cls-1" d="M102,138.17l-1.82,1.74,9.73,7.4a2.44,2.44,0,0,0,1.63.62,2.55,2.55,0,0,0,1.62-.58l10.49-7.41-3-1.09L111.87,143l-3.73-.74L102,138.17Z"/></g></svg>