<svg xmlns="http://www.w3.org/2000/svg" viewBox="0 0 300 200"><defs><style>.cls-1{fill:#f16823;}</style></defs><g id="fo3"><path class="cls-1" d="M122.65,179.43h0M126.6,72.24H87.8a2.43,2.43,0,0,0-2.45,2.45v6.74H79.23a2.44,2.44,0,0,0-2.45,2.45v95.55H72.24a2.45,2.45,0,1,0,0,4.9H233.06a2.43,2.43,0,0,0,2.45-2.45,2.4,2.4,0,0,0-2.45-2.41h-2v-89A2.43,2.43,0,0,0,228.62,88H210.76a2.43,2.43,0,0,0-2.45,2.44v89h-6.82V111.36a2.43,2.43,0,0,0-2.44-2.45H181.18a2.44,2.44,0,0,0-2.45,2.45v68.07h-6.81V135.1a2.44,2.44,0,0,0-2.45-2.45H151.6a2.43,2.43,0,0,0-2.44,2.45v44.37H137.62V83.88a2.44,2.44,0,0,0-2.45-2.45h-6.12V74.69a2.43,2.43,0,0,0-2.45-2.45ZM90.24,81.47v-4.3h33.88v4.3Zm-8.56,98V86.33h51v93.1H118.11V160.87a2.43,2.43,0,0,0-2.45-2.45h-18a2.43,2.43,0,0,0-2.45,2.45v18.6Zm131.56,0V92.9h13v86.57Zm-29.58,0V113.81h13v65.62Zm-29.58,0V137.55h13v41.92Zm-54,0V163.31h13.11v16.16Z"/><path class="cls-1" d="M224.12,49.17h0m-.6-4.25H223a2.17,2.17,0,0,0-1.07.26l-24.79,5.1a2.45,2.45,0,0,0,.5,4.85,2.22,2.22,0,0,0,.51-.06l20.28-4.16a93.07,93.07,0,0,1-19.4,24.23,102,102,0,0,1-25,16.33,103.62,103.62,0,0,1-29.33,8.88,2.44,2.44,0,0,0-2.17,2.69,2.4,2.4,0,0,0,2.41,2.13h.25c.56-.07,14.05-1.54,30.73-9.23a106.89,106.89,0,0,0,26.33-17.09A97.41,97.41,0,0,0,222.3,54l3.91,19.65a2.48,2.48,0,0,0,2.41,2,2,2,0,0,0,.49,0A2.47,2.47,0,0,0,231,72.69l-5.18-25.8a2.53,2.53,0,0,0-1.05-1.57,2.24,2.24,0,0,0-1.29-.4Z"/><path class="cls-1" d="M110.38,104.82h-6.33a2.45,2.45,0,0,0,0,4.9h6.33a2.43,2.43,0,0,0,2.45-2.45,2.46,2.46,0,0,0-2.45-2.45Z"/><path class="cls-1" d="M110.38,118.49h-6.33a2.45,2.45,0,0,0,0,4.9h6.33a2.43,2.43,0,0,0,2.45-2.45,2.46,2.46,0,0,0-2.45-2.45Z"/><path class="cls-1" d="M127.86,104.82h-6.32a2.45,2.45,0,0,0,0,4.9h6.32a2.43,2.43,0,0,0,2.45-2.45,2.46,2.46,0,0,0-2.45-2.45Z"/><path class="cls-1" d="M127.86,118.49h-6.32a2.45,2.45,0,1,0,0,4.9h6.32a2.43,2.43,0,0,0,2.45-2.45,2.46,2.46,0,0,0-2.45-2.45Z"/><path class="cls-1" d="M92.9,104.82H86.54a2.45,2.45,0,0,0,0,4.9h6.33a2.45,2.45,0,0,0,0-4.9Z"/><path class="cls-1" d="M92.9,118.49H86.54a2.45,2.45,0,1,0,0,4.9h6.33a2.45,2.45,0,0,0,0-4.9Z"/><path class="cls-1" d="M110.38,90.84h-6.33a2.45,2.45,0,0,0,0,4.89h6.33a2.43,2.43,0,0,0,2.45-2.44,2.45,2.45,0,0,0-2.45-2.45Z"/><path class="cls-1" d="M127.86,90.84h-6.32a2.45,2.45,0,1,0,0,4.89h6.32a2.43,2.43,0,0,0,2.45-2.44,2.45,2.45,0,0,0-2.45-2.45Z"/><path class="cls-1" d="M92.9,90.84H86.54a2.45,2.45,0,1,0,0,4.89h6.33a2.45,2.45,0,0,0,0-4.89Z"/><path class="cls-1" d="M110.38,132.48h-6.33a2.45,2.45,0,0,0,0,4.89h6.33a2.43,2.43,0,0,0,2.45-2.44,2.45,2.45,0,0,0-2.45-2.45Z"/><path class="cls-1" d="M127.86,132.48h-6.32a2.45,2.45,0,1,0,0,4.89h6.32a2.43,2.43,0,0,0,2.45-2.44,2.45,2.45,0,0,0-2.45-2.45Z"/><path class="cls-1" d="M92.9,132.48H86.54a2.45,2.45,0,1,0,0,4.89h6.33a2.45,2.45,0,0,0,0-4.89Z"/><path class="cls-1" d="M110.38,146.46h-6.33a2.45,2.45,0,0,0,0,4.9h6.33a2.43,2.43,0,0,0,2.45-2.45,2.46,2.46,0,0,0-2.45-2.45Z"/><path class="cls-1" d="M127.86,146.46h-6.32a2.45,2.45,0,1,0,0,4.9h6.32a2.43,2.43,0,0,0,2.45-2.45,2.46,2.46,0,0,0-2.45-2.45Z"/><path class="cls-1" d="M92.9,146.46H86.54a2.45,2.45,0,1,0,0,4.9h6.33a2.45,2.45,0,0,0,0-4.9Z"/></g></svg>