<svg xmlns="http://www.w3.org/2000/svg" viewBox="0 0 300 200"><defs><style>.cls-1{fill:#f16823;}</style></defs><g id="fo4"><path class="cls-1" d="M164.3,36.23h-5.07a2.52,2.52,0,0,0-1.7.67l-7.15,6.7-6.87-6.66a2.47,2.47,0,0,0-1.73-.71h-5.39a12.52,12.52,0,0,0-12.45,13.64V79.41a7.82,7.82,0,0,0,7.79,7.79h.11a7.11,7.11,0,0,0,3.24-.78l1.27,40.5a8.22,8.22,0,0,0,8.25,7.93,8.43,8.43,0,0,0,3.28-.67v3.28H86.33a2.45,2.45,0,0,0-2.46,2.47v14.28H69.31a2.45,2.45,0,0,0-2.47,2.46v24.22a2.45,2.45,0,0,0,2.47,2.46h33.45a2.45,2.45,0,0,0,2.47-2.46V156.67a2.45,2.45,0,0,0-2.47-2.46h-14V142.4h59.11v11.81H133.67a2.45,2.45,0,0,0-2.47,2.46v24.22a2.45,2.45,0,0,0,2.47,2.46h33.45a2.45,2.45,0,0,0,2.47-2.46V156.67a2.45,2.45,0,0,0-2.47-2.46H152.85V142.4H212v11.81H198a2.45,2.45,0,0,0-2.47,2.46v24.22a2.45,2.45,0,0,0,2.47,2.46h33.45a2.45,2.45,0,0,0,2.47-2.46V156.67a2.47,2.47,0,0,0-2.47-2.46H216.89V139.93a2.46,2.46,0,0,0-2.47-2.47H152.85v-3.28a8.06,8.06,0,0,0,3.31.71,8.25,8.25,0,0,0,8.25-8l1.27-40.46a8,8,0,0,0,3.27.74,7.79,7.79,0,0,0,7.79-7.79V49.87A12.51,12.51,0,0,0,164.3,36.23ZM150.45,49.48a2.53,2.53,0,0,0,1.69-.66l8.14-7.65h4.09a7.46,7.46,0,0,1,5.61,2.5,7.53,7.53,0,0,1,1.9,5.82V79.38A2.84,2.84,0,0,1,169,82.23a2.65,2.65,0,0,1-2-.85,2.85,2.85,0,0,1-.85-2V59.53a2.47,2.47,0,1,0-4.93,0V74.44H139.63V59.53a2.47,2.47,0,1,0-4.94,0V79.27h0a2.94,2.94,0,0,1-2.82,3,2.79,2.79,0,0,1-2.05-.85,2.93,2.93,0,0,1-.84-2V49.49a7.55,7.55,0,0,1,7.51-8.32h4.4l7.83,7.61a1.52,1.52,0,0,0,.49.35s.11,0,.14.07.07,0,.14.07a2.52,2.52,0,0,0,1,.21ZM161,79.41l-1.48,47.34a3.27,3.27,0,0,1-3.31,3.17,3.31,3.31,0,0,1-3.31-3.31V86.25a2.47,2.47,0,0,0-4.94,0v40.39a3.25,3.25,0,0,1-3.28,3.31,3.3,3.3,0,0,1-3.31-3.17l-1.48-47.37Zm39.52,99.05V159.17H229v19.29Zm-64.37,0V159.17h28.52v19.29Zm-64.32,0V159.17h28.51v19.29Z"/><path class="cls-1" d="M150,8.85A12.12,12.12,0,0,0,137.9,21v3.88a12.13,12.13,0,0,0,24.25,0V21A12.12,12.12,0,0,0,150,8.85Zm0,23.19a7.2,7.2,0,0,1-7.19-7.19V21a7.19,7.19,0,0,1,14.38,0v3.88A7.19,7.19,0,0,1,150.06,32Z"/></g></svg>