<svg id="fp1" xmlns="http://www.w3.org/2000/svg" viewBox="0 0 300 200"><defs><style>.cls-1{fill:#f16823;}</style></defs><path class="cls-1" d="M177.34,26.19a35,35,0,0,0-18,65v9a2.81,2.81,0,0,0,1.45,2.45,2.75,2.75,0,0,0,2.85-.08L174.12,96c1,.08,2.13.16,3.22.16a35,35,0,0,0,0-69.94ZM165,95V89.5a2.8,2.8,0,0,0-1.49-2.5,29.29,29.29,0,1,1,13.83,3.5,34.35,34.35,0,0,1-3.54-.2l-.33,0a3.05,3.05,0,0,0-1.52.42L165,95Z"/><path class="cls-1" d="M187.75,61.76H164.28a2.82,2.82,0,1,0,0,5.63h23.47a2.82,2.82,0,0,0,0-5.63Z"/><path class="cls-1" d="M179.55,50.59H164.11a2.81,2.81,0,0,0,0,5.62h15.44a2.81,2.81,0,1,0,0-5.62Z"/><path class="cls-1" d="M120.41,80.77a19.89,19.89,0,0,0-19.89,19.9v6.83a19.9,19.9,0,1,0,39.79,0v-6.83a19.92,19.92,0,0,0-19.9-19.9Zm0,41a14.28,14.28,0,0,1-14.27-14.27v-6.83a14.27,14.27,0,0,1,28.54,0v6.83a14.27,14.27,0,0,1-14.27,14.27Z"/><path class="cls-1" d="M141.07,134h-4.3a2.81,2.81,0,0,0-2.69,2.05l-5,17.57-3.18-5.67,3.06-9.77a2.75,2.75,0,0,0-.41-2.49,2.8,2.8,0,0,0-2.25-1.17H115.39a2.8,2.8,0,0,0-2.25,1.17,2.74,2.74,0,0,0-.4,2.49l3.05,9.81-2.65,5.15-4.42-17A2.82,2.82,0,0,0,106,134h-4.86a20.48,20.48,0,0,0-15.28,6.8,20.7,20.7,0,0,0-5.22,15.71v33.69a2.79,2.79,0,0,0,.84,2,2.85,2.85,0,0,0,2,.8h75.37a2.79,2.79,0,0,0,2.81-2.81V156.5A20.67,20.67,0,0,0,141.07,134Zm-11.15,29.69a2.42,2.42,0,0,0,.38,0,2.8,2.8,0,0,0,2.37-2l6.27-22.07h2.21a15,15,0,0,1,11.1,4.94A15.46,15.46,0,0,1,156,156v31.27H86.21V156a15,15,0,0,1,14.87-16.48h2.69l5.75,22a2.92,2.92,0,0,0,2.29,2.09l.4,0a2.86,2.86,0,0,0,2.42-1.36s.08-.12.12-.16L120.53,151h.73l6.27,11.21a2.75,2.75,0,0,0,2.39,1.43Zm-9.14-18.35-1.65-5.19h3.29l-1.64,5.19Z"/></svg>