<svg xmlns="http://www.w3.org/2000/svg" viewBox="0 0 300 200"><defs><style>.cls-1{fill:#f16823;}</style></defs><g id="fp2"><path class="cls-1" d="M224,142.37H170.22l-5.95,0h-9.53a2.93,2.93,0,0,0-2.61,1.68l-19.59,43.13,1.83,5.67h69.25a2.93,2.93,0,0,0,2.61-1.67l20.37-44.81a2.85,2.85,0,0,0-.21-2.73,2.72,2.72,0,0,0-2.36-1.31Zm-85.18,44.81,17.76-39.1h63l-17.76,39.1Z"/><path class="cls-1" d="M116.07,87.1A20.09,20.09,0,0,0,96,105.26c0,.49-.09,5.54-.09,15.12a20.15,20.15,0,1,0,40.29,0v-2.57a11.52,11.52,0,0,0,2.32.25A11.59,11.59,0,1,0,133,96.3a20.13,20.13,0,0,0-16.9-9.2Zm-14.46,19.75v-1.06A14.47,14.47,0,0,1,127,97.85c-8.07,1.14-17.81,4.11-25.38,9Zm36.94,5.54a5.62,5.62,0,0,1-2.32-.49v-4.6a19.48,19.48,0,0,0-.85-5.78,5.77,5.77,0,0,1,3.17-.94,5.91,5.91,0,1,1,0,11.81Zm-8-1.91A22.43,22.43,0,0,1,117,106a64.8,64.8,0,0,1,13-2.77,14.48,14.48,0,0,1,.57,4v3.22Zm-14.46,24.36a14.46,14.46,0,0,1-14.46-14.46c0-1.92,0-4.24,0-6.52a42.46,42.46,0,0,1,9.41-5.58,27.5,27.5,0,0,0,19.51,7.9v4.2a14.47,14.47,0,0,1-14.46,14.46Z"/><path class="cls-1" d="M152.36,149.46a20.76,20.76,0,0,0-15.44-6.88h-4.35a2.7,2.7,0,0,0-1.59.49l-14.46,9.77L103,143.11a2.7,2.7,0,0,0-1.67-.53h-5a20.87,20.87,0,0,0-20.77,22.81V190a2.8,2.8,0,0,0,.85,2,2.86,2.86,0,0,0,2,.82h55.94Zm-21.1.33-7.61,10.26-2.33-3.54Zm-19.55,6.64-2.36,3.62-8.48-11.4ZM152,165.27m-16.62,21.91H81.32V165a15.14,15.14,0,0,1,3.79-11.69,15.42,15.42,0,0,1,8.55-4.76l13.53,18.2a2.82,2.82,0,0,0,4.64-.16l4.61-7,4.6,7a3,3,0,0,0,2.28,1.3,2.74,2.74,0,0,0,2.36-1.14l13.57-18.25a15.37,15.37,0,0,1,8.88,4.81Z"/><path class="cls-1" d="M207.56,91a3,3,0,0,0-2,.76l-10.91,10-4.93-5.33a2.89,2.89,0,0,0-2.11-.91,2.8,2.8,0,0,0-1.92.75,2.87,2.87,0,0,0-.17,4l6.93,7.37a2.89,2.89,0,0,0,2.08.94,2.85,2.85,0,0,0,1.91-.73l13-11.9a2.83,2.83,0,0,0,.17-4,2.77,2.77,0,0,0-2.07-.93Z"/><path class="cls-1" d="M197.22,80.4A19.43,19.43,0,1,1,177.8,99.83,19.44,19.44,0,0,1,197.22,80.4m0-5.3A24.73,24.73,0,1,0,222,99.83,24.73,24.73,0,0,0,197.22,75.1Z"/></g></svg>