<svg xmlns="http://www.w3.org/2000/svg" viewBox="0 0 300 200"><defs><style>.cls-1{fill:#f16823;}</style></defs><g id="fp3"><path class="cls-1" d="M158.1,100.81h-7.3a2.83,2.83,0,0,0,0,5.65h7.3a2.83,2.83,0,0,0,0-5.65Z"/><path class="cls-1" d="M158.1,116.58h-7.3a2.83,2.83,0,0,0,0,5.65h7.3a2.83,2.83,0,0,0,0-5.65Z"/><path class="cls-1" d="M178.26,100.81H171a2.83,2.83,0,0,0,0,5.65h7.3a2.83,2.83,0,1,0,0-5.65Z"/><path class="cls-1" d="M178.26,116.58H171a2.83,2.83,0,0,0,0,5.65h7.3a2.83,2.83,0,1,0,0-5.65Z"/><path class="cls-1" d="M137.93,100.81h-7.3a2.83,2.83,0,0,0,0,5.65h7.3a2.83,2.83,0,1,0,0-5.65Z"/><path class="cls-1" d="M137.93,116.58h-7.3a2.83,2.83,0,0,0,0,5.65h7.3a2.83,2.83,0,1,0,0-5.65Z"/><path class="cls-1" d="M158.1,84.68h-7.3a2.83,2.83,0,0,0,0,5.65h7.3a2.83,2.83,0,0,0,0-5.65Z"/><path class="cls-1" d="M178.26,84.68H171a2.83,2.83,0,0,0,0,5.65h7.3a2.83,2.83,0,1,0,0-5.65Z"/><path class="cls-1" d="M137.93,84.68h-7.3a2.83,2.83,0,0,0,0,5.65h7.3a2.83,2.83,0,1,0,0-5.65Z"/><path class="cls-1" d="M158.1,132.71h-7.3a2.83,2.83,0,0,0,0,5.65h7.3a2.83,2.83,0,0,0,0-5.65Z"/><path class="cls-1" d="M178.26,132.71H171a2.83,2.83,0,0,0,0,5.65h7.3a2.83,2.83,0,1,0,0-5.65Z"/><path class="cls-1" d="M137.93,132.71h-7.3a2.83,2.83,0,0,0,0,5.65h7.3a2.83,2.83,0,1,0,0-5.65Z"/><path class="cls-1" d="M158.1,148.84h-7.3a2.83,2.83,0,0,0,0,5.65h7.3a2.83,2.83,0,0,0,0-5.65Z"/><path class="cls-1" d="M178.26,148.84H171a2.83,2.83,0,0,0,0,5.65h7.3a2.83,2.83,0,1,0,0-5.65Z"/><path class="cls-1" d="M137.93,148.84h-7.3a2.83,2.83,0,0,0,0,5.65h7.3a2.83,2.83,0,1,0,0-5.65Z"/><path class="cls-1" d="M215,100.81H197.22a2.83,2.83,0,1,0,0,5.65H215a2.83,2.83,0,1,0,0-5.65Z"/><path class="cls-1" d="M215,116.58H197.22a2.83,2.83,0,1,0,0,5.65H215a2.83,2.83,0,1,0,0-5.65Z"/><path class="cls-1" d="M215,132.71H197.22a2.83,2.83,0,1,0,0,5.65H215a2.83,2.83,0,1,0,0-5.65Z"/><path class="cls-1" d="M215,148.84H197.22a2.83,2.83,0,1,0,0,5.65H215a2.83,2.83,0,1,0,0-5.65Z"/><path class="cls-1" d="M176.85,63.32H132.09a2.81,2.81,0,0,0-2.83,2.82v7.78h-7a2.81,2.81,0,0,0-2.83,2.83v41.54H80.26a2.8,2.8,0,0,0-2.82,2.82v68.68a2.8,2.8,0,0,0,2.82,2.82H227.14a2.8,2.8,0,0,0,2.82-2.82V88.85A2.81,2.81,0,0,0,227.14,86H189.55V76.75a2.81,2.81,0,0,0-2.82-2.83h-7.06V66.14a2.8,2.8,0,0,0-2.82-2.82Zm-41.94,10.6V69H174v5ZM125,187V79.57h58.88V187H167.05V165.51a2.8,2.8,0,0,0-2.82-2.82H143.46a2.8,2.8,0,0,0-2.82,2.82V187Zm64.52,0V91.67h34.77V187h-6.45V165.51a2.81,2.81,0,0,0-2.83-2.82H197.22a2.81,2.81,0,0,0-2.83,2.82V187ZM83.09,187v-63h36.29v63H113V165.51a2.8,2.8,0,0,0-2.82-2.82H92.36a2.8,2.8,0,0,0-2.82,2.82V187Zm117,0V168.33h12.18V187Zm-53.76,0V168.33h15.13V187Zm-51.09,0V168.33h12.18V187Z"/><path class="cls-1" d="M110.19,132.71H92.36a2.83,2.83,0,0,0,0,5.65h17.83a2.83,2.83,0,0,0,0-5.65Z"/><path class="cls-1" d="M110.19,148.84H92.36a2.83,2.83,0,0,0,0,5.65h17.83a2.83,2.83,0,0,0,0-5.65Z"/></g></svg>