<svg xmlns="http://www.w3.org/2000/svg" viewBox="0 0 300 200"><defs><style>.cls-1{fill:#f16823;}</style></defs><g id="fp4"><path class="cls-1" d="M226.43,142.9H172.29l-6,0h-9.59a2.91,2.91,0,0,0-2.62,1.68L134.38,188l1.85,5.69H205.9a2.92,2.92,0,0,0,2.62-1.68L229,147a2.82,2.82,0,0,0-.21-2.74,2.74,2.74,0,0,0-2.37-1.31ZM140.74,188l17.86-39.35H222L204.09,188Z"/><path class="cls-1" d="M117.81,87.29a20.21,20.21,0,0,0-20.2,18.27c0,.5-.08,5.58-.08,15.21a20.27,20.27,0,1,0,40.53,0v-2.58a11.66,11.66,0,1,0-3.24-21.64,20.27,20.27,0,0,0-17-9.26Zm-14.54,19.87V106.1a14.55,14.55,0,0,1,25.53-8c-8.12,1.14-17.91,4.13-25.53,9Zm37.16,5.58a5.67,5.67,0,0,1-2.33-.5v-4.63a19.75,19.75,0,0,0-.86-5.82,5.87,5.87,0,0,1,3.19-.94,5.95,5.95,0,1,1,0,11.89Zm-8.07-1.93a22.54,22.54,0,0,1-13.6-4.51,65.47,65.47,0,0,1,13-2.79,14.69,14.69,0,0,1,.57,4.06v3.24Zm-14.55,24.51a14.55,14.55,0,0,1-14.54-14.55c0-1.93,0-4.26,0-6.56a42.52,42.52,0,0,1,9.46-5.61,27.73,27.73,0,0,0,19.63,8v4.22a14.55,14.55,0,0,1-14.55,14.55Z"/><path class="cls-1" d="M154.33,150a20.89,20.89,0,0,0-15.53-6.93h-4.39a2.8,2.8,0,0,0-1.6.49l-14.55,9.84-13.6-9.8a2.8,2.8,0,0,0-1.68-.53H98a21,21,0,0,0-20.9,23v24.8a2.78,2.78,0,0,0,.86,2,2.82,2.82,0,0,0,2,.82h56.28Zm-21.23.33-7.66,10.32-2.34-3.56ZM113.43,157l-2.38,3.64-8.52-11.47ZM154,165.93m-16.72,22H82.86V165.64a15.22,15.22,0,0,1,3.81-11.76,15.44,15.44,0,0,1,8.6-4.79l13.61,18.31a2.9,2.9,0,0,0,2.38,1.15,2.84,2.84,0,0,0,2.29-1.31l4.63-7.09,4.63,7.09a3,3,0,0,0,2.3,1.31,2.79,2.79,0,0,0,2.37-1.15L141.13,149a15.54,15.54,0,0,1,8.94,4.84Z"/><path class="cls-1" d="M203.39,54.35h-.31a21.86,21.86,0,0,0-15.57,36.8,13.21,13.21,0,0,1,3.64,8.48,2.86,2.86,0,0,0,.74,5.62H215a2.85,2.85,0,0,0,2.87-2.87,2.9,2.9,0,0,0-2.37-2.83,12.94,12.94,0,0,1,3.77-8.36,22,22,0,0,0,6-15,21.83,21.83,0,0,0-21.82-21.84Zm-6.5,45.2a19.2,19.2,0,0,0-5.24-12.33A16,16,0,0,1,187.3,76a16.44,16.44,0,0,1,15.82-15.86h.31a15.73,15.73,0,0,1,11.17,4.64,16.15,16.15,0,0,1,.45,22.58,18.6,18.6,0,0,0-5.33,12.25Z"/><path class="cls-1" d="M210.5,107.54H196.4a2.87,2.87,0,0,0,0,5.74h14.1a2.85,2.85,0,0,0,2.87-2.87,2.88,2.88,0,0,0-2.87-2.87Z"/><path class="cls-1" d="M203,37.38a2.85,2.85,0,0,0-2.87,2.87v7.87a2.87,2.87,0,1,0,5.74,0V40.25A2.86,2.86,0,0,0,203,37.38Z"/><path class="cls-1" d="M228,48.2a2.79,2.79,0,0,0-2,.78l-5.78,5.45a2.89,2.89,0,0,0-.12,4.06,2.88,2.88,0,0,0,4.06.12L230,53.16a2.9,2.9,0,0,0,.13-4.06,2.86,2.86,0,0,0-2.1-.9Z"/><path class="cls-1" d="M178.88,47.3a2.91,2.91,0,0,0-2,.82,2.85,2.85,0,0,0,0,4.06l5.53,5.61a2.87,2.87,0,0,0,4.06,0,2.84,2.84,0,0,0,0-4l-5.53-5.62a2.81,2.81,0,0,0-2-.86Z"/><path class="cls-1" d="M203,31a44.21,44.21,0,1,1-44.21,44.21A44.25,44.25,0,0,1,203,31m0-5.32a49.53,49.53,0,1,0,49.53,49.53A49.53,49.53,0,0,0,203,25.69Z"/></g></svg>