<svg xmlns="http://www.w3.org/2000/svg" viewBox="0 0 300 200"><defs><style>.cls-1{fill:none;stroke:#f16a24;stroke-miterlimit:10;stroke-width:4.26px;}.cls-2{fill:#f16a24;}</style></defs><g id="fp5"><path class="cls-1" d="M204,171.83l-35.23-32.39,0,47.86,10.69-10.23,6.28,14.31,9.8-4.3-6.28-14.31Z"/><path class="cls-2" d="M154.35,117.35H96.59A3.59,3.59,0,0,0,93,120.94V178.7a3.59,3.59,0,0,0,3.59,3.58h31.1V157.17h-8.43v-9.82h8.43v-7.24c0-8.39,5.12-13,12.6-13a68.58,68.58,0,0,1,7.56.39v8.76h-5.16c-4.07,0-4.85,1.94-4.85,4.78v6.26h9.73l-1.27,9.82h-8.46v25.11h16.51a3.58,3.58,0,0,0,3.59-3.58h0V120.93A3.59,3.59,0,0,0,154.35,117.35Z"/></g></svg>