<svg xmlns="http://www.w3.org/2000/svg" viewBox="0 0 300 200"><defs><style>.cls-1{fill:#f16823;}</style></defs><g id="fps1"><path class="cls-1" d="M161.36,26.06H139.62a2.46,2.46,0,0,0-2.45,2.2l-1.43,15a63.1,63.1,0,0,0-18.11,7.62L106.1,41.3a2.47,2.47,0,0,0-1.57-.57,2.42,2.42,0,0,0-1.72.71L86.91,57.37a2.42,2.42,0,0,0-.14,3.29l9.54,11.53A65.41,65.41,0,0,0,88.66,90.3l-15,1.43a2.45,2.45,0,0,0-2.21,2.45v22.58a2.47,2.47,0,0,0,2.21,2.45l15,1.43a63.1,63.1,0,0,0,7.62,18.11l-9.55,11.53a2.47,2.47,0,0,0,.14,3.29l15.94,15.94a2.43,2.43,0,0,0,1.71.71,2.5,2.5,0,0,0,1.58-.57l11.53-9.55a65.44,65.44,0,0,0,18.11,7.66l1.43,15a2.45,2.45,0,0,0,2.45,2.21h21.74a2.47,2.47,0,0,0,2.45-2.21l1.43-15a65,65,0,0,0,18.11-7.66l11.53,9.55a2.52,2.52,0,0,0,1.57.56,2.45,2.45,0,0,0,1.72-.7l15.94-15.94a2.44,2.44,0,0,0,.14-3.29l-9.55-11.53a63.1,63.1,0,0,0,7.62-18.11l15-1.43a2.45,2.45,0,0,0,2.21-2.45V94.18a2.35,2.35,0,0,0-2.14-2.45l-15-1.43a65,65,0,0,0-7.66-18.11l9.55-11.53a2.47,2.47,0,0,0-.14-3.29L198.17,41.44a2.4,2.4,0,0,0-1.71-.72,2.45,2.45,0,0,0-1.58.58l-11.53,9.54a63.1,63.1,0,0,0-18.11-7.62l-1.43-15a2.44,2.44,0,0,0-2.45-2.2Zm-43.9,30.26a2.47,2.47,0,0,0,1.36-.41,58.25,58.25,0,0,1,19.72-8.32,2.44,2.44,0,0,0,1.92-2.17l1.4-14.51h17.3l1.4,14.51a2.49,2.49,0,0,0,1.92,2.17,57.5,57.5,0,0,1,19.71,8.32,2.54,2.54,0,0,0,1.37.4,2.38,2.38,0,0,0,1.53-.54l11.19-9.27L209,59.26l-9.27,11.19a2.53,2.53,0,0,0-.17,2.9,59.73,59.73,0,0,1,8.32,19.75A2.42,2.42,0,0,0,210.09,95l14.5,1.4.07,18.1-14.5,1.4a2.5,2.5,0,0,0-2.17,1.92,57.66,57.66,0,0,1-8.32,19.72,2.48,2.48,0,0,0,.14,2.9l9.26,11.19-12.76,12.79-11.18-9.26a2.52,2.52,0,0,0-1.58-.56,2.55,2.55,0,0,0-1.32.38,59.52,59.52,0,0,1-19.75,8.32,2.4,2.4,0,0,0-1.92,2.17l-1.4,14.5h-17.3l-1.4-14.5a2.5,2.5,0,0,0-1.92-2.17A59.52,59.52,0,0,1,118.79,155a2.44,2.44,0,0,0-1.34-.4,2.38,2.38,0,0,0-1.56.58l-11.19,9.26L91.94,151.68l9.26-11.19a2.4,2.4,0,0,0,.14-2.9A58.18,58.18,0,0,1,93,117.88,2.41,2.41,0,0,0,90.86,116l-14.51-1.4V96.42L90.86,95A2.5,2.5,0,0,0,93,93.1a59.49,59.49,0,0,1,8.31-19.75,2.4,2.4,0,0,0-.17-2.9L91.91,59.26,104.74,46.5l11.18,9.27a2.42,2.42,0,0,0,1.54.55Z"/><path class="cls-1" d="M150.84,57.58a47.89,47.89,0,1,0,47.89,47.89,48,48,0,0,0-47.89-47.89Zm0,90.88a43,43,0,1,1,43-43,43,43,0,0,1-43,43Z"/><path class="cls-1" d="M150,71.53a17.24,17.24,0,0,0-17.23,15.59q-.06.63-.07,13a17.29,17.29,0,1,0,34.57,0v-2.2a9.61,9.61,0,0,0,2,.21,9.95,9.95,0,1,0,0-19.89,9.85,9.85,0,0,0-4.78,1.22A17.32,17.32,0,0,0,150,71.53Zm-12.41,17v-.91a12.41,12.41,0,0,1,21.78-6.81c-6.92,1-15.28,3.53-21.78,7.72Zm31.7,4.76a4.87,4.87,0,0,1-2-.42V88.87a16.79,16.79,0,0,0-.73-5,5,5,0,0,1,2.72-.8,5.07,5.07,0,0,1,0,10.14Zm-6.88-1.65a19.26,19.26,0,0,1-11.61-3.84,56,56,0,0,1,11.12-2.38,12.74,12.74,0,0,1,.49,3.46v2.76ZM150,112.5a12.41,12.41,0,0,1-12.41-12.41c0-1.64,0-3.64,0-5.59a35.93,35.93,0,0,1,8.08-4.79,23.6,23.6,0,0,0,16.74,6.78v3.6A12.41,12.41,0,0,1,150,112.5Z"/><path class="cls-1" d="M150.84,62.83a42.69,42.69,0,0,1,42.64,42.64,42.21,42.21,0,0,1-8.4,25.38,18.2,18.2,0,0,0-17.16-12.2h-3.74a2.65,2.65,0,0,0-1.56.48l-12.21,8.25L139,119.17a2.72,2.72,0,0,0-1.64-.52H133.1a18.2,18.2,0,0,0-13.54,6,18,18,0,0,0-3.43,5.54,42.27,42.27,0,0,1-7.93-24.74,42.69,42.69,0,0,1,42.64-42.64m0-.35A43,43,0,0,0,116.23,131,17.9,17.9,0,0,1,133.1,119h4.27a2.36,2.36,0,0,1,1.43.45l11.6,8.36,12.41-8.39a2.36,2.36,0,0,1,1.37-.42h3.74a17.81,17.81,0,0,1,13.24,5.91,17.61,17.61,0,0,1,3.8,6.68,43,43,0,0,0-34.12-69.11Z"/><path class="cls-1" d="M167.92,119h-3.74a2.36,2.36,0,0,0-1.37.42l-12.41,8.39-11.6-8.36a2.36,2.36,0,0,0-1.43-.45H133.1A17.9,17.9,0,0,0,116.23,131a44,44,0,0,0,4,4.64,13,13,0,0,1,3.25-7.4,13.29,13.29,0,0,1,7.35-4.09l11.6,15.63a2.5,2.5,0,0,0,1.93,1h.1a2.41,2.41,0,0,0,1.95-1.11l4-6.05,3.95,6.05a2.54,2.54,0,0,0,2,1.11h.1a2.41,2.41,0,0,0,1.93-1l11.64-15.66a13.17,13.17,0,0,1,7.62,4.12,12.79,12.79,0,0,1,3.37,8,43,43,0,0,0,4.06-4.58,17.61,17.61,0,0,0-3.8-6.68A17.81,17.81,0,0,0,167.92,119Zm-23.67,15L137,124.21l9.3,6.67-2,3.11Zm12.27,0-2-3,8.53-5.76-6.54,8.8Z"/><path class="cls-1" d="M120.2,135.59a12.84,12.84,0,0,0,0,2.63v4a47.76,47.76,0,0,0,60.65.51v-4.53a12.77,12.77,0,0,0,.05-2.05,42.91,42.91,0,0,1-60.7-.58Z"/><path class="cls-1" d="M150.84,57.58a47.85,47.85,0,0,0-35.63,79.84,18.16,18.16,0,0,1,1-6.47,43,43,0,1,1,68.73.64,18.08,18.08,0,0,1,.77,6.63,47.85,47.85,0,0,0-34.89-80.64Z"/><path class="cls-1" d="M185,131.59a43,43,0,0,1-4.06,4.58,12.77,12.77,0,0,1-.05,2.05v4.53a48.65,48.65,0,0,0,4.88-4.53,18.08,18.08,0,0,0-.77-6.63Z"/><path class="cls-1" d="M116.23,131a18.16,18.16,0,0,0-1,6.47,50.47,50.47,0,0,0,5,4.82v-4a12.84,12.84,0,0,1,0-2.63,44,44,0,0,1-4-4.64Z"/></g></svg>