<svg xmlns="http://www.w3.org/2000/svg" viewBox="0 0 300 200"><defs><style>.cls-1{fill:#f16823;}</style></defs><g id="fps3"><path class="cls-1" d="M196.51,98.54l-12.19-2.43c0-.75.07-1.49.07-2.23a43.18,43.18,0,0,0-15.13-32.83l14.07-19.87-4.07-2.82-14,19.72a42.85,42.85,0,0,0-24.1-7.39c-1.24,0-2.48.07-3.71.18-.28-.36-.57-.71-.85-1a15.88,15.88,0,0,0-11.77-5.23h-6.82a2.45,2.45,0,0,0-2.37,1.8l-3.53,12.45-1.91-3.43,2.26-7.21a2.42,2.42,0,0,0-.35-2.19,2.45,2.45,0,0,0-2-1h-8.24a2.49,2.49,0,0,0-2.33,3.22l2.26,7.24-1.52,2.94L97.23,46.45a2.45,2.45,0,0,0-2.4-1.84H87.55A15.88,15.88,0,0,0,71.75,62v39.51a9.53,9.53,0,0,0,9.58,9.57h.11a9.47,9.47,0,0,0,5.12-1.59l1.77,59.77a10.18,10.18,0,0,0,17.88,6.29,10.18,10.18,0,0,0,17.88-6.29l1.06-35.2a43.26,43.26,0,0,0,16,3.07,42.65,42.65,0,0,0,20.68-5.3l13.85,20.5,4-2.86L166,129.22a43.13,43.13,0,0,0,17.71-28.13l11.73,2.33v.46m-7.95,48.6M106.74,50l-.74,2.4-.74-2.4ZM86,101.27a4.76,4.76,0,0,1-4.6,4.84h-.07A4.76,4.76,0,0,1,78,104.76a4.6,4.6,0,0,1-1.34-3.28V61.58a10.93,10.93,0,0,1,10.85-12h5.3l4.24,16.33A2.5,2.5,0,0,0,99,67.69a2.39,2.39,0,0,0,2.43-.88,1.52,1.52,0,0,0,.25-.43l4.24-8.2H106l4.63,8.27a2.4,2.4,0,0,0,2.44,1.24,2.45,2.45,0,0,0,2.08-1.77l4.67-16.39h4.91a10.92,10.92,0,0,1,10.85,12v39.9a4.65,4.65,0,0,1-4.63,4.63,4.75,4.75,0,0,1-3.29-1.34,4.64,4.64,0,0,1-1.38-3.29V92.82l0-1.38a2.37,2.37,0,0,0,0-.53v-16a2.47,2.47,0,0,0-4.94,0V92.71l-.07,3H91.08l-.14-4.38c0-.14,0-.25,0-.35v-16a2.48,2.48,0,1,0-5,0v26.33Zm33.18,67.78a5.23,5.23,0,0,1-10.46-.18V110.6a2.48,2.48,0,1,0-5,0v58.27a5.23,5.23,0,0,1-10.46.22l-2-68.43h30Zm22-36.9a38,38,0,0,1-15.83-3.42l.57-19.16a9.34,9.34,0,0,0,5.16,1.48,9.58,9.58,0,0,0,9.57-9.57V61.93a15.35,15.35,0,0,0-.67-6.26l1.2,0a38.26,38.26,0,0,1,0,76.51Z"/><path class="cls-1" d="M105.75,43.91a15.39,15.39,0,0,0,15.37-15.38V23.37a15.37,15.37,0,0,0-30.74,0v5.16A15.39,15.39,0,0,0,105.75,43.91ZM95.33,23.37a10.43,10.43,0,0,1,20.85,0v5.16A10.43,10.43,0,0,1,105.75,39h0A10.42,10.42,0,0,1,95.33,28.53V23.37Z"/><path class="cls-1" d="M190.26,8.64A16.86,16.86,0,1,1,173.41,25.5,16.87,16.87,0,0,1,190.26,8.64m0-4.59A21.45,21.45,0,1,0,211.71,25.5,21.45,21.45,0,0,0,190.26,4.05Z"/><path class="cls-1" d="M213.17,86.77a16.86,16.86,0,1,1-16.85,16.85,16.87,16.87,0,0,1,16.85-16.85m0-4.6a21.45,21.45,0,1,0,21.45,21.45,21.46,21.46,0,0,0-21.45-21.45Z"/><path class="cls-1" d="M223.18,100.08h0M221.81,96a2.55,2.55,0,0,0-1.7.66l-9.47,8.65-4.28-4.63a2.52,2.52,0,0,0-3.5-.14,2.51,2.51,0,0,0-.14,3.5l6,6.4a2.52,2.52,0,0,0,1.8.81,2.48,2.48,0,0,0,1.67-.63l11.27-10.32a2.47,2.47,0,0,0,.14-3.5,2.37,2.37,0,0,0-1.8-.8Z"/><path class="cls-1" d="M186.73,148.21a16.86,16.86,0,1,1-16.86,16.86,16.88,16.88,0,0,1,16.86-16.86m0-4.59a21.45,21.45,0,1,0,21.45,21.45,21.45,21.45,0,0,0-21.45-21.45Z"/><path class="cls-1" d="M197.54,161.52h0m-1.37-4.08a2.55,2.55,0,0,0-1.7.66L185,166.76l-4.28-4.63a2.48,2.48,0,1,0-3.64,3.36l6,6.4a2.5,2.5,0,0,0,1.8.81,2.42,2.42,0,0,0,1.66-.64l11.28-10.32a2.47,2.47,0,0,0,.14-3.5,2.42,2.42,0,0,0-1.8-.8Z"/><path class="cls-1" d="M200.27,22.4h0m-1.37-4.08a2.6,2.6,0,0,0-1.7.66l-9.47,8.66L183.45,23a2.48,2.48,0,1,0-3.64,3.36l6,6.4a2.5,2.5,0,0,0,1.8.81,2.42,2.42,0,0,0,1.66-.64l11.28-10.32a2.46,2.46,0,0,0,.14-3.49,2.4,2.4,0,0,0-1.8-.81Z"/></g></svg>