<svg xmlns="http://www.w3.org/2000/svg" viewBox="0 0 300 200"><defs><style>.cls-1{fill:#f16823;}</style></defs><g id="fps4"><path class="cls-1" d="M162,21.52h-22a2.49,2.49,0,0,0-2.47,2.23l-1.45,15.13a64,64,0,0,0-18.31,7.71l-11.67-9.65a2.52,2.52,0,0,0-1.59-.57,2.43,2.43,0,0,0-1.73.71L86.74,53.2a2.45,2.45,0,0,0-.14,3.32l9.65,11.67A66.26,66.26,0,0,0,88.51,86.5L73.38,88a2.46,2.46,0,0,0-2.23,2.48v22.84a2.48,2.48,0,0,0,2.23,2.47l15.13,1.45a64,64,0,0,0,7.7,18.31l-9.65,11.67a2.49,2.49,0,0,0,.14,3.32l16.13,16.12a2.39,2.39,0,0,0,1.72.73,2.51,2.51,0,0,0,1.6-.59l11.67-9.65a66.34,66.34,0,0,0,18.31,7.75L137.58,180a2.46,2.46,0,0,0,2.47,2.23h22a2.5,2.5,0,0,0,2.48-2.23L166,164.85a65.77,65.77,0,0,0,18.31-7.75L196,166.75a2.48,2.48,0,0,0,3.32-.14l16.12-16.12a2.45,2.45,0,0,0,.14-3.32l-9.65-11.67a64,64,0,0,0,7.71-18.31l15.13-1.45a2.47,2.47,0,0,0,2.23-2.47V90.43A2.38,2.38,0,0,0,228.79,88L213.62,86.5a65.44,65.44,0,0,0-7.74-18.31l9.65-11.67a2.49,2.49,0,0,0-.14-3.32L199.27,37.08a2.43,2.43,0,0,0-1.73-.72,2.48,2.48,0,0,0-1.59.58l-11.67,9.65A64.1,64.1,0,0,0,166,38.88l-1.45-15.13A2.48,2.48,0,0,0,162,21.52Zm-44.4,30.62a2.46,2.46,0,0,0,1.38-.42A59.07,59.07,0,0,1,139,43.3a2.44,2.44,0,0,0,1.94-2.19l1.42-14.67h17.49l1.42,14.67a2.52,2.52,0,0,0,1.94,2.19,58.28,58.28,0,0,1,19.94,8.42,2.56,2.56,0,0,0,1.38.41,2.43,2.43,0,0,0,1.56-.56l11.31-9.36,12.9,12.9L200.9,66.42a2.54,2.54,0,0,0-.18,2.94,60.2,60.2,0,0,1,8.41,20,2.46,2.46,0,0,0,2.19,2L226,92.69l.07,18.31-14.68,1.42a2.51,2.51,0,0,0-2.19,1.94,58.26,58.26,0,0,1-8.41,19.94,2.51,2.51,0,0,0,.14,2.94l9.37,11.31-12.9,12.94-11.32-9.37a2.55,2.55,0,0,0-1.59-.56,2.59,2.59,0,0,0-1.34.38,60.49,60.49,0,0,1-20,8.42,2.44,2.44,0,0,0-1.94,2.19l-1.42,14.67H142.32l-1.42-14.67a2.51,2.51,0,0,0-1.94-2.19,60.49,60.49,0,0,1-20-8.42,2.46,2.46,0,0,0-2.93.18l-11.32,9.37-12.9-12.91,9.37-11.31a2.44,2.44,0,0,0,.14-2.93,58.94,58.94,0,0,1-8.41-19.94,2.47,2.47,0,0,0-2.2-2L76.06,111V92.69l14.67-1.41a2.53,2.53,0,0,0,2.2-2,60.2,60.2,0,0,1,8.41-20,2.45,2.45,0,0,0-.18-2.94L91.8,55.11l13-12.9,11.31,9.36a2.44,2.44,0,0,0,1.56.57Z"/><path class="cls-1" d="M151.4,53.41a48.44,48.44,0,1,0,48.43,48.44A48.51,48.51,0,0,0,151.4,53.41Zm0,91.92a43.49,43.49,0,1,1,43.48-43.48,43.54,43.54,0,0,1-43.48,43.48Z"/><path class="cls-1" d="M151.19,63.1a7.81,7.81,0,0,0-7.81,7.81v2.27a7.81,7.81,0,0,0,15.62,0V70.91a7.81,7.81,0,0,0-7.81-7.81Zm0,13.61a3.56,3.56,0,0,1-3.57-3.57V70.88a3.57,3.57,0,0,1,7.14,0v2.26a3.56,3.56,0,0,1-3.57,3.57Z"/><path class="cls-1" d="M154.9,82.05h-7a12.72,12.72,0,0,0-12.73,12.73v13.39a5.07,5.07,0,0,0,1.56,3.72,5.23,5.23,0,0,0,3.64,1.55,6.4,6.4,0,0,0,1.41-.17l.71,22a5.54,5.54,0,0,0,5.52,5.34,5.6,5.6,0,0,0,3.39-1.17,5.52,5.52,0,0,0,8.91-4.17l.71-22a5,5,0,0,0,1.23.17h.07a5.15,5.15,0,0,0,3.65-1.52,5.53,5.53,0,0,0,1.62-3.85V94.78A12.71,12.71,0,0,0,154.9,82.05Zm-14.46,27.19a1,1,0,0,1-1-1V94.78a8.51,8.51,0,0,1,8.49-8.49h7a8.51,8.51,0,0,1,8.48,8.49l0,13.29a1.33,1.33,0,0,1-.36.85,1,1,0,0,1-.67.28,1,1,0,0,1-1-1V96.51h-4.24v7.28H145.71V96.51h-4.24V108.1a1.26,1.26,0,0,1-.36.85,1,1,0,0,1-.67.29Zm7.6,27.15a1.24,1.24,0,0,1-1.27-1.24L145.89,108H157l-.88,27.15a1.34,1.34,0,0,1-1.31,1.24,1.27,1.27,0,0,1-1.27-1.28v-22.9h-4.25v22.9a1.27,1.27,0,0,1-1.27,1.28Z"/></g></svg>