<svg xmlns="http://www.w3.org/2000/svg" viewBox="0 0 300 200"><defs><style>.cls-1{fill:#f16823;}</style></defs><g id="fps5"><path class="cls-1" d="M151.36,11.38A79.71,79.71,0,0,0,95,147.46a79.75,79.75,0,0,0,90.71,15.6l-.7,16.75v.1a3.6,3.6,0,0,0,2,3.24,3.7,3.7,0,0,0,1.44.31,3.6,3.6,0,0,0,2.32-.88l15.35-13.24,15.34,13.24a3.55,3.55,0,0,0,2.29.88,3.46,3.46,0,0,0,1.44-.31,3.55,3.55,0,0,0,2-3.24v-.1l-1.44-34.59A30.53,30.53,0,0,0,230.17,103a79.71,79.71,0,0,0-78.81-91.66Zm0,154.52a74.81,74.81,0,1,1,74.81-74.8c0,2.46-.14,5-.36,7.41a30.51,30.51,0,0,0-43.89,4.81V51.76a2.44,2.44,0,0,0-2.46-2.45h-6.15V42.53a2.45,2.45,0,0,0-2.46-2.46h-39a2.45,2.45,0,0,0-2.46,2.46v6.78h-6.14a2.44,2.44,0,0,0-2.46,2.45v87.91a2.45,2.45,0,0,0,2.46,2.46h60a28.8,28.8,0,0,0,3.16,3.09l-.53,12.22a74.68,74.68,0,0,1-34.56,8.46Zm-17-116.59V45h34v4.32Zm-8.64,87.9v-83H177v58.51a30.39,30.39,0,0,0,2.74,24.48H162.35V118.53a2.51,2.51,0,0,0-2.49-2.46H141.77a2.44,2.44,0,0,0-2.45,2.46v18.68Zm80.43,10.32a25.64,25.64,0,1,1,25.63-25.63,25.64,25.64,0,0,1-25.63,25.63Zm-61.92-10.32V121H157.4v16.23Zm62,15.24a30.26,30.26,0,0,0,14.93-3.9l1.16,28.2-13.73-11.83a3.53,3.53,0,0,0-2.39-.95,3.39,3.39,0,0,0-2.36.95l-13.73,11.83,1.2-28.2a30.19,30.19,0,0,0,14.92,3.9Z"/><path class="cls-1" d="M222.16,113.15h0m-1.53-3.93a2.43,2.43,0,0,0-1.7.7l-16.86,16.86L193.4,118a2.49,2.49,0,0,0-1.76-.73,2.38,2.38,0,0,0-1.72.73,2.45,2.45,0,0,0,0,3.48L200.35,132a2.5,2.5,0,0,0,1.76.74,2.53,2.53,0,0,0,1.75-.7l18.58-18.58a2.48,2.48,0,0,0,0-3.48,2.55,2.55,0,0,0-1.81-.77Z"/><path class="cls-1" d="M154.56,62.23H148.2a2.46,2.46,0,1,0,0,4.92h6.36A2.45,2.45,0,0,0,157,64.69a2.47,2.47,0,0,0-2.46-2.46Z"/><path class="cls-1" d="M154.56,76H148.2a2.46,2.46,0,1,0,0,4.91h6.36A2.44,2.44,0,0,0,157,78.46,2.47,2.47,0,0,0,154.56,76Z"/><path class="cls-1" d="M172.08,62.23h-6.35a2.46,2.46,0,1,0,0,4.92h6.35a2.46,2.46,0,0,0,0-4.92Z"/><path class="cls-1" d="M172.08,76h-6.35a2.46,2.46,0,1,0,0,4.91h6.35a2.46,2.46,0,1,0,0-4.91Z"/><path class="cls-1" d="M137,62.23h-6.36a2.46,2.46,0,1,0,0,4.92H137a2.45,2.45,0,0,0,2.46-2.46A2.47,2.47,0,0,0,137,62.23Z"/><path class="cls-1" d="M137,76h-6.36a2.46,2.46,0,1,0,0,4.91H137a2.44,2.44,0,0,0,2.46-2.45A2.47,2.47,0,0,0,137,76Z"/><path class="cls-1" d="M154.56,90H148.2a2.46,2.46,0,1,0,0,4.92h6.36A2.45,2.45,0,0,0,157,92.5,2.47,2.47,0,0,0,154.56,90Z"/><path class="cls-1" d="M172.08,90h-6.35a2.46,2.46,0,1,0,0,4.92h6.35a2.46,2.46,0,0,0,0-4.92Z"/><path class="cls-1" d="M137,90h-6.36a2.46,2.46,0,1,0,0,4.92H137a2.45,2.45,0,0,0,2.46-2.46A2.47,2.47,0,0,0,137,90Z"/><path class="cls-1" d="M154.56,104.09H148.2a2.46,2.46,0,1,0,0,4.92h6.36a2.45,2.45,0,0,0,2.46-2.46,2.47,2.47,0,0,0-2.46-2.46Z"/><path class="cls-1" d="M172.08,104.09h-6.35a2.46,2.46,0,1,0,0,4.92h6.35a2.46,2.46,0,0,0,0-4.92Z"/><path class="cls-1" d="M137,104.09h-6.36a2.46,2.46,0,1,0,0,4.92H137a2.45,2.45,0,0,0,2.46-2.46,2.47,2.47,0,0,0-2.46-2.46Z"/></g></svg>