<svg id="bd1de867-485a-4c17-959c-e354d38086f4" data-name="Layer 1" xmlns="http://www.w3.org/2000/svg" viewBox="0 0 509.1 693.77"><defs><style>.ac156f2a-ab11-4b7b-8581-63ac13f6ba64{fill:none;stroke:#fee1cb;stroke-miterlimit:10;stroke-width:15px;}.bcdf47bd-4364-4b88-a2cc-e5d4a8bf90a4{fill:#fee1cb;}.b5a88803-de15-409d-83fb-6820cba953db{fill:#f26722;}</style></defs><path class="ac156f2a-ab11-4b7b-8581-63ac13f6ba64" d="M396.09,440.61c-9.77,39.95-25.1,72.57-43.76,93.08L346.71,539" transform="translate(-51.45 -83.54)"/><path class="ac156f2a-ab11-4b7b-8581-63ac13f6ba64" d="M204,335.61c2.65-115.7,48.27-215.75,102.5-215.75,55.95,0,101.3,97.94,101.3,218.75" transform="translate(-51.45 -83.54)"/><path class="ac156f2a-ab11-4b7b-8581-63ac13f6ba64" d="M263.14,536.42c-12.7-13-24-31.54-33.09-54.17" transform="translate(-51.45 -83.54)"/><line class="ac156f2a-ab11-4b7b-8581-63ac13f6ba64" x1="55.62" y1="148.96" x2="463.49" y2="148.96"/><line class="ac156f2a-ab11-4b7b-8581-63ac13f6ba64" x1="256.65" y1="254.55" x2="496.67" y2="254.55"/><line class="ac156f2a-ab11-4b7b-8581-63ac13f6ba64" x1="32.62" y1="254.55" x2="149.37" y2="254.55"/><line class="ac156f2a-ab11-4b7b-8581-63ac13f6ba64" x1="378.92" y1="360.14" x2="459.49" y2="360.14"/><line class="ac156f2a-ab11-4b7b-8581-63ac13f6ba64" x1="270.65" y1="360.14" x2="365.07" y2="360.14"/><line class="ac156f2a-ab11-4b7b-8581-63ac13f6ba64" x1="57.62" y1="360.14" x2="138.37" y2="360.14"/><path class="bcdf47bd-4364-4b88-a2cc-e5d4a8bf90a4" d="M344.75,589.71a252.71,252.71,0,0,0,87.69-30.65c2.85-1.63-9.49-16.26-9.49-16.26l-7.61-20.23a212.94,212.94,0,0,1-65.64,25.48ZM189.82,539l-16.33,16.46A253,253,0,0,0,269.41,590l-6.27-41.81a213.1,213.1,0,0,1-66.7-25.77Zm-47.38-62.27A213.61,213.61,0,0,1,91.58,338.09c0-118.42,96-214.42,214.42-214.42s214.42,96,214.42,214.42a213.58,213.58,0,0,1-53.87,142.12l17.8,7.26,3.59,28.65a253.72,253.72,0,0,0,72.61-178c0-140.59-114-254.55-254.55-254.55S51.45,197.5,51.45,338.09a253.75,253.75,0,0,0,74.55,180l-4.27-34.37Z" transform="translate(-51.45 -83.54)"/><path class="b5a88803-de15-409d-83fb-6820cba953db" d="M211.75,474.11v22.3a7,7,0,0,0,3.6,6.1,6.82,6.82,0,0,0,7.1-.2l26-16.3c2.6.2,5.3.4,8,.4a86.86,86.86,0,1,0-44.7-12.3Zm44.7-147.7a73,73,0,0,1,0,146,84.91,84.91,0,0,1-8.8-.5,7.44,7.44,0,0,0-4.6,1l-17.3,10.8v-13.8a7,7,0,0,0-3.7-6.2,72.95,72.95,0,0,1,34.4-137.3Z" transform="translate(-51.45 -83.54)"/><path class="b5a88803-de15-409d-83fb-6820cba953db" d="M406.45,449.61c1.4,0,2.9-.1,4.3-.2l15.5,9.7a7,7,0,0,0,10.7-5.9v-12.5a56.93,56.93,0,1,0-30.5,8.9Zm0-100a43,43,0,0,1,20.3,80.9,7,7,0,0,0-3.7,6.2v3.9l-6.8-4.3a7,7,0,0,0-3.7-1.1,2,2,0,0,0-.8.1,45.33,45.33,0,0,1-5.2.3,43,43,0,0,1-.1-86Z" transform="translate(-51.45 -83.54)"/><path class="b5a88803-de15-409d-83fb-6820cba953db" d="M248.45,346.46v4.9a27,27,0,0,0,7,53.1,13,13,0,0,1,.1,26h-.2a13.08,13.08,0,0,1-12.9-13,7,7,0,0,0-14,0,27.06,27.06,0,0,0,20,26.1v5.8a7,7,0,0,0,14,0v-5.8a27,27,0,0,0-7-53.1,13,13,0,1,1,13-13,7,7,0,0,0,14,0,27.06,27.06,0,0,0-20-26.1v-4.9a7,7,0,0,0-14,0Z" transform="translate(-51.45 -83.54)"/><path class="b5a88803-de15-409d-83fb-6820cba953db" d="M402.77,363.25v2.57a14.2,14.2,0,0,0,3.68,27.92c3.79,0,7.84,3.05,7.84,6.83s-4.05,6.79-7.79,6.84h-.1a6.88,6.88,0,0,1-6.78-6.84,3.68,3.68,0,0,0-7.36,0,14.22,14.22,0,0,0,10.51,13.73v3.05a3.68,3.68,0,1,0,7.36,0V414.3a14.2,14.2,0,0,0-3.68-27.92,6.84,6.84,0,1,1,6.84-6.84,3.68,3.68,0,1,0,7.36,0,14.23,14.23,0,0,0-10.52-13.72v-2.57a3.68,3.68,0,1,0-7.36,0Z" transform="translate(-51.45 -83.54)"/><path class="b5a88803-de15-409d-83fb-6820cba953db" d="M355.55,624.06H345.33a7.73,7.73,0,0,0-7.45,5.66l-11.11,39.12-6-10.78,7.11-22.67a7.65,7.65,0,0,0-1.11-6.89,7.75,7.75,0,0,0-6.22-3.22h-25.9a7.73,7.73,0,0,0-6.22,3.22,7.62,7.62,0,0,0-1.11,6.89l7.11,22.78-4.78,9.23-9.78-37.56a7.74,7.74,0,0,0-7.56-5.78H260.53a49.91,49.91,0,0,0-49.67,54.56v90.91a7.68,7.68,0,0,0,2.33,5.56,7.85,7.85,0,0,0,5.56,2.22H397.56a7.73,7.73,0,0,0,7.78-7.78V678.62a49.94,49.94,0,0,0-12.67-38.12A50.54,50.54,0,0,0,355.55,624.06Zm-45.78,16.78-2.34,7.56-2.33-7.56Zm79.9,36.56v84.35H226.42V677.4a34.31,34.31,0,0,1,34.11-37.78h5.56L279.43,691a8,8,0,0,0,6.33,5.78,7.84,7.84,0,0,0,7.78-3.67.83.83,0,0,0,.22-.44l13.34-25.79h.33l14.56,26a7.57,7.57,0,0,0,7.67,3.89,7.76,7.76,0,0,0,6.56-5.56l14.67-51.56h4.33A34.21,34.21,0,0,1,380.67,651,33.57,33.57,0,0,1,389.67,677.4Z" transform="translate(-51.45 -83.54)"/><path class="b5a88803-de15-409d-83fb-6820cba953db" d="M306.65,621.83A48.38,48.38,0,0,0,355,573.49v-37.9a37.82,37.82,0,0,0-37.79-37.78H273.87a15.6,15.6,0,0,0-15.56,15.56v60.12A48.38,48.38,0,0,0,306.65,621.83Zm-20-85.57c.33.22.67.56,1,.78a56.13,56.13,0,0,0-13.78,9.56V524.15A84.62,84.62,0,0,0,286.65,536.26Zm20,70a32.81,32.81,0,0,1-32.78-31.46c1.56-5,9.45-24.56,33.45-27.44A54.14,54.14,0,0,0,324,550a56.45,56.45,0,0,0,15.34-2.22V573.6A32.73,32.73,0,0,1,306.65,606.28ZM339,531.59c-25,9.12-44.12-6.55-54.12-18.22H317.1A22.31,22.31,0,0,1,339,531.59Z" transform="translate(-51.45 -83.54)"/><path class="b5a88803-de15-409d-83fb-6820cba953db" d="M196.33,575.42H187.7a6.53,6.53,0,0,0-6.28,4.79l-9.38,33-5.06-9.1L173,585a6.45,6.45,0,0,0-.94-5.82,6.56,6.56,0,0,0-5.25-2.72H144.94a6.56,6.56,0,0,0-5.26,2.72,6.48,6.48,0,0,0-.94,5.82l6,19.23-4,7.78-8.25-31.7a6.54,6.54,0,0,0-6.38-4.88h-9.94a42.13,42.13,0,0,0-41.92,46.05v76.72a6.41,6.41,0,0,0,2,4.69,6.58,6.58,0,0,0,4.69,1.88H218.57l-1.27-8c3.66,0,8-29.76,8-33.41L238.35,638V621.47a42.13,42.13,0,0,0-10.69-32.17A42.68,42.68,0,0,0,196.33,575.42Zm-38.64,14.16-2,6.38-2-6.38Zm67.44,30.86v28l-7,23v20.27H87.35V620.44a29,29,0,0,1,28.79-31.89h4.69l11.26,43.33a6.76,6.76,0,0,0,5.34,4.88,6.6,6.6,0,0,0,6.57-3.09.77.77,0,0,0,.18-.38l11.26-21.76h.28l12.29,22a6.37,6.37,0,0,0,6.47,3.28,6.53,6.53,0,0,0,5.53-4.69l12.38-43.52h3.66a28.85,28.85,0,0,1,21.48,9.57A28.37,28.37,0,0,1,225.13,620.44Z" transform="translate(-51.45 -83.54)"/><path class="b5a88803-de15-409d-83fb-6820cba953db" d="M155.06,573.55a40.83,40.83,0,0,0,40.8-40.8v-32A31.92,31.92,0,0,0,164,468.88H127.4A13.16,13.16,0,0,0,114.27,482v50.74A40.82,40.82,0,0,0,155.06,573.55Zm-16.88-72.22c.28.18.56.47.85.65a47.23,47.23,0,0,0-11.63,8.07V491.1A71.1,71.1,0,0,0,138.18,501.33Zm16.88,59.09a27.68,27.68,0,0,1-27.66-26.55c1.31-4.22,8-20.73,28.23-23.16A45.49,45.49,0,0,0,169.7,513a47.48,47.48,0,0,0,12.94-1.88v21.76A27.62,27.62,0,0,1,155.06,560.42Zm27.3-63c-21.11,7.69-37.24-5.54-45.68-15.38h27.2A18.84,18.84,0,0,1,182.36,497.39Z" transform="translate(-51.45 -83.54)"/><path class="b5a88803-de15-409d-83fb-6820cba953db" d="M496,575.42h-8.63a6.52,6.52,0,0,0-6.28,4.79l-9.38,33-5.07-9.1,6-19.13a6.48,6.48,0,0,0-.94-5.82,6.56,6.56,0,0,0-5.25-2.72H444.6a6.56,6.56,0,0,0-5.25,2.72,6.48,6.48,0,0,0-.94,5.82l6,19.23-4,7.78-8.25-31.7a6.54,6.54,0,0,0-6.38-4.88h-9.94a42.14,42.14,0,0,0-41.93,46.05v14.79l16,22.42,6.24,46.08H531.45a6.53,6.53,0,0,0,6.57-6.57V621.47a42.21,42.21,0,0,0-10.69-32.17A42.68,42.68,0,0,0,496,575.42Zm-38.64,14.16-2,6.38-2-6.38Zm-70.34,55V620.44a29,29,0,0,1,28.79-31.89h4.69l11.25,43.33a6.79,6.79,0,0,0,5.35,4.88,6.58,6.58,0,0,0,6.56-3.09.72.72,0,0,0,.19-.38l11.26-21.76h.28l12.29,22a6.37,6.37,0,0,0,6.47,3.28,6.54,6.54,0,0,0,5.53-4.69l12.38-43.52h3.66a28.85,28.85,0,0,1,21.48,9.57,28.32,28.32,0,0,1,7.59,22.32v71.19H396.09l2.22-22-4.23-17.34Z" transform="translate(-51.45 -83.54)"/><path class="b5a88803-de15-409d-83fb-6820cba953db" d="M454.73,573.55a40.83,40.83,0,0,0,40.8-40.8v-32a31.92,31.92,0,0,0-31.89-31.88H427.06A13.16,13.16,0,0,0,413.93,482v50.74A40.83,40.83,0,0,0,454.73,573.55Zm-16.88-72.22c.28.18.56.47.84.65a47.42,47.42,0,0,0-11.63,8.07V491.1A71.67,71.67,0,0,0,437.85,501.33Zm16.88,59.09a27.7,27.7,0,0,1-27.67-26.55c1.32-4.22,8-20.73,28.23-23.16A45.53,45.53,0,0,0,469.36,513a47.5,47.5,0,0,0,12.95-1.88v21.76A27.62,27.62,0,0,1,454.73,560.42Zm27.3-63c-21.11,7.69-37.24-5.54-45.68-15.38h27.2A18.84,18.84,0,0,1,482,497.39Z" transform="translate(-51.45 -83.54)"/></svg>