<svg id="ac2f8440-6b26-4085-bd3b-ff50edb1bf20" data-name="Layer 1" xmlns="http://www.w3.org/2000/svg" viewBox="0 0 509.1 712.05"><defs><style>.b57278d4-2aa8-4bac-b0e4-bf7de9490f4e{fill:none;stroke:#fee1cc;stroke-miterlimit:10;stroke-width:15px;}.a0e5fa52-63ef-417c-b37b-da2549d2cc74{fill:#fee1cc;}.a1845770-3809-4955-bfdf-8a8f2c9a55ea{fill:#f26722;}</style></defs><path class="b57278d4-2aa8-4bac-b0e4-bf7de9490f4e" d="M391,400c-18.07,59.82-49.34,99.36-84.89,99.36-28.88,0-54.94-26.11-73.39-68" transform="translate(-51.58 -26)"/><path class="b57278d4-2aa8-4bac-b0e4-bf7de9490f4e" d="M207.29,328.65a468.29,468.29,0,0,1-2.45-48.1c0-120.81,45.35-218.75,101.29-218.75s101.3,97.94,101.3,218.75" transform="translate(-51.58 -26)"/><line class="b57278d4-2aa8-4bac-b0e4-bf7de9490f4e" x1="55.39" y1="148.44" x2="463.26" y2="148.44"/><line class="b57278d4-2aa8-4bac-b0e4-bf7de9490f4e" x1="32.39" y1="254.03" x2="474.26" y2="254.03"/><line class="b57278d4-2aa8-4bac-b0e4-bf7de9490f4e" x1="366.56" y1="359.62" x2="459.26" y2="359.62"/><line class="b57278d4-2aa8-4bac-b0e4-bf7de9490f4e" x1="57.39" y1="359.62" x2="154.95" y2="359.62"/><path class="a0e5fa52-63ef-417c-b37b-da2549d2cc74" d="M174.54,492.65l14,4.22,8.56,13h11.42l10.79-3.37L231,509.9l5.68,15.62a255.68,255.68,0,0,0,173.24-12.46l9.8-13.75L436.13,488l-5-9.34,1.9-14.14,6-9.76h11.51L465,456.9l9.85,14.24a254,254,0,0,0,85.8-190.59C560.68,140,446.72,26,306.13,26S51.58,140,51.58,280.55a254.18,254.18,0,0,0,103.2,204.69ZM306.13,495C187.71,495,91.71,399,91.71,280.55s96-214.42,214.42-214.42,214.42,96,214.42,214.42S424.55,495,306.13,495Z" transform="translate(-51.58 -26)"/><path class="a1845770-3809-4955-bfdf-8a8f2c9a55ea" d="M501.53,614.45h-10.7a7.15,7.15,0,0,0-6.4,4.1l-7.9,17.1h0a26.92,26.92,0,0,1-24.3,15.5,26.59,26.59,0,0,1-24.7-16.5.1.1,0,0,0-.1-.1l-7-15.8a7,7,0,0,0-6.4-4.2h-12.1a51.26,51.26,0,0,0-51,56v60.5a6.88,6.88,0,0,0,2.1,5,7,7,0,0,0,5,2h187.5a7,7,0,0,0,7-7v-60.5a51.41,51.41,0,0,0-51-56.1Zm37,55V724H365v-54.5a37.25,37.25,0,0,1,37-41h7.5l5.1,11.6a40.76,40.76,0,0,0,74.6,1.5h0l6.1-13.1h6.3a37.2,37.2,0,0,1,27.6,12.3A37.91,37.91,0,0,1,538.53,669.45Z" transform="translate(-51.58 -26)"/><path class="a1845770-3809-4955-bfdf-8a8f2c9a55ea" d="M424.93,485.45a49.24,49.24,0,0,0-24,37.7h0c-.1,1.2-.2,13.6-.2,37.1a49.5,49.5,0,0,0,99,0v-32.2a49.43,49.43,0,0,0-23.8-42.3A28.12,28.12,0,0,0,479,473a28.45,28.45,0,1,0-56.9.1A29.22,29.22,0,0,0,424.93,485.45Zm11.6,47.6a55.74,55.74,0,0,1-21.9,14.6c0-10.7.1-21.6.2-23.2a37,37,0,0,1,1.6-7.5A86.09,86.09,0,0,0,436.53,533.05Zm13.7,62.8a35.62,35.62,0,0,1-35.5-33.6c8.1-2.2,22.1-7.9,35-22.9a125.8,125.8,0,0,0,36.1,8.2v12.7A35.68,35.68,0,0,1,450.23,595.85Zm35.5-67.7v5.4c-38-3.6-55.8-21.5-61.8-29.4a35.27,35.27,0,0,1,26.3-11.6A35.66,35.66,0,0,1,485.73,528.15Zm-35.2-69.6a14.51,14.51,0,0,1,14.5,14.5,14.3,14.3,0,0,1-2,7.3,49.68,49.68,0,0,0-25-.2,14.79,14.79,0,0,1-1.9-7.1A14.49,14.49,0,0,1,450.53,458.55Z" transform="translate(-51.58 -26)"/><path class="a1845770-3809-4955-bfdf-8a8f2c9a55ea" d="M292.63,319.75H324a7,7,0,0,0,0-14h-31.4a7,7,0,0,0,0,14Z" transform="translate(-51.58 -26)"/><path class="a1845770-3809-4955-bfdf-8a8f2c9a55ea" d="M389.63,368.25a7,7,0,0,0,0-14h-97a7,7,0,0,0,0,14Z" transform="translate(-51.58 -26)"/><path class="a1845770-3809-4955-bfdf-8a8f2c9a55ea" d="M292.63,342.65h97a7,7,0,0,0,0-14h-97a7,7,0,0,0,0,14Z" transform="translate(-51.58 -26)"/><path class="a1845770-3809-4955-bfdf-8a8f2c9a55ea" d="M204.43,454a7.22,7.22,0,0,0,3.2.8,6.89,6.89,0,0,0,4.1-1.3l34.4-24.7h114.4a7,7,0,0,0,7-7v-21.5h11.6l34.4,24.7a6.68,6.68,0,0,0,4.1,1.3,7.22,7.22,0,0,0,3.2-.8,7.05,7.05,0,0,0,3.8-6.2V282.55a7,7,0,0,0-7-7H264.73a7,7,0,0,0-7,7v21.5h-50.1a7,7,0,0,0-7,7v136.7A7.05,7.05,0,0,0,204.43,454Zm67.3-164.4h138.9v116l-25.2-18a6.68,6.68,0,0,0-4.1-1.3h-19.1a19.3,19.3,0,0,0-3.4,0h-87.2l.1-96.7Zm-57.1,28.5h43.1v75.2a7,7,0,0,0,7,7h88.9v14.5H243.83a7.39,7.39,0,0,0-4.1,1.3l-25.2,18,.1-116Z" transform="translate(-51.58 -26)"/><path class="a1845770-3809-4955-bfdf-8a8f2c9a55ea" d="M159,609.85a49.55,49.55,0,0,0,49.5-49.5v-6.3a27.6,27.6,0,0,0,5.7.6,28.45,28.45,0,1,0,.1-56.9,28.2,28.2,0,0,0-13.7,3.5,49.49,49.49,0,0,0-90.8,22h0c-.1,1.2-.2,13.6-.2,37.1A49.4,49.4,0,0,0,159,609.85Zm35.6-81.7v7.9c-12.6-.2-24.2-4-33.2-11a159.36,159.36,0,0,1,31.8-6.8A35.88,35.88,0,0,1,194.63,528.15Zm19.7-16.4a14.5,14.5,0,1,1,0,29,13.88,13.88,0,0,1-5.7-1.2v-11.3a47.85,47.85,0,0,0-2.1-14.2A14.25,14.25,0,0,1,214.33,511.75ZM159,492.65a35.23,35.23,0,0,1,26.9,12.4c-19.8,2.8-43.7,10.1-62.3,22.1v-2.6A35.48,35.48,0,0,1,159,492.65Zm-35.4,51.7a104.43,104.43,0,0,1,23.1-13.7c12.2,12.3,29.1,19.2,47.9,19.4v10.3a35.5,35.5,0,0,1-71,0C123.53,555.65,123.53,550,123.63,544.35Z" transform="translate(-51.58 -26)"/><path class="a1845770-3809-4955-bfdf-8a8f2c9a55ea" d="M210.33,614.45h-10.7a6.67,6.67,0,0,0-3.9,1.2l-35.5,24L127,615.75a6.68,6.68,0,0,0-4.1-1.3h-12.2a51.26,51.26,0,0,0-51,56V731a6.88,6.88,0,0,0,2.1,5,7,7,0,0,0,4.9,2h187.5a7,7,0,0,0,7-7v-60.5a51.26,51.26,0,0,0-50.9-56Zm-13.9,17.7-18.7,25.2-5.7-8.7Zm-48,16.3-5.8,8.9-20.8-28Zm98.9,21V724H73.83v-54.5a37.14,37.14,0,0,1,9.3-28.7,37.78,37.78,0,0,1,21-11.7l33.2,44.7a7.1,7.1,0,0,0,5.8,2.8,7,7,0,0,0,5.6-3.2l11.3-17.3,11.3,17.3a7.28,7.28,0,0,0,5.6,3.2,6.85,6.85,0,0,0,5.8-2.8L216,629a37.71,37.71,0,0,1,21.8,11.8A36.54,36.54,0,0,1,247.33,669.45Z" transform="translate(-51.58 -26)"/></svg>