<svg id="f3925b0e-fde3-4954-a40c-980ad0ab6f00" data-name="Layer 1" xmlns="http://www.w3.org/2000/svg" viewBox="0 0 707.59 591.95"><defs><style>.e8260b93-d990-4b2c-8af9-fec11fd37994{fill:none;stroke:#fee1cc;stroke-miterlimit:10;stroke-width:15px;}.bb63d3ec-54f1-42f9-97a3-a4f1a50f6672{fill:#fee1cc;}.a2e2da44-3651-4afa-bf58-fd62c39abcc6{fill:#f26722;}</style></defs><path class="e8260b93-d990-4b2c-8af9-fec11fd37994" d="M434.12,272.12C439.2,161.56,482.39,75.2,534.92,75.2c56,0,101.3,97.94,101.3,218.75s-45.35,218.76-101.3,218.76" transform="translate(-81.88 -39.4)"/><line class="e8260b93-d990-4b2c-8af9-fec11fd37994" x1="253.88" y1="148.44" x2="661.75" y2="148.44"/><line class="e8260b93-d990-4b2c-8af9-fec11fd37994" x1="397.68" y1="254.03" x2="672.75" y2="254.03"/><line class="e8260b93-d990-4b2c-8af9-fec11fd37994" x1="456.81" y1="359.62" x2="657.75" y2="359.62"/><path class="bb63d3ec-54f1-42f9-97a3-a4f1a50f6672" d="M534.92,548.51c140.59,0,254.55-114,254.55-254.56S675.51,39.4,534.92,39.4c-131.8,0-240.2,100.17-253.24,228.53l39.59,7.78q.75-9,2.25-17.81C340.67,156.64,428.79,79.53,534.92,79.53c118.42,0,214.42,96,214.42,214.42s-96,214.43-214.42,214.43Z" transform="translate(-81.88 -39.4)"/><path class="a2e2da44-3651-4afa-bf58-fd62c39abcc6" d="M506.68,319.85h-19.3v-18.7a37,37,0,0,0-37-37H118.88a37,37,0,0,0-37,37v236.9a37,37,0,0,0,37,37h18.7v19.3a37,37,0,0,0,37,37h332.1a37,37,0,0,0,37-37V356.85A37,37,0,0,0,506.68,319.85ZM95.88,538.05V301.15a23,23,0,0,1,23-23h331.6a23,23,0,0,1,23,23v236.9a23,23,0,0,1-23,23H118.88A23,23,0,0,1,95.88,538.05Zm433.8,56.3a23,23,0,0,1-23,23H174.58a23,23,0,0,1-23-23v-19.3h298.9a37,37,0,0,0,37-37V333.85h19.3a23,23,0,0,1,23,23v237.5Z" transform="translate(-81.88 -39.4)"/><path class="a2e2da44-3651-4afa-bf58-fd62c39abcc6" d="M113.94,519.25a5.92,5.92,0,0,0,5.93,5.92H256a5.88,5.88,0,0,0,5.92-5.92V458.51A38,38,0,0,0,224.09,417H216.3a5.85,5.85,0,0,0-5.33,3.47l-5.75,12.44a18.59,18.59,0,0,1-34-.68L166.14,420a6,6,0,0,0-5.92-3.64l-8.55.68a38,38,0,0,0-37.56,41.53v60.66Zm18.45-81.81a26.15,26.15,0,0,1,19.37-8.63h.51l4.48-.33,3.38,8.2a30.41,30.41,0,0,0,55.67,1.19l4.14-9h4a26,26,0,0,1,19.37,8.63,26.3,26.3,0,0,1,6.6,20.13v55.75H125.62V457.66A27.19,27.19,0,0,1,132.39,437.44Z" transform="translate(-81.88 -39.4)"/><path class="a2e2da44-3651-4afa-bf58-fd62c39abcc6" d="M186.87,415.28a36.82,36.82,0,0,0,36.79-36.8V355.13a36.6,36.6,0,0,0-17-31,21.52,21.52,0,1,0-39.17-.34,36.52,36.52,0,0,0-17.17,27.67c-.08.76-.08,5.83-.17,10.74v16.24A36.71,36.71,0,0,0,186.87,415.28Zm-19.29-62.85a30.83,30.83,0,0,1-5.67,4.73c0-2.28,0-4.06.08-4.65a26.46,26.46,0,0,1,.85-4.48A62.24,62.24,0,0,0,167.58,352.43Zm19.29,51a25,25,0,0,1-25-25v-7.87a43.87,43.87,0,0,0,15.48-11.42,85.2,85.2,0,0,0,34.43,10.58v8.63A25,25,0,0,1,186.87,403.44Zm24.95-45.52c-24.45-2.87-37.39-14.38-42.55-20.47a24.95,24.95,0,0,1,42.55,17.68v2.79Zm-34.34-42.8a9.64,9.64,0,1,1,18.27,4.31,39.11,39.11,0,0,0-8.88-1.1,39.94,39.94,0,0,0-8.46.93A9.21,9.21,0,0,1,177.48,315.12Z" transform="translate(-81.88 -39.4)"/><path class="a2e2da44-3651-4afa-bf58-fd62c39abcc6" d="M367.05,400.36a42,42,0,0,0,42-42V343.94a42,42,0,1,0-83.92,0V358.4A42,42,0,0,0,367.05,400.36Zm-30.2-56.42a30.12,30.12,0,1,1,60.23,0V358.4A30.18,30.18,0,0,1,367,388.52h0a30.19,30.19,0,0,1-30.12-30.12Z" transform="translate(-81.88 -39.4)"/><path class="a2e2da44-3651-4afa-bf58-fd62c39abcc6" d="M282.46,522.85h69.28l-.93,9.9a6.06,6.06,0,0,0,2.62,5.5L365.28,546a5.72,5.72,0,0,0,3.21,1,5.84,5.84,0,0,0,3.3-1l11.59-7.78a6.06,6.06,0,0,0,2.62-5.5l-.93-9.9h66.49a5.88,5.88,0,0,0,5.92-5.92V450.78A43.79,43.79,0,0,0,413.75,407H403.34a6,6,0,0,0-5.58,3.9L379.4,462.12l-1.86-19.63a6,6,0,0,0,3.81-3.72l7.19-21.15a5.85,5.85,0,0,0-5.58-7.78l-30-.09h0a5.92,5.92,0,0,0-4.82,2.46,5.69,5.69,0,0,0-.76,5.32l7.19,21.24a5.89,5.89,0,0,0,4.65,4l-1.86,19.71-18.69-51.51A5.87,5.87,0,0,0,333,407H320.27a43.79,43.79,0,0,0-43.73,43.74v66.15A5.88,5.88,0,0,0,282.46,522.85Zm86.11,11.09L363,530.21l5.5-58.7,5.5,58.7Zm39-115.05h6.18a31.91,31.91,0,0,1,31.89,31.89V511H384l-2-21.15Zm-32.82,2.62-3.21,9.31h-7.2l-3.21-9.39Zm-86.37,29.27a31.91,31.91,0,0,1,31.89-31.89h8.63l26,71L352.92,511H288.38V450.78Z" transform="translate(-81.88 -39.4)"/></svg>