<svg id="f6cd9d23-360d-447c-bc90-7b2dd0d851d3" data-name="Layer 1" xmlns="http://www.w3.org/2000/svg" viewBox="0 0 509.1 718.67"><defs><style>.a08e26e1-3825-4788-ac0b-f36821f4e64f,.faa1cdbb-caae-478a-9be3-6b41465b3193{fill:none;}.faa1cdbb-caae-478a-9be3-6b41465b3193{stroke:#fee1cc;stroke-miterlimit:10;stroke-width:15px;}.a1701b58-65e8-4af0-b97d-cd344963590f{fill:#fee1cc;}.b39ec1cd-92f6-4ef7-adb1-646b6a7d82d6{fill:#f26722;}</style></defs><path class="faa1cdbb-caae-478a-9be3-6b41465b3193" d="M365.44,463c-14.35,16.84-30.8,26.4-48.28,26.4-41.74,0-77.59-54.53-93.1-132.4" transform="translate(-62.61 -16.08)"/><path class="faa1cdbb-caae-478a-9be3-6b41465b3193" d="M216.37,248.68c5.09-110.51,48.28-196.8,100.79-196.8,55.94,0,101.3,97.93,101.3,218.75a443.94,443.94,0,0,1-8.41,87.4" transform="translate(-62.61 -16.08)"/><line class="faa1cdbb-caae-478a-9be3-6b41465b3193" x1="55.39" y1="148.44" x2="463.26" y2="148.44"/><line class="faa1cdbb-caae-478a-9be3-6b41465b3193" x1="315.57" y1="254.03" x2="474.26" y2="254.03"/><line class="faa1cdbb-caae-478a-9be3-6b41465b3193" x1="32.39" y1="254.03" x2="146.79" y2="254.03"/><line class="faa1cdbb-caae-478a-9be3-6b41465b3193" x1="275.95" y1="359.62" x2="325.82" y2="359.62"/><line class="faa1cdbb-caae-478a-9be3-6b41465b3193" x1="57.39" y1="359.62" x2="186.53" y2="359.62"/><path class="a1701b58-65e8-4af0-b97d-cd344963590f" d="M371.13,478.2A214.45,214.45,0,0,1,102.74,270.63c0-118.42,96-214.42,214.42-214.42s214.42,96,214.42,214.42a213.52,213.52,0,0,1-23.5,97.69l27.32,33.41a253.39,253.39,0,0,0,36.31-131.1c0-140.59-114-254.55-254.55-254.55S62.61,130,62.61,270.63a254,254,0,0,0,93.61,197.23c11.13,9.09,19.11-21.23,49.92-10.51,38.33,13.34,13.77,49.14,28.85,54.28a255.88,255.88,0,0,0,164.06.09Z" transform="translate(-62.61 -16.08)"/><path class="b39ec1cd-92f6-4ef7-adb1-646b6a7d82d6" d="M191.93,561.34a49.66,49.66,0,0,0,49.6-49.6v-17.1a49.6,49.6,0,0,0-99.2,0v17.1A49.59,49.59,0,0,0,191.93,561.34Zm-35.7-66.7a35.6,35.6,0,0,1,71.2,0v17.1a35.68,35.68,0,0,1-35.6,35.6h0a35.68,35.68,0,0,1-35.6-35.6Z" transform="translate(-62.61 -16.08)"/><path class="a08e26e1-3825-4788-ac0b-f36821f4e64f" d="M298.83,691.89H415.42l43.6-96H304.42l-6.65,14.63a51.87,51.87,0,0,1,1.06,10.42Z" transform="translate(-62.61 -16.08)"/><path class="a08e26e1-3825-4788-ac0b-f36821f4e64f" d="M136.63,583.24a37.73,37.73,0,0,0-37.7,37.7v71.2h76.3l2.3-25-30.7-83.9Z" transform="translate(-62.61 -16.08)"/><path class="a08e26e1-3825-4788-ac0b-f36821f4e64f" d="M282.94,609.17a37.75,37.75,0,0,0-35.81-25.93h-7.3l-30.2,83.9,2.3,25h33.43l0-.15Z" transform="translate(-62.61 -16.08)"/><polygon class="a08e26e1-3825-4788-ac0b-f36821f4e64f" points="124.52 698.77 131.12 703.17 137.52 698.77 131.02 629.37 124.52 698.77"/><polygon class="a08e26e1-3825-4788-ac0b-f36821f4e64f" points="198.21 675.82 222.22 675.82 222.22 622.95 198.21 675.82"/><polygon class="a08e26e1-3825-4788-ac0b-f36821f4e64f" points="126.12 581.27 134.62 581.27 138.42 570.27 122.32 570.17 126.12 581.27"/><path class="b39ec1cd-92f6-4ef7-adb1-646b6a7d82d6" d="M249.82,705.89l-4.46-13.75H211.93l-2.3-25,30.2-83.9h7.3a37.75,37.75,0,0,1,35.81,25.93l7.47-16.45a51.71,51.71,0,0,0-43.28-23.48h-12.3a7.05,7.05,0,0,0-6.6,4.6l-21.7,60.5-2.2-23.2a7,7,0,0,0,4.5-4.4l8.5-25a6.92,6.92,0,0,0-6.6-9.2l-35.5-.1a7,7,0,0,0-5.7,2.9,6.76,6.76,0,0,0-.9,6.3l8.5,25.1a7,7,0,0,0,5.5,4.7l-2.2,23.3-22.1-60.9a6.92,6.92,0,0,0-6.6-4.6h-15.1a51.77,51.77,0,0,0-51.7,51.7v78.2a7,7,0,0,0,7,7h81.9l-1.1,11.7a7.15,7.15,0,0,0,3.1,6.5l14,9.2a6.82,6.82,0,0,0,3.8,1.2,6.89,6.89,0,0,0,3.9-1.2l13.7-9.2a7.15,7.15,0,0,0,3.1-6.5l-1.1-11.7h78.6a7.06,7.06,0,0,0,1.85-.25H249.82Zm-74.59-13.75H98.93v-71.2a37.73,37.73,0,0,1,37.7-37.7h10.2l30.7,83.9Zm18.5,27.1-6.6-4.4,6.5-69.4,6.5,69.4Zm3.5-121.9h-8.5l-3.8-11.1,16.1.1Z" transform="translate(-62.61 -16.08)"/><path class="b39ec1cd-92f6-4ef7-adb1-646b6a7d82d6" d="M249.82,705.89h170a7.15,7.15,0,0,0,6.4-4.1l50-110a7,7,0,0,0-.5-6.7,6.71,6.71,0,0,0-5.8-3.2H337.82l-14.6.1h-23.4a7.15,7.15,0,0,0-6.4,4.1L245.32,692Zm165.6-14H260.82l43.6-96H459Z" transform="translate(-62.61 -16.08)"/><path class="b39ec1cd-92f6-4ef7-adb1-646b6a7d82d6" d="M243,381.48v25.6a7,7,0,0,0,3.6,6.1,6.82,6.82,0,0,0,7.1-.2l29.5-18.5c3,.3,6.1.4,9.2.4a96.72,96.72,0,1,0-49.4-13.4Zm39.4-1.1a7.44,7.44,0,0,0-4.6,1l-20.8,13v-17a7,7,0,0,0-3.7-6.2,90.35,90.35,0,0,1-8.4-5.2l-.3-22.4v-.7a18.72,18.72,0,0,1,18.5-20.8h.6l1.2-.1,8,29.8a7,7,0,0,0,5.5,5.1,6.81,6.81,0,0,0,6.9-2.8l.6-.9,6.3-12.4,7.2,12.5a7.11,7.11,0,0,0,7,3.5,7.22,7.22,0,0,0,5.9-5.1l8.2-30h1a18.2,18.2,0,0,1,14,6.1,18.74,18.74,0,0,1,4.9,14.4v.7l.3,22.9a82.8,82.8,0,0,1-47.9,15.3C289.09,381,285.69,380.78,282.39,380.38Zm10-165.4a82.92,82.92,0,0,1,61.8,138.3l-.1-10.4a32.88,32.88,0,0,0-33-35.4l-6.3.1a6.94,6.94,0,0,0-6.7,5.2l-5.1,18.8-2.1-3.7a7.05,7.05,0,0,0-6.1-3.5l-5.9.1a7.05,7.05,0,0,0-6.2,3.8l-1.1,2.1-4.8-17.8a7,7,0,0,0-7.4-5.2l-6.8.6a32.91,32.91,0,0,0-32,36.1l.1,9.3A82.92,82.92,0,0,1,292.39,215Z" transform="translate(-62.61 -16.08)"/><path class="b39ec1cd-92f6-4ef7-adb1-646b6a7d82d6" d="M268.49,301.78a31.55,31.55,0,0,0,22.3,9.1h.3a31.93,31.93,0,0,0,31.5-32.2l-.2-23.2a25.44,25.44,0,0,0-25.4-25.1h-.3l-26.5.3a11.78,11.78,0,0,0-11.7,11.8l.4,36.8A32.39,32.39,0,0,0,268.49,301.78Zm35-10.2a17.9,17.9,0,0,1-30.7-12.3l-.1-9.3c1.3-2.2,4.2-6.3,9.3-8a36.18,36.18,0,0,0,18.3,5.2,31.88,31.88,0,0,0,8-1l.1,12.7A16.36,16.36,0,0,1,303.49,291.58Zm-6.6-47.2h.1a11.3,11.3,0,0,1,10.6,7.4c-10.9,3.7-19.7-1.8-25.2-7.3Z" transform="translate(-62.61 -16.08)"/><path class="b39ec1cd-92f6-4ef7-adb1-646b6a7d82d6" d="M406.12,519v25.6a7,7,0,0,0,3.6,6.1,6.82,6.82,0,0,0,7.1-.2l29.5-18.5c3,.3,6.1.4,9.2.4a96.72,96.72,0,1,0-49.4-13.4Zm39.4-1.1a7.44,7.44,0,0,0-4.6,1l-20.8,13v-17a7,7,0,0,0-3.7-6.2,90.35,90.35,0,0,1-8.4-5.2l-.3-22.4v-.7a18.72,18.72,0,0,1,18.5-20.8h.6l1.2-.1,8,29.8a7,7,0,0,0,5.5,5.1,6.81,6.81,0,0,0,6.9-2.8l.6-.9,6.3-12.4,7.2,12.5a7.11,7.11,0,0,0,7,3.5,7.22,7.22,0,0,0,5.9-5.1l8.2-30h1a18.2,18.2,0,0,1,14,6.1,18.74,18.74,0,0,1,4.9,14.4v.7l.3,22.9a82.8,82.8,0,0,1-47.9,15.3C452.22,518.54,448.82,518.34,445.52,517.94Zm10-165.4a82.92,82.92,0,0,1,61.8,138.3l-.1-10.4a32.88,32.88,0,0,0-33-35.4l-6.3.1a6.94,6.94,0,0,0-6.7,5.2l-5.1,18.8-2.1-3.7a7.05,7.05,0,0,0-6.1-3.5l-5.9.1a7.05,7.05,0,0,0-6.2,3.8l-1.1,2.1-4.8-17.8a7,7,0,0,0-7.4-5.2l-6.8.6a32.91,32.91,0,0,0-32,36.1l.1,9.3a82.92,82.92,0,0,1,61.7-138.4Z" transform="translate(-62.61 -16.08)"/><path class="b39ec1cd-92f6-4ef7-adb1-646b6a7d82d6" d="M431.62,439.34a31.55,31.55,0,0,0,22.3,9.1h.3a31.93,31.93,0,0,0,31.5-32.2l-.2-23.2a25.44,25.44,0,0,0-25.4-25.1h-.3l-26.5.3a11.78,11.78,0,0,0-11.7,11.8l.4,36.8A32.39,32.39,0,0,0,431.62,439.34Zm35-10.2a17.9,17.9,0,0,1-30.7-12.3l-.1-9.3c1.3-2.2,4.2-6.3,9.3-8a36.18,36.18,0,0,0,18.3,5.2,31.88,31.88,0,0,0,8-1l.1,12.7A16.36,16.36,0,0,1,466.62,429.14Zm-6.6-47.2h.1a11.3,11.3,0,0,1,10.6,7.4c-10.9,3.7-19.7-1.8-25.2-7.3Z" transform="translate(-62.61 -16.08)"/></svg>