<svg id="ada2d3d3-e5b5-46b0-8d96-e1077293e8cd" data-name="Layer 1" xmlns="http://www.w3.org/2000/svg" viewBox="0 0 737.24 509.1"><defs><style>.e90df1b5-ccbf-4d60-9fb4-1c77cf45e354{fill:none;stroke:#fee1cc;stroke-miterlimit:10;stroke-width:15px;}.fb00731b-a4df-4815-babe-5a02db5ead01{fill:#fee1cc;}.bfdee9ba-bdbd-4fc1-ba43-e06ede66ab64{fill:#f26722;}.ad5d6bd3-91bc-43ec-91e8-77f23a51cc83{fill:#f16823;}</style></defs><ellipse class="e90df1b5-ccbf-4d60-9fb4-1c77cf45e354" cx="254.55" cy="254.55" rx="101.3" ry="218.75"/><line class="e90df1b5-ccbf-4d60-9fb4-1c77cf45e354" x1="55.39" y1="148.44" x2="450.4" y2="148.44"/><line class="e90df1b5-ccbf-4d60-9fb4-1c77cf45e354" x1="32.39" y1="254.03" x2="439.28" y2="254.03"/><line class="e90df1b5-ccbf-4d60-9fb4-1c77cf45e354" x1="57.39" y1="359.62" x2="374.42" y2="359.62"/><path class="fb00731b-a4df-4815-babe-5a02db5ead01" d="M588.5,340.85a255.64,255.64,0,0,0,1.66-29.18q0-9.85-.74-19.54l-16.29,19.54-23.33,10a214.87,214.87,0,0,1-6,41.44l14-5ZM498.66,450.92a213.92,213.92,0,0,1-163,75.17c-118.43,0-214.43-96-214.43-214.42s96-214.42,214.43-214.42A214.39,214.39,0,0,1,524.07,209.32l20.24-3.76,25.84,7C531.51,121.23,441,57.12,335.61,57.12c-140.59,0-254.56,114-254.56,254.55S195,566.23,335.61,566.23A254.35,254.35,0,0,0,548.68,451Z" transform="translate(-81.05 -57.12)"/><path class="bfdee9ba-bdbd-4fc1-ba43-e06ede66ab64" d="M591.26,456.58h170a7.15,7.15,0,0,0,6.4-4.1l50-110a7,7,0,0,0-.5-6.7,6.71,6.71,0,0,0-5.8-3.2H679.26l-14.6.1h-23.4a7.15,7.15,0,0,0-6.4,4.1l-48.1,105.9Zm165.6-14H602.26l43.6-96h154.6Z" transform="translate(-81.05 -57.12)"/><path class="bfdee9ba-bdbd-4fc1-ba43-e06ede66ab64" d="M546.23,328.08a49.55,49.55,0,0,0,49.5-49.5v-6.3a27.6,27.6,0,0,0,5.7.6,28.45,28.45,0,0,0,.1-56.9,28.2,28.2,0,0,0-13.7,3.5,49.49,49.49,0,0,0-90.8,22h0c-.1,1.2-.2,13.6-.2,37.1A49.4,49.4,0,0,0,546.23,328.08Zm35.6-81.7v7.9c-12.6-.2-24.2-4-33.2-11a159.36,159.36,0,0,1,31.8-6.8A35.88,35.88,0,0,1,581.83,246.38Zm19.7-16.4a14.5,14.5,0,0,1,0,29,13.88,13.88,0,0,1-5.7-1.2v-11.3a47.85,47.85,0,0,0-2.1-14.2A14.25,14.25,0,0,1,601.53,230Zm-55.3-19.1a35.23,35.23,0,0,1,26.9,12.4c-19.8,2.8-43.7,10.1-62.3,22.1v-2.6A35.48,35.48,0,0,1,546.23,210.88Zm-35.4,51.7a104.43,104.43,0,0,1,23.1-13.7c12.2,12.3,29.1,19.2,47.9,19.4v10.3a35.5,35.5,0,1,1-71,0C510.73,273.88,510.73,268.18,510.83,262.58Z" transform="translate(-81.05 -57.12)"/><path class="bfdee9ba-bdbd-4fc1-ba43-e06ede66ab64" d="M635.43,350a51,51,0,0,0-37.9-16.9h-10.7a6.67,6.67,0,0,0-3.9,1.2l-35.5,24-33.2-23.9a6.68,6.68,0,0,0-4.1-1.3h-12.2a51.26,51.26,0,0,0-51,56v60.5a6.88,6.88,0,0,0,2.1,5,7,7,0,0,0,4.9,2H591.26l2.47-14H461v-54.5a37.14,37.14,0,0,1,9.3-28.7,37.78,37.78,0,0,1,21-11.7l33.2,44.7a7.1,7.1,0,0,0,5.8,2.8,7,7,0,0,0,5.6-3.2l11.3-17.3,11.3,17.3a7.28,7.28,0,0,0,5.6,3.2,6.85,6.85,0,0,0,5.8-2.8l33.3-44.8a37.71,37.71,0,0,1,21.8,11.8Zm-51.8.8L564.93,376l-5.7-8.7Zm-48,16.3-5.8,8.9L509,348Zm98.9,21.7" transform="translate(-81.05 -57.12)"/><path class="bfdee9ba-bdbd-4fc1-ba43-e06ede66ab64" d="M733.9,247.41a7.09,7.09,0,0,0,5.1,2.3,6.92,6.92,0,0,0,4.7-1.8l31.9-29.2a7,7,0,0,0-9.5-10.3l-26.8,24.5-12.1-13.1a7,7,0,1,0-10.3,9.5Z" transform="translate(-81.05 -57.12)"/><path class="ad5d6bd3-91bc-43ec-91e8-77f23a51cc83" d="M745.55,180.43a47.7,47.7,0,1,1-47.69,47.7,47.76,47.76,0,0,1,47.69-47.7m0-13a60.7,60.7,0,1,0,60.7,60.7,60.7,60.7,0,0,0-60.7-60.7Z" transform="translate(-81.05 -57.12)"/></svg>