<svg id="a9f76b55-d6e2-42a2-8289-3cca1899506e" data-name="Layer 1" xmlns="http://www.w3.org/2000/svg" viewBox="0 0 509.1 715.58"><defs><style>.b8674bf5-61fb-4f22-8aff-30111f9a6d02{fill:none;stroke:#fee1cc;stroke-miterlimit:10;stroke-width:15px;}.a02cce7b-d810-42be-b0f1-3085eeeb6738{fill:#fee1cc;}.f2160a85-18ab-41d0-a7be-2940932b3c55{fill:#f26722;}.ff073ffa-ff6f-4e80-b84d-1f61b428cf20{fill:#f16823;}</style></defs><path class="b8674bf5-61fb-4f22-8aff-30111f9a6d02" d="M204.08,300.4q-.51-11-.52-22.37c0-120.81,45.35-218.75,101.3-218.75S406.15,157.22,406.15,278a462.19,462.19,0,0,1-3.75,59.23" transform="translate(-50.3 -23.48)"/><line class="b8674bf5-61fb-4f22-8aff-30111f9a6d02" x1="55.39" y1="148.44" x2="463.26" y2="148.44"/><polyline class="b8674bf5-61fb-4f22-8aff-30111f9a6d02" points="32.39 254.03 184.39 254.03 212.1 254.03 240.15 254.03 474.26 254.03"/><line class="b8674bf5-61fb-4f22-8aff-30111f9a6d02" x1="368.25" y1="359.62" x2="459.26" y2="359.62"/><path class="a02cce7b-d810-42be-b0f1-3085eeeb6738" d="M109.56,366.67A213.68,213.68,0,0,1,90.44,278c0-118.42,96-214.42,214.42-214.42s214.42,96,214.42,214.42A214.32,214.32,0,0,1,413.87,462.71l3.77,43.59A254.56,254.56,0,0,0,559.41,278c0-140.59-114-254.55-254.55-254.55S50.3,137.44,50.3,278A253.52,253.52,0,0,0,108.43,440Z" transform="translate(-50.3 -23.48)"/><path class="f2160a85-18ab-41d0-a7be-2940932b3c55" d="M258.76,417.06h63.4a7,7,0,0,0,0-14h-63.4a7,7,0,0,0,0,14Z" transform="translate(-50.3 -23.48)"/><path class="f2160a85-18ab-41d0-a7be-2940932b3c55" d="M258.76,447.06H351a7,7,0,0,0,0-14h-92.2a7,7,0,0,0,0,14Z" transform="translate(-50.3 -23.48)"/><path class="f2160a85-18ab-41d0-a7be-2940932b3c55" d="M258.76,517.06h63.4a7,7,0,1,0,0-14h-63.4a7,7,0,0,0,0,14Z" transform="translate(-50.3 -23.48)"/><path class="f2160a85-18ab-41d0-a7be-2940932b3c55" d="M417.58,646.84a43.29,43.29,0,0,0,43.25-43.25v-5.51a24.09,24.09,0,0,0,5,.53,24.86,24.86,0,1,0,.09-49.72,24.64,24.64,0,0,0-12,3.06,43.24,43.24,0,0,0-79.33,19.22h0c-.09,1.05-.18,11.88-.18,32.42A43.17,43.17,0,0,0,417.58,646.84Zm31.11-71.39v6.91c-11-.18-21.14-3.5-29-9.62a140.27,140.27,0,0,1,27.79-5.94A31.6,31.6,0,0,1,448.69,575.45Zm17.21-14.33a12.67,12.67,0,0,1,0,25.34,12.09,12.09,0,0,1-5-1.05v-9.87a42,42,0,0,0-1.83-12.41A12.45,12.45,0,0,1,465.9,561.12Zm-48.32-16.68a30.79,30.79,0,0,1,23.51,10.83c-17.3,2.45-38.18,8.82-54.44,19.31v-2.27A31,31,0,0,1,417.58,544.44Zm-30.93,45.17a91.26,91.26,0,0,1,20.19-12c10.66,10.74,25.42,16.77,41.85,17v9a31,31,0,0,1-62,0C386.57,599.48,386.57,594.5,386.65,589.61Z" transform="translate(-50.3 -23.48)"/><path class="f2160a85-18ab-41d0-a7be-2940932b3c55" d="M494.73,699.23l11.45-12.33a44.7,44.7,0,0,0-43.77-36h-9.35a5.8,5.8,0,0,0-3.41,1l-31,21-29-20.88a5.83,5.83,0,0,0-3.59-1.13H375.38a44.75,44.75,0,0,0-44.45,39.71l8.1,8.66V701q2,2,4.11,3.9v-6a32.46,32.46,0,0,1,8.13-25.08,33,33,0,0,1,18.35-10.22l29,39.06a6.21,6.21,0,0,0,5.07,2.44,6.08,6.08,0,0,0,4.9-2.79l9.87-15.12,9.87,15.12a6.34,6.34,0,0,0,4.89,2.79,6,6,0,0,0,5.07-2.44l29.1-39.15a33,33,0,0,1,19,10.31,31.92,31.92,0,0,1,8.3,25.08Zm-91.47-10.89-18.18-24.47,23.24,16.69Zm30.66,0-5-7.6,21.32-14.42Z" transform="translate(-50.3 -23.48)"/><path class="f2160a85-18ab-41d0-a7be-2940932b3c55" d="M206.71,414a4.51,4.51,0,0,0-6.33,0l-4.79,4.8-4.8-4.8a4.48,4.48,0,1,0-6.33,6.33l4.79,4.8-4.79,4.79a4.51,4.51,0,0,0,0,6.33,4.38,4.38,0,0,0,3.13,1.28,4.56,4.56,0,0,0,3.14-1.28l4.79-4.79,4.8,4.79a4.55,4.55,0,0,0,6.33,0,4.51,4.51,0,0,0,0-6.33l-4.8-4.79,4.8-4.8A4.45,4.45,0,0,0,206.71,414Z" transform="translate(-50.3 -23.48)"/><path class="ff073ffa-ff6f-4e80-b84d-1f61b428cf20" d="M195.88,399.13a25.81,25.81,0,1,1-25.81,25.81,25.84,25.84,0,0,1,25.81-25.81m0-13a38.81,38.81,0,1,0,38.82,38.81,38.81,38.81,0,0,0-38.82-38.81Z" transform="translate(-50.3 -23.48)"/><path class="f2160a85-18ab-41d0-a7be-2940932b3c55" d="M206.71,515.06a4.51,4.51,0,0,0-6.33,0l-4.79,4.79-4.8-4.79a4.48,4.48,0,1,0-6.33,6.33l4.79,4.8L184.46,531a4.51,4.51,0,0,0,0,6.33,4.38,4.38,0,0,0,3.13,1.28,4.6,4.6,0,0,0,3.14-1.28l4.79-4.79,4.8,4.79a4.4,4.4,0,0,0,3.2,1.28,4.45,4.45,0,0,0,3.13-1.28,4.51,4.51,0,0,0,0-6.33l-4.8-4.79,4.8-4.8A4.45,4.45,0,0,0,206.71,515.06Z" transform="translate(-50.3 -23.48)"/><path class="ff073ffa-ff6f-4e80-b84d-1f61b428cf20" d="M195.88,500.18A25.81,25.81,0,1,1,170.07,526a25.84,25.84,0,0,1,25.81-25.81m0-13A38.81,38.81,0,1,0,234.7,526a38.81,38.81,0,0,0-38.82-38.81Z" transform="translate(-50.3 -23.48)"/><path class="f2160a85-18ab-41d0-a7be-2940932b3c55" d="M206.71,612.73a4.51,4.51,0,0,0-6.33,0l-4.79,4.8-4.8-4.8a4.48,4.48,0,0,0-6.33,6.33l4.79,4.8-4.79,4.79a4.51,4.51,0,0,0,0,6.33,4.38,4.38,0,0,0,3.13,1.28,4.56,4.56,0,0,0,3.14-1.28l4.79-4.79,4.8,4.79a4.55,4.55,0,0,0,6.33,0,4.51,4.51,0,0,0,0-6.33l-4.8-4.79,4.8-4.8A4.45,4.45,0,0,0,206.71,612.73Z" transform="translate(-50.3 -23.48)"/><path class="ff073ffa-ff6f-4e80-b84d-1f61b428cf20" d="M195.88,597.85a25.81,25.81,0,1,1-25.81,25.81,25.84,25.84,0,0,1,25.81-25.81m0-13a38.81,38.81,0,1,0,38.82,38.81,38.82,38.82,0,0,0-38.82-38.81Z" transform="translate(-50.3 -23.48)"/><path class="f2160a85-18ab-41d0-a7be-2940932b3c55" d="M422.86,502.46V363.26a40.05,40.05,0,0,0-40-40h-45.4v-6.9a27,27,0,0,0-27-27h-10.7v-1a37.3,37.3,0,0,0-74.6,0v1h-10.7a27,27,0,0,0-27,27v6.9H142a40.05,40.05,0,0,0-40,40v295.8a40.05,40.05,0,0,0,40,40h187.9a118.36,118.36,0,1,0,93-196.6Zm-183.7-214.1a23.3,23.3,0,0,1,46.6,0v1h-46.5l-.1-1Zm-37.7,27.9a13,13,0,0,1,13-13h96a13,13,0,0,1,13,13v43.1h-122ZM142,685.06a26.08,26.08,0,0,1-26-26V363.26a26.08,26.08,0,0,1,26-26h45.5v29.2a7,7,0,0,0,7,7h136a7,7,0,0,0,7-7v-29.2h45.4a26,26,0,0,1,26,26v139.5a118.54,118.54,0,0,0-69.8,30.3h-80.4a7,7,0,0,0,0,14h67.2a118.86,118.86,0,0,0-24.5,56h-42.8a7,7,0,1,0,0,14h41.5c0,1.2-.1,2.4-.1,3.7q0,6.3.6,12.3h-42.1a7,7,0,1,0,0,14h42.2a5.38,5.38,0,0,0,2.2-.4,116.51,116.51,0,0,0,16.2,38.3H142Zm209.4,15.4a104.38,104.38,0,1,1,143.4-8.5l-12,11a104.31,104.31,0,0,1-119.4,6.3Z" transform="translate(-50.3 -23.48)"/></svg>