<svg id="aefb4f35-f560-4da4-bce0-c0e56456869f" data-name="Layer 1" xmlns="http://www.w3.org/2000/svg" viewBox="0 0 509.1 734.3"><defs><style>.a372424c-3751-4fb7-aa38-d2aeb4dedf82{fill:none;stroke:#fee1cc;stroke-miterlimit:10;stroke-width:15px;}.bb08195d-b57c-46c4-9326-4b5295871854{fill:#fee1cc;}.ad268efd-0ae6-430e-9826-5ccdddbd5e1f{fill:#f26722;}.a3c77a2e-db8d-4fcb-a675-5bf672a157bb{fill:#f16823;}</style></defs><path class="a372424c-3751-4fb7-aa38-d2aeb4dedf82" d="M393.65,418.52c-18,60.5-49.47,100.57-85.26,100.57-30.94,0-58.64-30-77.22-77.16" transform="translate(-53.84 -45.79)"/><path class="a372424c-3751-4fb7-aa38-d2aeb4dedf82" d="M207.8,326.33c-.46-8.52-.7-17.2-.7-26,0-120.81,45.35-218.75,101.29-218.75,43.57,0,80.71,59.39,95,142.71" transform="translate(-53.84 -45.79)"/><line class="a372424c-3751-4fb7-aa38-d2aeb4dedf82" x1="55.39" y1="148.44" x2="463.26" y2="148.44"/><line class="a372424c-3751-4fb7-aa38-d2aeb4dedf82" x1="414.76" y1="254.03" x2="474.26" y2="254.03"/><line class="a372424c-3751-4fb7-aa38-d2aeb4dedf82" x1="32.39" y1="254.03" x2="206.52" y2="254.03"/><line class="a372424c-3751-4fb7-aa38-d2aeb4dedf82" x1="361.48" y1="359.62" x2="459.26" y2="359.62"/><line class="a372424c-3751-4fb7-aa38-d2aeb4dedf82" x1="57.39" y1="359.62" x2="148.84" y2="359.62"/><path class="bb08195d-b57c-46c4-9326-4b5295871854" d="M482.71,485.84a253.83,253.83,0,0,0,80.23-185.5c0-140.58-114-254.55-254.55-254.55S53.84,159.76,53.84,300.34a254,254,0,0,0,93,196.76c8,6.59,26,.28,34.78,5.87,9.92,6.3,10.76,24.34,21.55,29.25a255.27,255.27,0,0,0,212.54-1l6.9-14.54L439.52,503V489l7.08-17.34,16.25-7.75,8.19,7.75ZM308.39,514.76C190,514.76,94,418.76,94,300.34S190,85.92,308.39,85.92s214.42,96,214.42,214.42S426.81,514.76,308.39,514.76Z" transform="translate(-53.84 -45.79)"/><path class="ad268efd-0ae6-430e-9826-5ccdddbd5e1f" d="M280.62,326.33a7,7,0,0,1,7-7H319a7,7,0,0,1,0,14h-31.4A7,7,0,0,1,280.62,326.33Z" transform="translate(-53.84 -45.79)"/><path class="ad268efd-0ae6-430e-9826-5ccdddbd5e1f" d="M287.62,381.83a7,7,0,0,1,0-14h97a7,7,0,0,1,0,14Z" transform="translate(-53.84 -45.79)"/><path class="ad268efd-0ae6-430e-9826-5ccdddbd5e1f" d="M280.62,349.23a7,7,0,0,1,7-7h97a7,7,0,0,1,0,14h-97A7,7,0,0,1,280.62,349.23Z" transform="translate(-53.84 -45.79)"/><path class="ad268efd-0ae6-430e-9826-5ccdddbd5e1f" d="M195.62,324.63v136.7a7.05,7.05,0,0,0,3.8,6.2,7.22,7.22,0,0,0,3.2.8,6.89,6.89,0,0,0,4.1-1.3l34.4-24.7h114.4a7,7,0,0,0,7-7v-21.5h11.6l34.4,24.7a6.68,6.68,0,0,0,4.1,1.3,7.22,7.22,0,0,0,3.2-.8,7.05,7.05,0,0,0,3.8-6.2v-96.5a61,61,0,0,1-14-1.64v84.44l-25.2-18a6.68,6.68,0,0,0-4.1-1.3h-19.1a7.32,7.32,0,0,0-3.4,0h-87.2l.1-96.7h98.8a60.12,60.12,0,0,1-5.06-14H259.72a7,7,0,0,0-7,7v21.5h-50.1A7,7,0,0,0,195.62,324.63Zm13.9,123,.1-116h43.1v75.2a7,7,0,0,0,7,7h88.9v14.5H238.82a7.39,7.39,0,0,0-4.1,1.3Z" transform="translate(-53.84 -45.79)"/><path class="ad268efd-0ae6-430e-9826-5ccdddbd5e1f" d="M402.69,258.54a7.06,7.06,0,0,1,9.9,0l7.5,7.5,7.5-7.5a7,7,0,0,1,9.9,9.9l-7.5,7.5,7.5,7.5a7.06,7.06,0,0,1,0,9.9,6.88,6.88,0,0,1-4.9,2,7.14,7.14,0,0,1-4.9-2l-7.5-7.5-7.5,7.5a7.13,7.13,0,0,1-9.9,0,7.06,7.06,0,0,1,0-9.9l7.5-7.5-7.5-7.5A7,7,0,0,1,402.69,258.54Z" transform="translate(-53.84 -45.79)"/><path class="a3c77a2e-db8d-4fcb-a675-5bf672a157bb" d="M419.62,227.94a47.7,47.7,0,1,1-47.69,47.69,47.75,47.75,0,0,1,47.69-47.69m0-13a60.7,60.7,0,1,0,60.7,60.69,60.69,60.69,0,0,0-60.7-60.69Z" transform="translate(-53.84 -45.79)"/><path class="ad268efd-0ae6-430e-9826-5ccdddbd5e1f" d="M509.55,627.53h-10.7a7.15,7.15,0,0,0-6.4,4.1l-7.9,17.1h0a26.92,26.92,0,0,1-24.3,15.5,26.59,26.59,0,0,1-24.7-16.5.1.1,0,0,0-.1-.1l-7-15.8a7,7,0,0,0-6.4-4.2H410a51.26,51.26,0,0,0-51,56v60.5a6.88,6.88,0,0,0,2.1,5,7,7,0,0,0,5,2h187.5a7,7,0,0,0,7-7v-60.5a51.41,51.41,0,0,0-51-56.1Zm37,55V737H373.05v-54.5a37.25,37.25,0,0,1,37-41h7.5l5.1,11.6a40.76,40.76,0,0,0,74.6,1.5h0l6.1-13.1h6.3a37.2,37.2,0,0,1,27.6,12.3A37.91,37.91,0,0,1,546.55,682.53Z" transform="translate(-53.84 -45.79)"/><path class="ad268efd-0ae6-430e-9826-5ccdddbd5e1f" d="M433,498.53a49.24,49.24,0,0,0-24,37.7h0c-.1,1.2-.2,13.6-.2,37.1a49.5,49.5,0,0,0,99,0v-32.2a49.43,49.43,0,0,0-23.8-42.3,28.12,28.12,0,0,0,3.1-12.8,28.45,28.45,0,1,0-56.9.1A29.22,29.22,0,0,0,433,498.53Zm11.6,47.6a55.74,55.74,0,0,1-21.9,14.6c0-10.7.1-21.6.2-23.2a37,37,0,0,1,1.6-7.5A86.09,86.09,0,0,0,444.55,546.13Zm13.7,62.8a35.62,35.62,0,0,1-35.5-33.6c8.1-2.2,22.1-7.9,35-22.9a125.8,125.8,0,0,0,36.1,8.2v12.7A35.68,35.68,0,0,1,458.25,608.93Zm35.5-67.7v5.4c-38-3.6-55.8-21.5-61.8-29.4a35.27,35.27,0,0,1,26.3-11.6A35.66,35.66,0,0,1,493.75,541.23Zm-35.2-69.6a14.51,14.51,0,0,1,14.5,14.5,14.3,14.3,0,0,1-2,7.3,49.68,49.68,0,0,0-25-.2,14.79,14.79,0,0,1-1.9-7.1A14.49,14.49,0,0,1,458.55,471.63Z" transform="translate(-53.84 -45.79)"/><path class="ad268efd-0ae6-430e-9826-5ccdddbd5e1f" d="M161.12,605.27a49.66,49.66,0,0,0,49.6-49.6v-17.1a49.6,49.6,0,1,0-99.2,0v17.1A49.59,49.59,0,0,0,161.12,605.27Zm-35.7-66.7a35.6,35.6,0,1,1,71.2,0v17.1a35.68,35.68,0,0,1-35.6,35.6h0a35.68,35.68,0,0,1-35.6-35.6Z" transform="translate(-53.84 -45.79)"/><path class="ad268efd-0ae6-430e-9826-5ccdddbd5e1f" d="M63,751.49h81.9l-1.1,11.7a7.15,7.15,0,0,0,3.1,6.5l14,9.2a6.82,6.82,0,0,0,3.8,1.2,6.89,6.89,0,0,0,3.9-1.2l13.7-9.2a7.15,7.15,0,0,0,3.1-6.5l-1.1-11.7h78.6a7,7,0,0,0,7-7v-78.2a51.77,51.77,0,0,0-51.7-51.7h-12.3a7.05,7.05,0,0,0-6.6,4.6l-21.7,60.5-2.2-23.2a7,7,0,0,0,4.5-4.4l8.5-25a6.92,6.92,0,0,0-6.6-9.2l-35.5-.1h0a7,7,0,0,0-5.7,2.9,6.76,6.76,0,0,0-.9,6.3l8.5,25.1a7,7,0,0,0,5.5,4.7l-2.2,23.3-22.1-60.9a6.92,6.92,0,0,0-6.6-4.6h-15.1A51.77,51.77,0,0,0,56,666.29v78.2A7,7,0,0,0,63,751.49Zm101.8,13.1-6.6-4.4,6.5-69.4,6.5,69.4Zm46.1-136h7.3a37.73,37.73,0,0,1,37.7,37.7v71.2H183l-2.3-25Zm-38.8,3.1-3.8,11h-8.5l-3.8-11.1ZM70,666.29a37.73,37.73,0,0,1,37.7-37.7h10.2l30.7,83.9-2.3,25H70v-71.2Z" transform="translate(-53.84 -45.79)"/></svg>