<svg id="bae97056-07ab-49e3-935f-fa6cb4366c18" data-name="Layer 1" xmlns="http://www.w3.org/2000/svg" viewBox="0 0 717.48 509.1"><defs><style>.bc0be830-a747-42e3-9fce-21bfb4235576{fill:none;stroke:#fee1cc;stroke-miterlimit:10;stroke-width:15px;}.f597a198-93d1-4bcf-912b-19366ca0f971{fill:#fee1cc;}.bf38f269-41a6-4b35-adc5-64d40bba795d{fill:#f26722;}</style></defs><path class="bc0be830-a747-42e3-9fce-21bfb4235576" d="M387.4,365.88C373,448.72,336,507.67,292.55,507.67c-55.94,0-101.3-97.94-101.3-218.75S236.61,70.17,292.55,70.17c43.1,0,79.92,58.13,94.55,140.07" transform="translate(-38 -34.36)"/><line class="bc0be830-a747-42e3-9fce-21bfb4235576" x1="55.39" y1="148.44" x2="375.32" y2="148.44"/><line class="bc0be830-a747-42e3-9fce-21bfb4235576" x1="32.39" y1="254.03" x2="327.11" y2="254.03"/><line class="bc0be830-a747-42e3-9fce-21bfb4235576" x1="57.39" y1="359.62" x2="375.32" y2="359.62"/><path class="f597a198-93d1-4bcf-912b-19366ca0f971" d="M458.84,424.29a214,214,0,0,1-166.29,79c-118.42,0-214.42-96-214.42-214.42S174.13,74.5,292.55,74.5a214,214,0,0,1,165.46,78l45.69-5.83A254.3,254.3,0,0,0,292.55,34.36C152,34.36,38,148.33,38,288.92S152,543.47,292.55,543.47A254.25,254.25,0,0,0,501.26,434.69Z" transform="translate(-38 -34.36)"/><path class="bf38f269-41a6-4b35-adc5-64d40bba795d" d="M724.67,255.08a7,7,0,0,0-9.9,9.9l16.7,16.7h-50a7,7,0,0,0,0,14h50l-16.7,16.7a7.05,7.05,0,0,0,5,12,7,7,0,0,0,4.9-2l28.7-28.6a7.12,7.12,0,0,0,2.1-5,6.88,6.88,0,0,0-2.1-5Z" transform="translate(-38 -34.36)"/><path class="bf38f269-41a6-4b35-adc5-64d40bba795d" d="M532.17,495l-16.7,16.7v-49.9a7,7,0,0,0-14,0v50l-16.7-16.7a7,7,0,1,0-9.9,9.9l28.6,28.7a7.12,7.12,0,0,0,5,2.1,6.88,6.88,0,0,0,5-2.1l28.6-28.7a7.06,7.06,0,0,0,0-9.9A7,7,0,0,0,532.17,495Z" transform="translate(-38 -34.36)"/><path class="bf38f269-41a6-4b35-adc5-64d40bba795d" d="M484.77,82.86l16.7-16.7v49.9a7,7,0,0,0,14,0v-50l16.7,16.7a7,7,0,1,0,9.9-9.9l-28.6-28.7a7.12,7.12,0,0,0-5-2.1,6.88,6.88,0,0,0-5,2.1l-28.6,28.7a7.06,7.06,0,0,0,0,9.9A7,7,0,0,0,484.77,82.86Z" transform="translate(-38 -34.36)"/><path class="bf38f269-41a6-4b35-adc5-64d40bba795d" d="M285.37,295.68h50a7,7,0,0,0,0-14h-50l16.7-16.7a7,7,0,0,0-9.9-9.9l-28.6,28.6a7.12,7.12,0,0,0-2.1,5,6.88,6.88,0,0,0,2.1,5l28.7,28.6a6.88,6.88,0,0,0,4.9,2,7.05,7.05,0,0,0,5-12Z" transform="translate(-38 -34.36)"/><path class="bf38f269-41a6-4b35-adc5-64d40bba795d" d="M678.07,410.78h0a7,7,0,0,0-7,7v23.6l-35.3-35.3a7,7,0,1,0-9.9,9.9l35.3,35.3h-23.6a7,7,0,1,0,0,14l40.6.1h0a7.2,7.2,0,0,0,5-2,6.63,6.63,0,0,0,2-5l-.1-40.6A7,7,0,0,0,678.07,410.78Z" transform="translate(-38 -34.36)"/><path class="bf38f269-41a6-4b35-adc5-64d40bba795d" d="M381.07,406.08l-35.3,35.3v-23.6a7,7,0,0,0-7-7h0a7,7,0,0,0-7,7l-.1,40.6a6.88,6.88,0,0,0,2.1,5,7,7,0,0,0,4.9,2h0l40.6-.1a7,7,0,0,0,0-14h-23.6L391,416a7,7,0,0,0-9.9-9.9Z" transform="translate(-38 -34.36)"/><path class="bf38f269-41a6-4b35-adc5-64d40bba795d" d="M630.87,173.28a7,7,0,0,0,5-2.1l35.3-35.3v23.6a7,7,0,0,0,7,7h0a7,7,0,0,0,7-7l.1-40.6a7.2,7.2,0,0,0-2-5,7.12,7.12,0,0,0-5-2.1h0l-40.6.1a7,7,0,0,0,0,14h23.6L626,161.18a7.06,7.06,0,0,0,0,9.9A6.41,6.41,0,0,0,630.87,173.28Z" transform="translate(-38 -34.36)"/><path class="bf38f269-41a6-4b35-adc5-64d40bba795d" d="M338.87,166.48h0a7,7,0,0,0,7-7v-23.6l35.3,35.3a7,7,0,0,0,4.9,2.1,6.83,6.83,0,0,0,4.9-2.1,7.06,7.06,0,0,0,0-9.9L355.67,126h23.6a7,7,0,0,0,0-14l-40.6-.1h0a6.51,6.51,0,0,0-4.9,2.1,7.12,7.12,0,0,0-2.1,5l.1,40.6A7.09,7.09,0,0,0,338.87,166.48Z" transform="translate(-38 -34.36)"/><path class="bf38f269-41a6-4b35-adc5-64d40bba795d" d="M508.26,152A136.36,136.36,0,1,1,411.84,192,135.42,135.42,0,0,1,508.26,152m0-15A151.36,151.36,0,1,0,659.61,288.36,151.36,151.36,0,0,0,508.26,137Z" transform="translate(-38 -34.36)"/><path class="bf38f269-41a6-4b35-adc5-64d40bba795d" d="M507.41,274.72a43.29,43.29,0,0,0,43.25-43.25V226a24.07,24.07,0,0,0,5,.52,24.86,24.86,0,1,0,.09-49.71,24.63,24.63,0,0,0-12,3.05,43.24,43.24,0,0,0-79.33,19.23h0c-.09,1-.18,11.88-.18,32.41A43.17,43.17,0,0,0,507.41,274.72Zm31.11-71.38v6.9c-11-.17-21.14-3.49-29-9.61a138.87,138.87,0,0,1,27.79-5.94A31.6,31.6,0,0,1,538.52,203.34ZM555.73,189a12.67,12.67,0,0,1,0,25.34,12.09,12.09,0,0,1-5-1v-9.88a41.86,41.86,0,0,0-1.83-12.4A12.45,12.45,0,0,1,555.73,189Zm-48.32-16.69a30.79,30.79,0,0,1,23.51,10.83c-17.3,2.45-38.18,8.83-54.43,19.31v-2.27A31,31,0,0,1,507.41,172.32Zm-30.92,45.17a91,91,0,0,1,20.18-12c10.66,10.75,25.42,16.78,41.85,16.95v9a31,31,0,1,1-62,0C476.4,227.36,476.4,222.38,476.49,217.49Z" transform="translate(-38 -34.36)"/><path class="bf38f269-41a6-4b35-adc5-64d40bba795d" d="M552.24,278.74h-9.35a5.81,5.81,0,0,0-3.41,1.05l-31,21-29-20.88a5.84,5.84,0,0,0-3.59-1.14H465.21a44.79,44.79,0,0,0-44.56,48.93v52.86a6.11,6.11,0,0,0,6.12,6.11H590.59a6.07,6.07,0,0,0,6.12-6.11V327.67a44.79,44.79,0,0,0-44.47-48.93ZM540.09,294.2l-16.34,22-5-7.6Zm-41.94,14.25-5.06,7.77-18.18-24.46Zm86.41,18.34v47.62H433V326.79a32.42,32.42,0,0,1,8.13-25.07,33,33,0,0,1,18.35-10.22l29,39.05a6.19,6.19,0,0,0,5.06,2.45,6.12,6.12,0,0,0,4.9-2.8l9.87-15.11,9.87,15.11a6.37,6.37,0,0,0,4.89,2.8,6,6,0,0,0,5.07-2.45l29.1-39.14a32.85,32.85,0,0,1,19,10.31A31.85,31.85,0,0,1,584.56,326.79Z" transform="translate(-38 -34.36)"/></svg>