<svg id="bc309859-120f-422f-a834-f37c4a455f69" data-name="Layer 1" xmlns="http://www.w3.org/2000/svg" viewBox="0 0 511.49 594.29"><defs><style>.a837f013-3643-4861-adf4-734c1e5912bb{fill:#f58538;}.b2fc4829-c3bf-42b7-8c4e-9eb1944dbff0{fill:#f26722;}</style></defs><path class="a837f013-3643-4861-adf4-734c1e5912bb" d="M561.88,504.24H507l-6.19-104.07-32.64-11.34V193.48H377.89V127l184-28.14Z" transform="translate(-50.39 -98.86)"/><path class="b2fc4829-c3bf-42b7-8c4e-9eb1944dbff0" d="M283.59,434.14h66.8a7,7,0,0,0,0-14h-66.8a7,7,0,0,0,0,14Z" transform="translate(-50.39 -98.86)"/><path class="b2fc4829-c3bf-42b7-8c4e-9eb1944dbff0" d="M410.39,481.44H283.59a7,7,0,0,0,0,14h126.8a7,7,0,0,0,0-14Z" transform="translate(-50.39 -98.86)"/><path class="b2fc4829-c3bf-42b7-8c4e-9eb1944dbff0" d="M410.39,542.64H283.59a7,7,0,0,0,0,14h126.8a7,7,0,0,0,0-14Z" transform="translate(-50.39 -98.86)"/><path class="b2fc4829-c3bf-42b7-8c4e-9eb1944dbff0" d="M475.19,381.64h-19.3v-18.7a37,37,0,0,0-37-37H87.39a37,37,0,0,0-37,37v236.9a37,37,0,0,0,37,37h18.7v19.3a37,37,0,0,0,37,37h332.1a37,37,0,0,0,37-37V418.64A37,37,0,0,0,475.19,381.64ZM64.39,599.84V362.94a23,23,0,0,1,23-23H419a23,23,0,0,1,23,23v236.9a23,23,0,0,1-23,23H87.39A23,23,0,0,1,64.39,599.84Zm433.8,56.3a23,23,0,0,1-23,23H143.09a23,23,0,0,1-23-23v-19.3H419a37,37,0,0,0,37-37V395.64h19.3a23,23,0,0,1,23,23v237.5Z" transform="translate(-50.39 -98.86)"/><path class="b2fc4829-c3bf-42b7-8c4e-9eb1944dbff0" d="M166.31,495.22A43.3,43.3,0,0,0,209.56,452v-5.51a24.09,24.09,0,0,0,5,.53,24.86,24.86,0,0,0,.09-49.72,24.64,24.64,0,0,0-12,3.06,43.25,43.25,0,0,0-79.34,19.22h0c-.08,1.05-.17,11.89-.17,32.42A43.16,43.16,0,0,0,166.31,495.22Zm31.11-71.38v6.9c-11-.18-21.15-3.5-29-9.61a138.78,138.78,0,0,1,27.78-5.94A31.12,31.12,0,0,1,197.42,423.84Zm17.21-14.33a12.67,12.67,0,1,1,0,25.33,12.25,12.25,0,0,1-5-1v-9.88a41.54,41.54,0,0,0-1.84-12.4A12.46,12.46,0,0,1,214.63,409.51Zm-48.32-16.69a30.75,30.75,0,0,1,23.5,10.83c-17.3,2.45-38.18,8.83-54.43,19.31v-2.27A31,31,0,0,1,166.31,392.82ZM135.38,438a91.41,91.41,0,0,1,20.18-12c10.66,10.75,25.43,16.78,41.86,17v9a31,31,0,1,1-62,0C135.29,447.86,135.29,442.88,135.38,438Z" transform="translate(-50.39 -98.86)"/><path class="b2fc4829-c3bf-42b7-8c4e-9eb1944dbff0" d="M211.13,499.24h-9.35a5.8,5.8,0,0,0-3.4,1.05l-31,21-29-20.89a5.87,5.87,0,0,0-3.58-1.13H124.11a44.78,44.78,0,0,0-44.56,48.93V601a6,6,0,0,0,1.84,4.37,6.08,6.08,0,0,0,4.28,1.74H249.49a6.08,6.08,0,0,0,6.12-6.11V548.17a44.78,44.78,0,0,0-44.48-48.93ZM199,514.7l-16.34,22-5-7.6Zm-41.94,14.24L152,536.72l-18.17-24.46Zm86.41,18.35v47.62H91.87V547.29A32.42,32.42,0,0,1,100,522.22,33,33,0,0,1,118.34,512l29,39.06a6.24,6.24,0,0,0,5.07,2.45,6.1,6.1,0,0,0,4.89-2.8l9.87-15.12,9.88,15.12a6.36,6.36,0,0,0,4.89,2.8,6,6,0,0,0,5.07-2.45l29.09-39.14a32.87,32.87,0,0,1,19,10.31A31.92,31.92,0,0,1,243.46,547.29Z" transform="translate(-50.39 -98.86)"/></svg>