<svg id="a8cf3b46-d842-4682-a523-0ea913ac84d0" data-name="Layer 1" xmlns="http://www.w3.org/2000/svg" viewBox="0 0 535.12 742.95"><defs><style>.beb88afb-3d7f-4cd0-a4f1-3c0e076ef40f{fill:#f58538;}.bf58fa6b-f2b1-4e21-8335-75b4b43cf9df{fill:#f16823;}</style></defs><path class="beb88afb-3d7f-4cd0-a4f1-3c0e076ef40f" d="M223.6,423.38H129.91V112.62H39.62V46.14L223.6,18Z" transform="translate(-31.32 -13.05)"/><path class="beb88afb-3d7f-4cd0-a4f1-3c0e076ef40f" d="M566.44,178.79v85.34q0,81-37.41,123.38a119.13,119.13,0,0,1-30.72,25c-9.57,5.43,5.36-26.86-5.95-24-12.79,3.25-93.22,1.59-108.22,1.59-17.31,0,8,37.56-6.34,33.24a119.59,119.59,0,0,1-56.25-35.88q-37.43-42.36-37.42-123.38V178.79q0-81,37.11-123.38T425,13.05q66.63,0,104,42.52T566.44,178.79ZM461.16,106.13q-11.91-20.72-36-20.72T389.57,106q-11.43,20.57-11.44,66.33v97.4q0,46.69,11.6,67.25t35.56,20.57q24,0,35.71-20.72t11.75-67.1l.31-97.4Q473.06,126.84,461.16,106.13Z" transform="translate(-31.32 -13.05)"/><path class="bf58fa6b-f2b1-4e21-8335-75b4b43cf9df" d="M130.93,496.71a49.35,49.35,0,0,0-49.3,44.6c-.1,1.2-.2,13.6-.2,37.1a49.45,49.45,0,1,0,98.9,0v-6.3a27.6,27.6,0,0,0,5.7.6,28.45,28.45,0,0,0,.1-56.9,28.2,28.2,0,0,0-13.7,3.5,49.49,49.49,0,0,0-41.5-22.6Zm-35.5,48.5v-2.6a35.52,35.52,0,0,1,62.3-19.5c-19.8,2.8-43.7,10.1-62.3,22.1Zm90.7,13.6a13.88,13.88,0,0,1-5.7-1.2v-11.3a47.85,47.85,0,0,0-2.1-14.2,14.25,14.25,0,0,1,7.8-2.3,14.5,14.5,0,0,1,0,29Zm-19.7-4.7c-12.6-.2-24.2-4-33.2-11a159.36,159.36,0,0,1,31.8-6.8,35.88,35.88,0,0,1,1.4,9.9v7.9Zm-35.5,59.8a35.51,35.51,0,0,1-35.5-35.5c-.1-4.7-.1-10.4,0-16a104.43,104.43,0,0,1,23.1-13.7c12.2,12.3,29.1,19.2,47.9,19.4v10.3a35.51,35.51,0,0,1-35.5,35.5Z" transform="translate(-31.32 -13.05)"/><path class="bf58fa6b-f2b1-4e21-8335-75b4b43cf9df" d="M182.13,632.51h-10.7a6.67,6.67,0,0,0-3.9,1.2l-35.5,24-33.2-23.9a6.68,6.68,0,0,0-4.1-1.3H82.53a51.26,51.26,0,0,0-51,56V749a6.88,6.88,0,0,0,2.1,5,7,7,0,0,0,4.9,2H226a7,7,0,0,0,7-7v-60.5a51.26,51.26,0,0,0-50.9-56ZM149,694.61a6.84,6.84,0,0,0,5.51-2.8l33.3-44.8a37.71,37.71,0,0,1,21.8,11.8,36.54,36.54,0,0,1,9.5,28.7V742H45.63v-54.5a37.14,37.14,0,0,1,9.3-28.7,37.78,37.78,0,0,1,21-11.7l33.2,44.7a7.16,7.16,0,0,0,5.53,2.8h.27a7,7,0,0,0,5.6-3.2l11.3-17.3,11.3,17.3a7.28,7.28,0,0,0,5.6,3.2Zm-34.59-19.2-20.8-28,26.6,19.1-5.8,8.9Zm35.1,0-5.7-8.7,24.4-16.5-18.7,25.2Z" transform="translate(-31.32 -13.05)"/><path class="bf58fa6b-f2b1-4e21-8335-75b4b43cf9df" d="M496,381.08H377.14a7,7,0,0,0-7,7V446a7,7,0,0,0,7,7H496a7,7,0,0,0,7-7v-57.9a7,7,0,0,0-7-7ZM384.14,439v-43.9H489V439Z" transform="translate(-31.32 -13.05)"/><path class="bf58fa6b-f2b1-4e21-8335-75b4b43cf9df" d="M541.34,531.78H377.14a7,7,0,0,0-7,7v57.9a7,7,0,0,0,7,7h164.3a7,7,0,0,0,7-7v-57.9a7.11,7.11,0,0,0-7.1-7Zm-157.2,57.8v-43.9h150.3v43.9H384.14Z" transform="translate(-31.32 -13.05)"/><path class="bf58fa6b-f2b1-4e21-8335-75b4b43cf9df" d="M496,682.38H377.14a7,7,0,0,0-7,7v57.9a7,7,0,0,0,7,7H496a7,7,0,0,0,7-7v-57.9a7.09,7.09,0,0,0-7-7Zm-111.9,57.9v-43.9H489v43.9Z" transform="translate(-31.32 -13.05)"/><path class="bf58fa6b-f2b1-4e21-8335-75b4b43cf9df" d="M305.39,428.2a3.88,3.88,0,0,0,2.8,1.27,3.82,3.82,0,0,0,2.59-1l17.54-16.06a3.85,3.85,0,0,0-5.22-5.67l-14.74,13.48L301.7,413a3.85,3.85,0,1,0-5.66,5.23Z" transform="translate(-31.32 -13.05)"/><path class="bf58fa6b-f2b1-4e21-8335-75b4b43cf9df" d="M311.74,393.3a24.3,24.3,0,1,1-24.3,24.3,24.32,24.32,0,0,1,24.3-24.3m0-13A37.3,37.3,0,1,0,349,417.6a37.3,37.3,0,0,0-37.29-37.3Z" transform="translate(-31.32 -13.05)"/><path class="bf58fa6b-f2b1-4e21-8335-75b4b43cf9df" d="M305.39,578.24a3.9,3.9,0,0,0,2.8,1.26,3.82,3.82,0,0,0,2.59-1l17.54-16.06a3.85,3.85,0,0,0-5.22-5.66l-14.74,13.47-6.66-7.2a3.85,3.85,0,0,0-5.66,5.22Z" transform="translate(-31.32 -13.05)"/><path class="bf58fa6b-f2b1-4e21-8335-75b4b43cf9df" d="M311.74,543.33a24.3,24.3,0,1,1-24.3,24.3,24.32,24.32,0,0,1,24.3-24.3m0-13A37.3,37.3,0,1,0,349,567.63a37.3,37.3,0,0,0-37.29-37.3Z" transform="translate(-31.32 -13.05)"/><path class="bf58fa6b-f2b1-4e21-8335-75b4b43cf9df" d="M305.39,728.94a3.9,3.9,0,0,0,2.8,1.26,3.82,3.82,0,0,0,2.59-1l17.54-16.06a3.85,3.85,0,0,0-5.22-5.66L308.36,721l-6.66-7.2A3.85,3.85,0,0,0,296,719Z" transform="translate(-31.32 -13.05)"/><path class="bf58fa6b-f2b1-4e21-8335-75b4b43cf9df" d="M311.74,694a24.3,24.3,0,1,1-24.3,24.3,24.32,24.32,0,0,1,24.3-24.3m0-13A37.3,37.3,0,1,0,349,718.33,37.3,37.3,0,0,0,311.74,681Z" transform="translate(-31.32 -13.05)"/><rect class="bf58fa6b-f2b1-4e21-8335-75b4b43cf9df" x="273.31" y="439.93" width="14.89" height="83.33"/><rect class="bf58fa6b-f2b1-4e21-8335-75b4b43cf9df" x="273.31" y="590.63" width="14.89" height="83.33"/></svg>