<svg id="b30a3271-e9d7-4a1a-874f-dde73b77a03d" data-name="Layer 1" xmlns="http://www.w3.org/2000/svg" viewBox="0 0 772.23 567.09"><defs><style>.ec1115e0-02c2-4f4f-883a-2669a061cc0e{fill:#f58538;}.a3d3aba4-52bc-4d58-9e3d-6dfc5d43c014{fill:#f16823;}</style></defs><path class="ec1115e0-02c2-4f4f-883a-2669a061cc0e" d="M598.35,461.87h-93.7V432.19l21.18-4.42.56-59.63-21.74-5.52V151.11H414.36V84.63l184-28.14Z" transform="translate(-80.06 -56.49)"/><path class="ec1115e0-02c2-4f4f-883a-2669a061cc0e" d="M852.29,461.87h-93.7V151.11H668.3V84.63l184-28.14Z" transform="translate(-80.06 -56.49)"/><path class="a3d3aba4-52bc-4d58-9e3d-6dfc5d43c014" d="M337.16,169H275a7,7,0,0,0-7,6.3l-4.1,42.8a180.92,180.92,0,0,0-51.8,21.8l-33-27.3a7.08,7.08,0,0,0-4.5-1.61,6.88,6.88,0,0,0-4.9,2l-45.5,45.6a6.94,6.94,0,0,0-.4,9.4l27.3,33a187.16,187.16,0,0,0-21.9,51.8l-42.8,4.1a7,7,0,0,0-6.3,7v64.6a7,7,0,0,0,6.3,7l42.8,4.1a180.92,180.92,0,0,0,21.8,51.8l-27.3,33a7,7,0,0,0,.4,9.4l45.6,45.6a6.88,6.88,0,0,0,4.88,2,7.13,7.13,0,0,0,4.52-1.64l33-27.3a187.16,187.16,0,0,0,51.8,21.9l4.1,42.9a7,7,0,0,0,7,6.3h62.2a7,7,0,0,0,7-6.3l4.1-42.9a185.43,185.43,0,0,0,51.8-21.9l33,27.3a7,7,0,0,0,4.49,1.6,6.91,6.91,0,0,0,4.91-2l45.6-45.6a6.94,6.94,0,0,0,.4-9.4l-27.3-33a180.92,180.92,0,0,0,21.8-51.8l42.8-4.1a7,7,0,0,0,6.3-7v-64.6a6.72,6.72,0,0,0-6.1-7l-42.9-4.1a185.43,185.43,0,0,0-21.9-51.8l27.3-33a7,7,0,0,0-.4-9.4L442.46,213a6.87,6.87,0,0,0-4.89-2,7.11,7.11,0,0,0-4.51,1.65l-33,27.3a180.92,180.92,0,0,0-51.8-21.8l-4.1-42.8a7,7,0,0,0-7-6.3ZM211.57,255.57a7,7,0,0,0,3.89-1.19,166.9,166.9,0,0,1,56.4-23.8,6.91,6.91,0,0,0,5.5-6.2l4-41.5h49.5l4,41.5a7.12,7.12,0,0,0,5.5,6.2,164.93,164.93,0,0,1,56.4,23.8,7.1,7.1,0,0,0,3.89,1.16,6.93,6.93,0,0,0,4.41-1.56l32-26.5,36.5,36.5-26.5,32a7.23,7.23,0,0,0-.5,8.3,170.6,170.6,0,0,1,23.8,56.5,6.91,6.91,0,0,0,6.2,5.5l41.5,4,.2,51.8-41.5,4a7.12,7.12,0,0,0-6.2,5.5,164.93,164.93,0,0,1-23.8,56.4,7.05,7.05,0,0,0,.4,8.3l26.5,32-36.5,36.6-32-26.5a7.21,7.21,0,0,0-8.3-.5,170.6,170.6,0,0,1-56.5,23.8,6.91,6.91,0,0,0-5.5,6.2l-4,41.5h-49.5l-4-41.5a7.12,7.12,0,0,0-5.5-6.2,170.6,170.6,0,0,1-56.5-23.8,6.91,6.91,0,0,0-8.3.5l-32,26.5-36.5-36.5,26.5-32a6.91,6.91,0,0,0,.4-8.3,166.9,166.9,0,0,1-23.8-56.4,6.91,6.91,0,0,0-6.2-5.5l-41.5-4v-51.9l41.5-4a7.12,7.12,0,0,0,6.2-5.5,170.6,170.6,0,0,1,23.8-56.5,6.91,6.91,0,0,0-.5-8.3l-26.5-32,36.7-36.5,32,26.5a6.89,6.89,0,0,0,4.41,1.59Z" transform="translate(-80.06 -56.49)"/><path class="a3d3aba4-52bc-4d58-9e3d-6dfc5d43c014" d="M307.06,259.18c-75.5,0-137,61.5-137,137s61.5,137,137,137,137-61.5,137-137-61.5-137-137-137Zm0,260a123,123,0,1,1,123-123,123.17,123.17,0,0,1-123,123Z" transform="translate(-80.06 -56.49)"/><path class="a3d3aba4-52bc-4d58-9e3d-6dfc5d43c014" d="M306.46,286.58a22.11,22.11,0,0,0-22.1,22.1v6.4a22.1,22.1,0,0,0,44.2,0v-6.4a22.11,22.11,0,0,0-22.1-22.1Zm0,38.5a10.07,10.07,0,0,1-10.1-10.1v-6.4a10.1,10.1,0,0,1,20.2,0V315a10.07,10.07,0,0,1-10.1,10.1Z" transform="translate(-80.06 -56.49)"/><path class="a3d3aba4-52bc-4d58-9e3d-6dfc5d43c014" d="M317,340.18h-19.8a36,36,0,0,0-36,36v37.9a14.35,14.35,0,0,0,4.4,10.5,14.89,14.89,0,0,0,10.3,4.4,17.52,17.52,0,0,0,4-.5l2,62.3a15.65,15.65,0,0,0,15.6,15.1,15.91,15.91,0,0,0,9.6-3.3,15.61,15.61,0,0,0,25.2-11.8l2-62.3a13.45,13.45,0,0,0,3.5.5h.2a14.54,14.54,0,0,0,10.3-4.3,15.63,15.63,0,0,0,4.6-10.9v-37.6a36,36,0,0,0-35.9-36Zm-40.9,76.9a2.73,2.73,0,0,1-2.8-2.8v-38.1a24.07,24.07,0,0,1,24-24h19.8a24.07,24.07,0,0,1,24,24l-.1,37.6a3.69,3.69,0,0,1-1,2.4,2.81,2.81,0,0,1-1.9.8,2.73,2.73,0,0,1-2.8-2.8v-33.1h-12v20.6H291v-20.6H279v32.8a3.69,3.69,0,0,1-1,2.4,2.81,2.81,0,0,1-1.9.8Zm21.5,76.8a3.5,3.5,0,0,1-3.6-3.5l-2.5-76.8H323l-2.5,76.8a3.79,3.79,0,0,1-3.7,3.5,3.59,3.59,0,0,1-3.6-3.6v-64.8h-12v64.8a3.59,3.59,0,0,1-3.6,3.6Z" transform="translate(-80.06 -56.49)"/></svg>