<svg id="afebc86a-dcaf-4966-912c-7b25d672f517" data-name="Layer 1" xmlns="http://www.w3.org/2000/svg" viewBox="0 0 528.03 613.35"><defs><style>.a18f092e-1888-412d-9afd-77cd8d3086f3{fill:#f58538;}.ba6c0909-3beb-477b-bf87-84f7a9d72fdf{fill:#f26722;}</style></defs><path class="a18f092e-1888-412d-9afd-77cd8d3086f3" d="M555.77,409.39v72.67H497.06l-46.52-31.91L384,443.09l-64.22,39H272.22V420.84l130.18-137q48.24-55.34,48.24-89.36,0-24.12-12.06-37.72t-34-13.61q-22,0-34.32,17.63t-12.37,46.07H266l-.31-1.86q-1.56-57.19,36.95-95.7t103-38.5q64.47,0,101.88,32.63T545,193.56q0,36.49-17.63,64.47T451.87,349.1l-55,58.75.93,1.54Z" transform="translate(-27.74 -70.8)"/><path class="ba6c0909-3beb-477b-bf87-84f7a9d72fdf" d="M408.24,436.05c-68.4,0-124.1,55.7-124.1,124.1s55.7,124,124.1,124,124.1-55.7,124.1-124.1S476.64,436.05,408.24,436.05Zm-72.9,206.4a30.86,30.86,0,0,1,30.2-24.4h5.8l4.1,9.3a36,36,0,0,0,65.8,1.3l4.9-10.6h4.7a31,31,0,0,1,30.2,24.4,109.65,109.65,0,0,1-145.7,0Zm156.9-11.3a45.18,45.18,0,0,0-41.2-27.1h-9.2a7.15,7.15,0,0,0-6.4,4.1l-6.8,14.7a22,22,0,0,1-40.2-.8.1.1,0,0,0-.1-.1l-6-13.6a7,7,0,0,0-6.4-4.2h-10.4a44.84,44.84,0,0,0-41.3,27.1,110.14,110.14,0,1,1,168-.1Z" transform="translate(-27.74 -70.8)"/><path class="ba6c0909-3beb-477b-bf87-84f7a9d72fdf" d="M430.34,494.25a25.7,25.7,0,0,0,2.3-10.7,25.4,25.4,0,1,0-50.8,0,25.73,25.73,0,0,0,2.2,10.3,43.43,43.43,0,0,0-20.3,32.7c-.1,1.1-.2,10.5-.2,17.3v14.6a43.5,43.5,0,0,0,87,0v-27.6A43.87,43.87,0,0,0,430.34,494.25Zm6.1,41a111.17,111.17,0,0,0-43.9-30.1,29.58,29.58,0,0,1,43.9,25.8Zm-58.8-7.4a28.77,28.77,0,0,1,3.7-11.6,91.54,91.54,0,0,1,21.4,9.2c-2.9,4.6-7.9,8.6-14.3,11.3a29.2,29.2,0,0,1-10.9,2.5C377.54,534.15,377.64,529,377.64,527.85Zm18.2-44.2a11.4,11.4,0,1,1,22.8,0,11.25,11.25,0,0,1-1.2,5.1,45.74,45.74,0,0,0-10.5-1.3,47.14,47.14,0,0,0-10,1.1A11.7,11.7,0,0,1,395.84,483.65Zm11.1,104.4a29.49,29.49,0,0,1-29.5-29.5v-5.2h0a40.78,40.78,0,0,0,12.5-2.2c8.6-2.8,18.4-8.7,24.2-17.7a101.66,101.66,0,0,1,22.2,24.9v.1A29.36,29.36,0,0,1,406.94,588.05Z" transform="translate(-27.74 -70.8)"/><path class="ba6c0909-3beb-477b-bf87-84f7a9d72fdf" d="M152.59,325.85a43.28,43.28,0,0,0,43.25-43.25v-5.5a24.07,24.07,0,0,0,5,.52,24.86,24.86,0,0,0,.09-49.71,24.64,24.64,0,0,0-12,3.06,43.24,43.24,0,0,0-79.33,19.22h0c-.09,1.05-.18,11.88-.18,32.41A43.16,43.16,0,0,0,152.59,325.85Zm31.11-71.38v6.9c-11-.17-21.15-3.49-29-9.61a138.78,138.78,0,0,1,27.78-5.94A31.23,31.23,0,0,1,183.7,254.47Zm17.21-14.33a12.67,12.67,0,1,1,0,25.34,12.09,12.09,0,0,1-5-1.05v-9.87a41.88,41.88,0,0,0-1.83-12.41A12.4,12.4,0,0,1,200.91,240.14Zm-48.32-16.69a30.8,30.8,0,0,1,23.51,10.84c-17.3,2.44-38.19,8.82-54.44,19.31v-2.28A31,31,0,0,1,152.59,223.45Zm-30.93,45.17a91.26,91.26,0,0,1,20.19-12c10.66,10.75,25.42,16.78,41.85,17v9a31,31,0,1,1-62,0C121.58,278.5,121.58,273.52,121.66,268.62Z" transform="translate(-27.74 -70.8)"/><path class="ba6c0909-3beb-477b-bf87-84f7a9d72fdf" d="M151.84,178.15c-68.4,0-124.1,55.7-124.1,124.1s55.7,124.1,124.1,124.1,124.1-55.7,124.1-124.1S220.24,178.15,151.84,178.15ZM61,364.35a109.13,109.13,0,0,1-19.3-62.2c0-60.6,49.4-110,110.1-110a110,110,0,0,1,90.8,172.2l-12.9,13.9v1.8a110,110,0,0,1-155.7,0v-1.8" transform="translate(-27.74 -70.8)"/><path class="ba6c0909-3beb-477b-bf87-84f7a9d72fdf" d="M229.74,378.25l11.45-12.33a44.72,44.72,0,0,0-43.77-36.05h-9.35a5.81,5.81,0,0,0-3.41,1.05l-31,21-29-20.88a5.79,5.79,0,0,0-3.58-1.14H110.39a44.76,44.76,0,0,0-44.45,39.72l8.1,8.66v1.8q2,2,4.11,3.9v-6a32.45,32.45,0,0,1,8.13-25.08,33,33,0,0,1,18.35-10.22l29,39.05a6.2,6.2,0,0,0,5.07,2.45,6.08,6.08,0,0,0,4.89-2.8l9.88-15.11,9.87,15.11a6.37,6.37,0,0,0,4.89,2.8,6,6,0,0,0,5.07-2.45l29.1-39.14a33,33,0,0,1,19,10.31,31.94,31.94,0,0,1,8.3,25.08Zm-91.48-10.9-18.17-24.46,23.24,16.69Zm30.67,0-5-7.6,21.32-14.41Z" transform="translate(-27.74 -70.8)"/></svg>