<svg id="b8bd87e1-be47-4833-ab9d-94c0a09b8181" data-name="Layer 1" xmlns="http://www.w3.org/2000/svg" viewBox="0 0 611.75 598.56"><defs><style>.a0dade54-ef46-4167-bfc3-c30ce813618e{fill:#f58538;}.f96581e8-fa3c-4af0-98b8-49e52aaa9306{fill:#f26722;}.bcf6d8da-84ef-400f-8f12-61576cb9e4e6{fill:#f16823;}</style></defs><path class="a0dade54-ef46-4167-bfc3-c30ce813618e" d="M494.19,214.31q25.35,0,39.11-13.45t13.76-35.72q0-22.26-12.67-34.94t-33.71-12.68q-21,0-34.63,10.67t-13.61,27.06H361.23l-.62-1.55Q359,105.78,398,75.47t97.4-30.3q67.09,0,106.07,30.3t39,85.34q0,27.52-17,50.72T577.37,247.7q33.39,12.06,51.48,36.34t18.09,58q0,55-41.9,87.2T495.42,461.37q-39.27,0-71.11-13a118,118,0,0,1-35.37-22.08c-5.88-5.35,25.48-13.1,27.79-20.92,2.93-9.89,12.3.35,12.92-24l8.43-20.78,8.49-17.68q0,19.49,15.15,32.78T500.06,389q23.19,0,38-13.76t14.84-35.09q0-56.6-59.06-56.59H449.66l.31-69.26Z" transform="translate(-35.19 -45.17)"/><path class="f96581e8-fa3c-4af0-98b8-49e52aaa9306" d="M179.74,643.73h170a7.15,7.15,0,0,0,6.4-4.1l50-110a7,7,0,0,0-.5-6.7,6.71,6.71,0,0,0-5.8-3.2H267.74l-14.6.1h-23.4a7.15,7.15,0,0,0-6.4,4.1l-48.1,105.9Zm165.6-14H190.74l43.6-96h154.6Z" transform="translate(-35.19 -45.17)"/><path class="f96581e8-fa3c-4af0-98b8-49e52aaa9306" d="M258.44,260.63a7.06,7.06,0,0,0-9.9,0l-7.5,7.5-7.5-7.5a7,7,0,1,0-9.9,9.9l7.5,7.5-7.5,7.5a7.06,7.06,0,0,0,0,9.9,6.88,6.88,0,0,0,4.9,2,7.14,7.14,0,0,0,4.9-2l7.5-7.5,7.5,7.5a7.13,7.13,0,0,0,9.9,0,7.06,7.06,0,0,0,0-9.9l-7.5-7.5,7.5-7.5A7,7,0,0,0,258.44,260.63Z" transform="translate(-35.19 -45.17)"/><path class="bcf6d8da-84ef-400f-8f12-61576cb9e4e6" d="M241.5,230a47.7,47.7,0,1,1-47.69,47.7A47.76,47.76,0,0,1,241.5,230m0-13a60.7,60.7,0,1,0,60.7,60.7A60.7,60.7,0,0,0,241.5,217Z" transform="translate(-35.19 -45.17)"/><path class="f96581e8-fa3c-4af0-98b8-49e52aaa9306" d="M350.12,248.23a96.4,96.4,0,0,0-50,13.88,60.58,60.58,0,0,1,2,15.52,82.93,82.93,0,0,1,109.73,123l-.1-10.4a32.88,32.88,0,0,0-33-35.4l-6.3.1a6.94,6.94,0,0,0-6.7,5.2l-5.1,18.8-2.1-3.7a7.05,7.05,0,0,0-6.1-3.5l-5.9.1a7.05,7.05,0,0,0-6.2,3.8l-1.1,2.1-4.8-17.8a7,7,0,0,0-7.4-5.2l-6.8.6a32.91,32.91,0,0,0-32,36.1l.1,9.3a82.79,82.79,0,0,1-21.3-55.5,83.84,83.84,0,0,1,1-13,60.15,60.15,0,0,1-14.69,5c-.21,2.63-.33,5.3-.33,8a97.21,97.21,0,0,0,47.6,83.6v25.6a7,7,0,0,0,3.6,6.1,6.82,6.82,0,0,0,7.1-.2l29.5-18.5c3,.3,6.1.4,9.2.4a97,97,0,0,0,0-194Zm.4,180.2c-3.7-.1-7.1-.3-10.4-.7a7.44,7.44,0,0,0-4.6,1l-20.8,13v-17a7,7,0,0,0-3.7-6.2,90.35,90.35,0,0,1-8.4-5.2l-.3-22.4v-.7a18.72,18.72,0,0,1,18.5-20.8h.6l1.2-.1,8,29.8a7,7,0,0,0,5.5,5.1,6.81,6.81,0,0,0,6.9-2.8l.6-.9,6.3-12.4,7.2,12.5a7.11,7.11,0,0,0,7,3.5A7.22,7.22,0,0,0,370,399l8.2-30h1a18.2,18.2,0,0,1,14,6.1,18.74,18.74,0,0,1,4.9,14.4v.7l.3,22.9A82.8,82.8,0,0,1,350.52,428.43Z" transform="translate(-35.19 -45.17)"/><path class="f96581e8-fa3c-4af0-98b8-49e52aaa9306" d="M326.22,349.13a31.55,31.55,0,0,0,22.3,9.1h.3a31.93,31.93,0,0,0,31.5-32.2l-.2-23.2a25.44,25.44,0,0,0-25.4-25.1h-.3l-26.5.3a11.78,11.78,0,0,0-11.7,11.8l.4,36.8A32.39,32.39,0,0,0,326.22,349.13Zm35-10.2a17.9,17.9,0,0,1-30.7-12.3l-.1-9.3c1.3-2.2,4.2-6.3,9.3-8a36.18,36.18,0,0,0,18.3,5.2,31.88,31.88,0,0,0,8-1l.1,12.7A16.36,16.36,0,0,1,361.22,338.93Zm-6.6-47.2h.1a11.3,11.3,0,0,1,10.6,7.4c-10.9,3.7-19.7-1.8-25.2-7.3Z" transform="translate(-35.19 -45.17)"/><path class="f96581e8-fa3c-4af0-98b8-49e52aaa9306" d="M134.7,515.23a49.55,49.55,0,0,0,49.5-49.5v-6.3a27.6,27.6,0,0,0,5.7.6,28.45,28.45,0,1,0,.1-56.9,28.2,28.2,0,0,0-13.7,3.5,49.49,49.49,0,0,0-90.8,22h0c-.1,1.2-.2,13.6-.2,37.1A49.4,49.4,0,0,0,134.7,515.23Zm35.6-81.7v7.9c-12.6-.2-24.2-4-33.2-11a159.36,159.36,0,0,1,31.8-6.8A35.88,35.88,0,0,1,170.3,433.53Zm19.7-16.4a14.5,14.5,0,0,1,0,29,13.88,13.88,0,0,1-5.7-1.2v-11.3a47.85,47.85,0,0,0-2.1-14.2A14.25,14.25,0,0,1,190,417.13ZM134.7,398a35.23,35.23,0,0,1,26.9,12.4c-19.8,2.8-43.7,10.1-62.3,22.1v-2.6A35.48,35.48,0,0,1,134.7,398Zm-35.4,51.7A104.43,104.43,0,0,1,122.4,436c12.2,12.3,29.1,19.2,47.9,19.4v10.3a35.5,35.5,0,0,1-71,0C99.2,461,99.2,455.33,99.3,449.73Z" transform="translate(-35.19 -45.17)"/><path class="f96581e8-fa3c-4af0-98b8-49e52aaa9306" d="M223.9,537.13a51,51,0,0,0-37.9-16.9H175.3a6.67,6.67,0,0,0-3.9,1.2l-35.5,24-33.2-23.9a6.68,6.68,0,0,0-4.1-1.3H86.4a51.26,51.26,0,0,0-51,56v60.5a6.88,6.88,0,0,0,2.1,5,7,7,0,0,0,4.9,2H179.74Zm-51.8.8-18.7,25.2-5.7-8.7Zm-48,16.3-5.8,8.9-20.8-28Zm98.9,21.7-40.8,53.8H49.5v-54.5a37.14,37.14,0,0,1,9.3-28.7,37.78,37.78,0,0,1,21-11.7l33.2,44.7a7.1,7.1,0,0,0,5.8,2.8,7,7,0,0,0,5.6-3.2l11.3-17.3,11.3,17.3a7.28,7.28,0,0,0,5.6,3.2,6.85,6.85,0,0,0,5.8-2.8l33.3-44.8a37.71,37.71,0,0,1,21.8,11.8" transform="translate(-35.19 -45.17)"/></svg>