<svg id="aa763eb1-b518-485f-a8b4-39a3c6a74a27" data-name="Layer 1" xmlns="http://www.w3.org/2000/svg" viewBox="0 0 575.38 609.67"><defs><style>.b515693b-1e44-4a05-9228-e6f0f6376567{fill:#f58538;}.af5d724d-44c1-4a57-92bd-8474d9a70003{fill:#f26722;}.bf40e1ed-7bf9-44c9-97d4-c66fbfa98df8{fill:#f16823;}</style></defs><path class="b515693b-1e44-4a05-9228-e6f0f6376567" d="M556.22,121.4V368.15H597v73H556.22v85.35h-94V441.12H423l-2-28.7-119.07-5L299.57,383,462.22,122v-.61Zm-94,246.75V243.54l-1.86-.62L383.68,368.15Z" transform="translate(-21.65 -121.4)"/><path class="af5d724d-44c1-4a57-92bd-8474d9a70003" d="M166.2,731.07h170a7.15,7.15,0,0,0,6.4-4.1l50-110a7,7,0,0,0-.5-6.7,6.71,6.71,0,0,0-5.8-3.2H254.2l-14.6.1H216.2a7.15,7.15,0,0,0-6.4,4.1l-48.1,105.9Zm165.6-14H177.2l43.6-96H375.4Z" transform="translate(-21.65 -121.4)"/><path class="af5d724d-44c1-4a57-92bd-8474d9a70003" d="M247.09,370.58a7.06,7.06,0,0,0-9.9,0l-7.5,7.5-7.5-7.5a7,7,0,1,0-9.9,9.9l7.5,7.5-7.5,7.5a7.06,7.06,0,0,0,0,9.9,6.88,6.88,0,0,0,4.9,2,7.14,7.14,0,0,0,4.9-2l7.5-7.5,7.5,7.5a7.13,7.13,0,0,0,9.9,0,7.06,7.06,0,0,0,0-9.9l-7.5-7.5,7.5-7.5A7,7,0,0,0,247.09,370.58Z" transform="translate(-21.65 -121.4)"/><path class="bf40e1ed-7bf9-44c9-97d4-c66fbfa98df8" d="M230.16,340a47.7,47.7,0,1,1-47.69,47.69A47.74,47.74,0,0,1,230.16,340m0-13a60.7,60.7,0,1,0,60.69,60.69A60.69,60.69,0,0,0,230.16,327Z" transform="translate(-21.65 -121.4)"/><path class="af5d724d-44c1-4a57-92bd-8474d9a70003" d="M121.17,602.57a49.55,49.55,0,0,0,49.5-49.5v-6.3a27.6,27.6,0,0,0,5.7.6,28.45,28.45,0,1,0,.1-56.9,28.2,28.2,0,0,0-13.7,3.5A49.49,49.49,0,0,0,72,516h0c-.1,1.2-.2,13.6-.2,37.1A49.4,49.4,0,0,0,121.17,602.57Zm35.6-81.7v7.9c-12.6-.2-24.2-4-33.2-11a159.36,159.36,0,0,1,31.8-6.8A35.88,35.88,0,0,1,156.77,520.87Zm19.7-16.4a14.5,14.5,0,1,1,0,29,13.88,13.88,0,0,1-5.7-1.2V521a47.85,47.85,0,0,0-2.1-14.2A14.25,14.25,0,0,1,176.47,504.47Zm-55.3-19.1a35.23,35.23,0,0,1,26.9,12.4c-19.8,2.8-43.7,10.1-62.3,22.1v-2.6A35.48,35.48,0,0,1,121.17,485.37Zm-35.4,51.7a104.43,104.43,0,0,1,23.1-13.7c12.2,12.3,29.1,19.2,47.9,19.4v10.3a35.5,35.5,0,0,1-71,0C85.67,548.37,85.67,542.67,85.77,537.07Z" transform="translate(-21.65 -121.4)"/><path class="af5d724d-44c1-4a57-92bd-8474d9a70003" d="M210.37,624.47a51,51,0,0,0-37.9-16.9h-10.7a6.67,6.67,0,0,0-3.9,1.2l-35.5,24-33.2-23.9a6.68,6.68,0,0,0-4.1-1.3H72.87a51.26,51.26,0,0,0-51,56v60.5a6.88,6.88,0,0,0,2.1,5,7,7,0,0,0,4.9,2H166.2Zm-51.8.8-18.7,25.2-5.7-8.7Zm-48,16.3-5.8,8.9-20.8-28Zm98.9,21.7-40.8,53.8H36v-54.5a37.14,37.14,0,0,1,9.3-28.7,37.78,37.78,0,0,1,21-11.7l33.2,44.7a7.1,7.1,0,0,0,5.8,2.8,7,7,0,0,0,5.6-3.2l11.3-17.3,11.3,17.3a7.28,7.28,0,0,0,5.6,3.2,6.85,6.85,0,0,0,5.8-2.8l33.3-44.8a37.71,37.71,0,0,1,21.8,11.8" transform="translate(-21.65 -121.4)"/><path class="af5d724d-44c1-4a57-92bd-8474d9a70003" d="M421,412.42a29,29,0,0,0-20.2-8.5l-16.5-.4-95-2a60.28,60.28,0,0,1-5.1,13.89l100,2.16,16.5.4a15.68,15.68,0,0,1,10.6,4.4,13.35,13.35,0,0,1,4,9.9l-1.3,62.1a13.63,13.63,0,0,1-4.5,9.7,16.21,16.21,0,0,1-10.8,4l-56.3-1.1a7.4,7.4,0,0,0-3.6.9l-37.1,21,.2-15.9a7,7,0,0,0-6.8-7.1l-33.2-.7c-8.2-.2-14.8-6.6-14.6-14.3l.87-45.17a60.09,60.09,0,0,1-14.08,2.58l-.89,42.09c-.4,15.4,12.3,28.3,28.3,28.6l26.3.6-.3,21.2a7.18,7.18,0,0,0,3.4,6.1,6.53,6.53,0,0,0,3.6,1,6.65,6.65,0,0,0,3.4-.9l46.1-26,54.4,1a28.86,28.86,0,0,0,20.5-7.6,27,27,0,0,0,9-19.7l1.3-62.1A27,27,0,0,0,421,412.42Z" transform="translate(-21.65 -121.4)"/></svg>