<svg id="a149b69c-9b8e-4eb1-9a4e-fba0d890aa65" data-name="Layer 1" xmlns="http://www.w3.org/2000/svg" viewBox="0 0 692.24 576.75"><defs><style>.bf44fbec-78a5-44ce-8bb2-0930c19fe157{fill:#f58538;}.a7484613-c876-4e0a-8a9a-8ee64380a275{fill:#f26722;}.eb962e68-51ee-4c81-b98c-b89f860ff1c1{fill:#f16823;}</style></defs><path class="bf44fbec-78a5-44ce-8bb2-0930c19fe157" d="M719.38,72.57v72.67H558.28l-10.52,84.42q22.57-17,61.54-18.56Q669,209.87,701,245.43t32,101.73q0,59.37-37.41,97.86T592,483.52a184.63,184.63,0,0,1-50.24-6.65c-7.28-2.05-9.45-17-14.84-22.14-12.26-11.8-19.24-14.58-32.12-32.51-4.31-6-33.9-6.33-36.72-12.88a101.15,101.15,0,0,1-8-42.39l.62-1.86,91.84-5.56q0,24.42,13.29,38t36.8,13.6q23.49,0,34.94-17T639,347.78Q639,276,588.89,276q-35.57,0-46.38,28.14l-84.42-4.64,4.27-41.23,39.75-8.05L500,162.33l-26.74-9.19,8.34-80.57Z" transform="translate(-40.74 -72.57)"/><path class="a7484613-c876-4e0a-8a9a-8ee64380a275" d="M178.68,291a43.29,43.29,0,0,0,43.25-43.25v-5.5a24.86,24.86,0,1,0-6.9-46.14,43.24,43.24,0,0,0-79.33,19.22h0c-.09,1.05-.18,11.89-.18,32.42A43.16,43.16,0,0,0,178.68,291Zm31.11-71.38v6.9c-11-.18-21.15-3.5-29-9.61A138.78,138.78,0,0,1,208.56,211,31.17,31.17,0,0,1,209.79,219.6ZM227,205.27a12.67,12.67,0,1,1,0,25.33,12.08,12.08,0,0,1-5-1v-9.88a41.54,41.54,0,0,0-1.84-12.4A12.46,12.46,0,0,1,227,205.27Zm-48.32-16.69a30.79,30.79,0,0,1,23.51,10.83c-17.3,2.45-38.19,8.83-54.44,19.31v-2.27A31,31,0,0,1,178.68,188.58Zm-30.93,45.17a91.26,91.26,0,0,1,20.19-12c10.66,10.75,25.42,16.78,41.85,16.95v9a31,31,0,1,1-62,0C147.67,243.62,147.67,238.64,147.75,233.75Z" transform="translate(-40.74 -72.57)"/><path class="a7484613-c876-4e0a-8a9a-8ee64380a275" d="M177.93,143.28c-68.4,0-124.1,55.7-124.1,124.1s55.7,124.1,124.1,124.1S302,335.78,302,267.38,246.33,143.28,177.93,143.28Zm-90.8,186.2a109.13,109.13,0,0,1-19.3-62.2c0-60.6,49.4-110,110.1-110a110,110,0,0,1,90.8,172.2l-12.9,13.9v1.8a110,110,0,0,1-155.7,0v-1.8" transform="translate(-40.74 -72.57)"/><path class="a7484613-c876-4e0a-8a9a-8ee64380a275" d="M255.83,343.38l11.45-12.33A44.69,44.69,0,0,0,223.51,295h-9.35a5.81,5.81,0,0,0-3.41,1.05l-31,21-29-20.89a5.85,5.85,0,0,0-3.58-1.13H136.48A44.74,44.74,0,0,0,92,334.72l8.1,8.66v1.8q2,2,4.11,3.9v-6A32.42,32.42,0,0,1,112.37,318a33.06,33.06,0,0,1,18.35-10.23l29,39.06a6.25,6.25,0,0,0,5.07,2.45,6.08,6.08,0,0,0,4.89-2.8l9.88-15.11,9.87,15.11a6.37,6.37,0,0,0,4.89,2.8,6,6,0,0,0,5.07-2.45l29.1-39.14a32.88,32.88,0,0,1,19,10.31,31.92,31.92,0,0,1,8.3,25.07Zm-91.48-10.9L146.18,308l23.24,16.68Zm30.67,0-5-7.6,21.32-14.42Z" transform="translate(-40.74 -72.57)"/><path class="a7484613-c876-4e0a-8a9a-8ee64380a275" d="M434.33,401.13c-68.4,0-124.1,55.7-124.1,124.1s55.7,124.1,124.1,124.1,124.1-55.7,124.1-124.1S502.73,401.13,434.33,401.13ZM356.53,603v-1.8a33,33,0,0,1,32.8-36.3h5.8l12.6,39.4a6.86,6.86,0,0,0,6,4.8,7.1,7.1,0,0,0,6.2-2.7l12.6-15.8h2.6l13.9,16.1a6.79,6.79,0,0,0,5.3,2.4,5.7,5.7,0,0,0,1.3-.1,6.92,6.92,0,0,0,5.3-4.6l13.8-39.5h4.7a33.27,33.27,0,0,1,24.5,10.9,32.91,32.91,0,0,1,8.3,25.4V603a110,110,0,0,1-155.7,0Zm74.4-36.9h5.5l-2.8,8.8Zm94.2,21.2a46.91,46.91,0,0,0-45.7-36.5h-9.7a7,7,0,0,0-6.6,4.7l-11.4,32.8-5.5-6.3,6.5-20.9a6.88,6.88,0,0,0-1-6.2,7,7,0,0,0-5.6-2.9h-24.6a7,7,0,0,0-5.6,2.9,6.88,6.88,0,0,0-1,6.2l6.6,21-4.3,5.4L407,555.73a7,7,0,0,0-6.7-4.9h-11a46.91,46.91,0,0,0-45.8,36.5,109.13,109.13,0,0,1-19.3-62.2c0-60.6,49.4-110,110.1-110a110,110,0,0,1,90.8,172.2Z" transform="translate(-40.74 -72.57)"/><path class="a7484613-c876-4e0a-8a9a-8ee64380a275" d="M442.93,431.23h-41.1a14.4,14.4,0,0,0-14.4,14.4v57a45.5,45.5,0,0,0,91,0v-35.9A35.51,35.51,0,0,0,442.93,431.23Zm21.3,32.8c-24.4,8.7-43-7.5-52.5-18.8h31.2A21.42,21.42,0,0,1,464.23,464Zm-50.7,2.4a31.08,31.08,0,0,1-12,10.6v-22.3A96,96,0,0,0,413.53,466.43Zm19.4,67.7a31.56,31.56,0,0,1-31.5-31.5v-10.7c12-3.6,19.5-11.8,23.7-17.8a53.6,53.6,0,0,0,25.2,6.4,57,57,0,0,0,14.1-1.9v24A31.56,31.56,0,0,1,432.93,534.13Z" transform="translate(-40.74 -72.57)"/><path class="a7484613-c876-4e0a-8a9a-8ee64380a275" d="M342.49,262.83l26.3.6-.3,21.2a7.18,7.18,0,0,0,3.4,6.1,6.53,6.53,0,0,0,3.6,1,6.65,6.65,0,0,0,3.4-.9l46.1-26,54.4,1a28.86,28.86,0,0,0,20.5-7.6,27,27,0,0,0,9-19.7l1.3-62.1a27,27,0,0,0-8.2-20.1,29,29,0,0,0-20.2-8.5l-16.5-.4-120.2-2.6c-15.9-.4-29.2,11.9-29.6,27.3h0l-1.3,62.1C313.79,249.63,326.49,262.53,342.49,262.83Zm-13-90.4c.2-7.7,7-13.8,15.3-13.6l120.4,2.6,16.5.4a15.68,15.68,0,0,1,10.6,4.4,13.35,13.35,0,0,1,4,9.9l-1.3,62.1a13.63,13.63,0,0,1-4.5,9.7,16.21,16.21,0,0,1-10.8,4l-56.3-1.1a7.4,7.4,0,0,0-3.6.9l-37.1,21,.2-15.9a7,7,0,0,0-6.8-7.1l-33.2-.7c-8.2-.2-14.8-6.6-14.6-14.3Z" transform="translate(-40.74 -72.57)"/><path class="a7484613-c876-4e0a-8a9a-8ee64380a275" d="M118.37,452.93a7.06,7.06,0,0,0-9.9,0l-7.5,7.5-7.5-7.5a7,7,0,0,0-9.9,9.9l7.5,7.5-7.5,7.5a7.06,7.06,0,0,0,0,9.9,6.88,6.88,0,0,0,4.9,2,7.14,7.14,0,0,0,4.9-2l7.5-7.5,7.5,7.5a7.13,7.13,0,0,0,9.9,0,7.06,7.06,0,0,0,0-9.9l-7.5-7.5,7.5-7.5A7,7,0,0,0,118.37,452.93Z" transform="translate(-40.74 -72.57)"/><path class="eb962e68-51ee-4c81-b98c-b89f860ff1c1" d="M101.43,422.33A47.7,47.7,0,1,1,53.74,470a47.76,47.76,0,0,1,47.69-47.7m0-13a60.7,60.7,0,1,0,60.7,60.7,60.7,60.7,0,0,0-60.7-60.7Z" transform="translate(-40.74 -72.57)"/><path class="a7484613-c876-4e0a-8a9a-8ee64380a275" d="M289.89,479.73a27.37,27.37,0,0,0-8.8-19.8,29.29,29.29,0,0,0-20.2-7.9h-.3l-101,.75a60.86,60.86,0,0,1,2.41,14l98.85-.74h.1a15.6,15.6,0,0,1,10.6,4.1,13.21,13.21,0,0,1,4.3,9.7l.5,62.1a13.55,13.55,0,0,1-4.2,9.8,15.38,15.38,0,0,1-10.7,4.3l-33.2.3a7,7,0,0,0-6.9,7v15.9l-36.8-21.5a7.42,7.42,0,0,0-3.5-1l-56.5.4h-.1a15.6,15.6,0,0,1-10.6-4.1,13.21,13.21,0,0,1-4.3-9.7l-.1-13.16a61.17,61.17,0,0,1-8.06.55c-2.07,0-4.12-.11-6.14-.31l.1,12.92a27.37,27.37,0,0,0,8.8,19.8,29.05,29.05,0,0,0,20.4,7.9l54.4-.3,45.7,26.7a7.42,7.42,0,0,0,3.5,1,7.3,7.3,0,0,0,3.5-.9,6.93,6.93,0,0,0,3.5-6.1v-21.2l26.3-.2a29.27,29.27,0,0,0,20.3-8.3,27,27,0,0,0,8.4-20Z" transform="translate(-40.74 -72.57)"/></svg>