<svg id="a42979e6-952d-4a85-adc7-4d1e4ab9d4a3" data-name="Layer 1" xmlns="http://www.w3.org/2000/svg" viewBox="0 0 559.49 604.43"><defs><style>.bd2c28a1-ea6f-4b5e-88e0-b2da1afcb5c0{fill:#f58538;}.bdbcd35b-c8a1-46f0-a1d5-47897b2f75ca{fill:#f26722;}</style></defs><path class="bd2c28a1-ea6f-4b5e-88e0-b2da1afcb5c0" d="M382.85,495.78,372.33,493l11.15-7.2,6.11-10.1v-12.4l-7.67-8.35-15.17-4.35-15.67,4.35-1.8-8.79-16.6-10.79-18.94-5.07-17.4,7.4-18.63,14.18Q237.36,408,237.36,332.52V250.88h-.93q0-79.45,46.38-125.69T404.65,79q23.81,0,42.2,3.86T488.75,96L473.29,164.3q-39.59-11.75-67.72-11.75-34.32,0-53.95,23.81t-19,68.34l.93,1.54q26.58-29.69,79.62-29.68t83.64,38.34q30.62,38.36,30.61,100T487.51,456.2q-39.88,39.58-104.66,39.58M419,403.63q13.46-19.77,13.45-49.31T419.8,306.54q-12.69-18.24-33.71-18.24-38,0-55.66,20.1v24.12q0,43.91,14.23,67.4t39.89,23.5Q405.57,423.42,419,403.63Z" transform="translate(-26.25 -78.96)"/><path class="bdbcd35b-c8a1-46f0-a1d5-47897b2f75ca" d="M358.71,683.39h170a7.15,7.15,0,0,0,6.4-4.1l50-110a7,7,0,0,0-.5-6.7,6.71,6.71,0,0,0-5.8-3.2H446.71l-14.6.1h-23.4a7.15,7.15,0,0,0-6.4,4.1l-48.1,105.9Zm165.6-14H369.71l43.6-96h154.6Z" transform="translate(-26.25 -78.96)"/><path class="bdbcd35b-c8a1-46f0-a1d5-47897b2f75ca" d="M313.68,554.89a49.55,49.55,0,0,0,49.5-49.5v-6.3a27.6,27.6,0,0,0,5.7.6,28.45,28.45,0,1,0,.1-56.9,28.2,28.2,0,0,0-13.7,3.5,49.49,49.49,0,0,0-90.8,22h0c-.1,1.2-.2,13.6-.2,37.1A49.4,49.4,0,0,0,313.68,554.89Zm35.6-81.7v7.9c-12.6-.2-24.2-4-33.2-11a159.36,159.36,0,0,1,31.8-6.8A35.88,35.88,0,0,1,349.28,473.19Zm19.7-16.4a14.5,14.5,0,0,1,0,29,13.88,13.88,0,0,1-5.7-1.2v-11.3a47.85,47.85,0,0,0-2.1-14.2A14.25,14.25,0,0,1,369,456.79Zm-55.3-19.1a35.23,35.23,0,0,1,26.9,12.4c-19.8,2.8-43.7,10.1-62.3,22.1v-2.6A35.48,35.48,0,0,1,313.68,437.69Zm-35.4,51.7a104.43,104.43,0,0,1,23.1-13.7c12.2,12.3,29.1,19.2,47.9,19.4v10.3a35.5,35.5,0,0,1-71,0C278.18,500.69,278.18,495,278.28,489.39Z" transform="translate(-26.25 -78.96)"/><path class="bdbcd35b-c8a1-46f0-a1d5-47897b2f75ca" d="M402.88,576.79a51,51,0,0,0-37.9-16.9h-10.7a6.67,6.67,0,0,0-3.9,1.2l-35.5,24-33.2-23.9a6.68,6.68,0,0,0-4.1-1.3h-12.2a51.26,51.26,0,0,0-51,56v60.5a6.88,6.88,0,0,0,2.1,5,7,7,0,0,0,4.9,2H358.71Zm-51.8.8-18.7,25.2-5.7-8.7Zm-48,16.3-5.8,8.9-20.8-28Zm98.9,21.7-40.8,53.8H228.48v-54.5a37.14,37.14,0,0,1,9.3-28.7,37.78,37.78,0,0,1,21-11.7l33.2,44.7a7.1,7.1,0,0,0,5.8,2.8,7,7,0,0,0,5.6-3.2l11.3-17.3,11.3,17.3a7.28,7.28,0,0,0,5.6,3.2,6.85,6.85,0,0,0,5.8-2.8l33.3-44.8a37.71,37.71,0,0,1,21.8,11.8" transform="translate(-26.25 -78.96)"/><path class="bdbcd35b-c8a1-46f0-a1d5-47897b2f75ca" d="M177.07,559.79h-10.7a7.15,7.15,0,0,0-6.4,4.1l-7.9,17.1h0a26.92,26.92,0,0,1-24.3,15.5,26.59,26.59,0,0,1-24.7-16.5.1.1,0,0,0-.1-.1l-7-15.8a7,7,0,0,0-6.4-4.2H77.47a51.26,51.26,0,0,0-51,56v60.5a6.88,6.88,0,0,0,2.1,5,7,7,0,0,0,5,2h187.5a7,7,0,0,0,7-7v-60.5a51.41,51.41,0,0,0-51-56.1Zm37,55v54.5H40.57v-54.5a37.25,37.25,0,0,1,37-41h7.5l5.1,11.6a40.76,40.76,0,0,0,74.6,1.5h0l6.1-13.1h6.3a37.2,37.2,0,0,1,27.6,12.3A37.91,37.91,0,0,1,214.07,614.79Z" transform="translate(-26.25 -78.96)"/><path class="bdbcd35b-c8a1-46f0-a1d5-47897b2f75ca" d="M100.47,430.79a49.24,49.24,0,0,0-24,37.7h0c-.1,1.2-.2,13.6-.2,37.1a49.5,49.5,0,1,0,99,0v-32.2a49.43,49.43,0,0,0-23.8-42.3,28.12,28.12,0,0,0,3.1-12.8,28.45,28.45,0,1,0-56.9.1A29.22,29.22,0,0,0,100.47,430.79Zm11.6,47.6A55.74,55.74,0,0,1,90.17,493c0-10.7.1-21.6.2-23.2a37,37,0,0,1,1.6-7.5A86.09,86.09,0,0,0,112.07,478.39Zm13.7,62.8a35.62,35.62,0,0,1-35.5-33.6c8.1-2.2,22.1-7.9,35-22.9a125.8,125.8,0,0,0,36.1,8.2v12.7A35.68,35.68,0,0,1,125.77,541.19Zm35.5-67.7v5.4c-38-3.6-55.8-21.5-61.8-29.4a35.27,35.27,0,0,1,26.3-11.6A35.66,35.66,0,0,1,161.27,473.49Zm-35.2-69.6a14.51,14.51,0,0,1,14.5,14.5,14.3,14.3,0,0,1-2,7.3,49.68,49.68,0,0,0-25-.2,14.79,14.79,0,0,1-1.9-7.1A14.49,14.49,0,0,1,126.07,403.89Z" transform="translate(-26.25 -78.96)"/></svg>