<svg id="f7073dfd-fb0d-457f-9a8c-9974e3d65fd9" data-name="Layer 1" xmlns="http://www.w3.org/2000/svg" viewBox="0 0 657.33 585.03"><defs><style>.fd23e00b-3f3b-4325-9e72-e3ffc6ea30be{fill:#f58538;}.a721f2a5-a17c-4548-92d1-dd16d0e74e23{fill:#f16823;}</style></defs><path class="fd23e00b-3f3b-4325-9e72-e3ffc6ea30be" d="M434.54,341.72q0-31.85,17.47-56.74t48.7-38.81q-27.82-13.9-42.82-36.95t-15-52.72q0-54.1,35.87-84.11t96.94-30q61.06,0,96.94,30t35.87,84.11q0,29.69-15,52.72T651,246.17q31.23,13.92,48.55,38.81t17.31,56.74q0,56.28-38.18,86.89T576,459.22q-48.36,0-82.1-17.39l-1.4-30.24L485.87,396l-10.3-11.52-6.78-12.43,2.26-20.33-9-7.49-14.68-2.68-12.79.17m94.31-7.27q0,24.29,12.68,38.34t34.32,14.07q21.64,0,34.48-14.07t12.83-38.34q0-24.27-13-38.19T575.7,282.35q-21.5,0-34.17,13.91T528.85,334.45ZM547.25,197q10.05,13,28.91,13t28.76-12.83q9.89-12.82,9.89-35.25t-10-34.79q-10.05-12.36-28.91-12.36T547.1,127q-9.9,12.22-9.9,34.63T547.25,197Z" transform="translate(-59.52 -42.4)"/><path class="a721f2a5-a17c-4548-92d1-dd16d0e74e23" d="M332.63,195.23h-31.4a7,7,0,0,0,0,14h31.4a7,7,0,0,0,0-14Z" transform="translate(-59.52 -42.4)"/><path class="a721f2a5-a17c-4548-92d1-dd16d0e74e23" d="M332.63,243.73h-97a7,7,0,1,0,0,14h97a7,7,0,0,0,0-14Z" transform="translate(-59.52 -42.4)"/><path class="a721f2a5-a17c-4548-92d1-dd16d0e74e23" d="M332.63,218.13h-97a7,7,0,0,0,0,14h97a7,7,0,0,0,0-14Z" transform="translate(-59.52 -42.4)"/><path class="a721f2a5-a17c-4548-92d1-dd16d0e74e23" d="M360.53,165H259.8a60.57,60.57,0,0,1-5.06,14h98.79l.1,96.7h-87.2a7.32,7.32,0,0,0-3.4,0h-19.1a6.68,6.68,0,0,0-4.1,1.3l-25.2,18V210.59a60.89,60.89,0,0,1-14,1.64v96.5a7.05,7.05,0,0,0,3.8,6.2,7.22,7.22,0,0,0,3.2.8,6.68,6.68,0,0,0,4.1-1.3l34.4-24.7h11.6v21.5a7,7,0,0,0,7,7h114.4l34.4,24.7a6.89,6.89,0,0,0,4.1,1.3,7.22,7.22,0,0,0,3.2-.8,7.05,7.05,0,0,0,3.8-6.2V200.53a7,7,0,0,0-7-7h-50.1V172a7,7,0,0,0-7-7Zm-88.9,139.2v-14.5h88.9a7,7,0,0,0,7-7v-75.2h43.1l.1,116-25.2-18a7.39,7.39,0,0,0-4.1-1.3Z" transform="translate(-59.52 -42.4)"/><path class="a721f2a5-a17c-4548-92d1-dd16d0e74e23" d="M159.13,368.13a49.35,49.35,0,0,0-49.3,44.6c-.1,1.2-.2,13.6-.2,37.1a49.45,49.45,0,1,0,98.9,0v-6.3a27.6,27.6,0,0,0,5.7.6,28.45,28.45,0,1,0,.1-56.9,28.2,28.2,0,0,0-13.7,3.5,49.49,49.49,0,0,0-41.5-22.6Zm-35.5,48.5V414a35.52,35.52,0,0,1,62.3-19.5c-19.8,2.8-43.7,10.1-62.3,22.1Zm90.7,13.6a13.88,13.88,0,0,1-5.7-1.2v-11.3a47.85,47.85,0,0,0-2.1-14.2,14.25,14.25,0,0,1,7.8-2.3,14.5,14.5,0,1,1,0,29Zm-19.7-4.7c-12.6-.2-24.2-4-33.2-11a159.36,159.36,0,0,1,31.8-6.8,35.88,35.88,0,0,1,1.4,9.9v7.9Zm-35.5,59.8a35.51,35.51,0,0,1-35.5-35.5c-.1-4.7-.1-10.4,0-16a104.43,104.43,0,0,1,23.1-13.7c12.2,12.3,29.1,19.2,47.9,19.4v10.3a35.51,35.51,0,0,1-35.5,35.5Z" transform="translate(-59.52 -42.4)"/><path class="a721f2a5-a17c-4548-92d1-dd16d0e74e23" d="M210.33,503.93h-10.7a6.67,6.67,0,0,0-3.9,1.2l-35.5,24L127,505.23a6.68,6.68,0,0,0-4.1-1.3h-12.2a51.26,51.26,0,0,0-51,56v60.5a6.88,6.88,0,0,0,2.1,5,7,7,0,0,0,4.9,2h187.5a7,7,0,0,0,7-7v-60.5a51.26,51.26,0,0,0-50.9-56ZM177.22,566a6.84,6.84,0,0,0,5.51-2.8l33.3-44.8a37.71,37.71,0,0,1,21.8,11.8,36.54,36.54,0,0,1,9.5,28.7v54.5H73.83v-54.5a37.14,37.14,0,0,1,9.3-28.7,37.78,37.78,0,0,1,21-11.7l33.2,44.7a7.16,7.16,0,0,0,5.53,2.8h.27a7,7,0,0,0,5.6-3.2l11.3-17.3,11.3,17.3a7.28,7.28,0,0,0,5.6,3.2Zm-34.59-19.2-20.8-28,26.6,19.1-5.8,8.9Zm35.1,0-5.7-8.7,24.4-16.5-18.7,25.2Z" transform="translate(-59.52 -42.4)"/><path class="a721f2a5-a17c-4548-92d1-dd16d0e74e23" d="M226,130.08a7.24,7.24,0,0,0-4.82,1.87l-26.8,24.5-12.1-13.1a7,7,0,0,0-5.17-2.23,6.93,6.93,0,0,0-4.73,1.83,7.07,7.07,0,0,0-.4,9.9L189,171a7.09,7.09,0,0,0,5.1,2.3,6.92,6.92,0,0,0,4.7-1.8l31.9-29.2a7,7,0,0,0,.4-9.9,6.76,6.76,0,0,0-5.08-2.27Z" transform="translate(-59.52 -42.4)"/><path class="a721f2a5-a17c-4548-92d1-dd16d0e74e23" d="M200.63,104a47.7,47.7,0,1,1-47.69,47.7A47.76,47.76,0,0,1,200.63,104m0-13a60.7,60.7,0,1,0,60.7,60.7A60.7,60.7,0,0,0,200.63,91Z" transform="translate(-59.52 -42.4)"/><path class="a721f2a5-a17c-4548-92d1-dd16d0e74e23" d="M501.57,503.23h-10.7a7.15,7.15,0,0,0-6.4,4.1l-7.9,17.1a26.92,26.92,0,0,1-24.3,15.5,26.59,26.59,0,0,1-24.7-16.5.1.1,0,0,0-.1-.1l-7-15.8a7,7,0,0,0-6.4-4.2H402a51.26,51.26,0,0,0-51,56v60.5a6.88,6.88,0,0,0,2.1,5,7,7,0,0,0,5,2h187.5a7,7,0,0,0,7-7v-60.5a51.41,51.41,0,0,0-51-56.1Zm-49.3,50.7a41.05,41.05,0,0,0,37-23.6l6.1-13.1h6.3a37.2,37.2,0,0,1,27.6,12.3,37.91,37.91,0,0,1,9.3,28.7v54.5H365.07v-54.5a37.25,37.25,0,0,1,37-41h7.5l5.1,11.6a40.75,40.75,0,0,0,37.6,25.1Z" transform="translate(-59.52 -42.4)"/><path class="a721f2a5-a17c-4548-92d1-dd16d0e74e23" d="M450.57,333.23a28.55,28.55,0,0,0-28.4,28.6,29.22,29.22,0,0,0,2.8,12.4,49.24,49.24,0,0,0-24,37.7c-.1,1.2-.2,13.6-.2,37.1a49.5,49.5,0,0,0,99,0v-32.2a49.43,49.43,0,0,0-23.8-42.3,28.12,28.12,0,0,0,3.1-12.8,28.55,28.55,0,0,0-28.5-28.5Zm-12.5,35.7a14.79,14.79,0,0,1-1.9-7.1,14.45,14.45,0,1,1,28.9,0,14.3,14.3,0,0,1-2,7.3,49.68,49.68,0,0,0-25-.2Zm47.7,53.4c-38-3.6-55.8-21.5-61.8-29.4a35.27,35.27,0,0,1,26.3-11.6,35.66,35.66,0,0,1,35.5,35.6v5.4Zm-71.1,14.1c0-10.7.1-21.6.2-23.2a37,37,0,0,1,1.6-7.5,86.09,86.09,0,0,0,20.1,16.1,55.74,55.74,0,0,1-21.9,14.6Zm35.6,48.2a35.62,35.62,0,0,1-35.5-33.6c8.1-2.2,22.1-7.9,35-22.9a125.8,125.8,0,0,0,36.1,8.2V449a35.68,35.68,0,0,1-35.6,35.6Z" transform="translate(-59.52 -42.4)"/></svg>