<svg id="e4c76023-a852-484f-80c8-20e967ad8c20" data-name="Layer 1" xmlns="http://www.w3.org/2000/svg" viewBox="0 0 659.36 614.63"><defs><style>.b707bd56-0e3a-44a2-ab92-d6b23f992283{fill:#f58538;}.bed6fea0-17cd-4a0e-9a48-696aea0ec116{fill:#f16823;}</style></defs><path class="b707bd56-0e3a-44a2-ab92-d6b23f992283" d="M590.24,389.24q28.75,0,46.69-20.41t17.93-55.66V295.54Q627.34,329.26,585,329.25q-55.66,0-86.89-37.26-21.15-25.23-28-62.45s7.82-22,7.82-35.63c0-7-10.7-16.45-10-23.08q5.52-49.8,38.63-84.47,39.74-41.58,101.89-41.59T709.75,89.45q39.11,44.68,39.11,121.06V307q0,69.57-44.52,112.09t-114.1,42.51a216.31,216.31,0,0,1-54.73-7.1c-10.44-2.73,10.27-6,6.8-44.12l-28.45-33.5h.31q5,1.65,10,3.08A238.47,238.47,0,0,0,590.24,389.24ZM560.55,189.48h.31q0,34.34,11.29,53.19t33.24,18.86q31.53,0,49.16-21V198.76q0-39-12.83-60.3t-34-21.33q-21.19,0-34.17,21.33T560.55,189.48Z" transform="translate(-89.5 -44.77)"/><path class="bed6fea0-17cd-4a0e-9a48-696aea0ec116" d="M439.81,424.68l2.9-14.2-34.5-6.9c.1-2.1.2-4.2.2-6.3a122.19,122.19,0,0,0-42.8-92.9l39.8-56.2-11.5-8L354.41,296a121.33,121.33,0,0,0-68.2-20.9c-3.5,0-7,.2-10.5.5-.8-1-1.6-2-2.4-2.9a44.92,44.92,0,0,0-33.3-14.8h-19.3A7,7,0,0,0,214,263l-10,35.2-5.4-9.7,6.4-20.4a6.88,6.88,0,0,0-1-6.2,7,7,0,0,0-5.6-2.9h-23.3a7,7,0,0,0-5.6,2.9,6.88,6.88,0,0,0-1,6.2l6.4,20.5-4.3,8.3-8.8-33.8a7,7,0,0,0-6.8-5.2h-20.6A44.92,44.92,0,0,0,89.71,307v111.8a27,27,0,0,0,27.1,27.1h.3a27,27,0,0,0,14.5-4.5l5,169.1a28.8,28.8,0,0,0,50.6,17.8,28.8,28.8,0,0,0,50.6-17.8l3-99.6a122.09,122.09,0,0,0,45.3,8.7,120.58,120.58,0,0,0,58.5-15l39.2,58,11.4-8.1-38.7-57.2a122.15,122.15,0,0,0,50.1-79.6l33.2,6.6v1.3m-22.5,137.5M188.71,273l-2.1,6.8-2.1-6.8ZM130,418.18a13.46,13.46,0,0,1-13,13.7h-.2a13.43,13.43,0,0,1-9.3-3.8,13,13,0,0,1-3.8-9.3V305.88a30.9,30.9,0,0,1,30.7-34h15l12,46.2a7.05,7.05,0,0,0,5.3,5.1,6.78,6.78,0,0,0,6.9-2.5,4.73,4.73,0,0,0,.7-1.2l12-23.2h.3l13.1,23.4a6.8,6.8,0,0,0,6.9,3.5,7,7,0,0,0,5.9-5l13.2-46.4h13.9a30.9,30.9,0,0,1,30.7,34v112.9a13.14,13.14,0,0,1-13.1,13.1,13.43,13.43,0,0,1-9.3-3.8,13.1,13.1,0,0,1-3.9-9.3v-24.4l.1-3.9a7.57,7.57,0,0,0-.1-1.5v-45.3a7,7,0,1,0-14,0V394l-.2,8.4h-85.4L144,390c0-.4-.1-.7-.1-1v-45.3a7,7,0,0,0-14,0v74.5ZM223.91,610a14.8,14.8,0,0,1-29.6-.5V444.58a7,7,0,0,0-14,0v164.9a14.81,14.81,0,0,1-29.6.6l-5.8-193.6h84.8Zm62.2-104.4a107.46,107.46,0,0,1-44.8-9.7l1.6-54.2a26.48,26.48,0,0,0,14.6,4.2,27.12,27.12,0,0,0,27.1-27.1V306.88a43.94,43.94,0,0,0-1.9-17.7c1.1,0,2.3-.1,3.4-.1a108.25,108.25,0,0,1,0,216.5Z" transform="translate(-89.5 -44.77)"/><path class="bed6fea0-17cd-4a0e-9a48-696aea0ec116" d="M442,186.69a7.06,7.06,0,0,0-9.9,0l-7.5,7.5-7.5-7.5a7,7,0,1,0-9.9,9.9l7.5,7.5-7.5,7.5a7.06,7.06,0,0,0,0,9.9,6.88,6.88,0,0,0,4.9,2,7.14,7.14,0,0,0,4.9-2l7.5-7.5,7.5,7.5a7.13,7.13,0,0,0,9.9,0,7.06,7.06,0,0,0,0-9.9l-7.5-7.5,7.5-7.5A7,7,0,0,0,442,186.69Z" transform="translate(-89.5 -44.77)"/><path class="bed6fea0-17cd-4a0e-9a48-696aea0ec116" d="M425,156.09a47.7,47.7,0,1,1-47.69,47.69A47.75,47.75,0,0,1,425,156.09m0-13a60.7,60.7,0,1,0,60.69,60.69A60.69,60.69,0,0,0,425,143.09Z" transform="translate(-89.5 -44.77)"/><path class="bed6fea0-17cd-4a0e-9a48-696aea0ec116" d="M506.79,407.76a7.06,7.06,0,0,0-9.9,0l-7.5,7.5-7.5-7.5a7,7,0,0,0-9.9,9.9l7.5,7.5-7.5,7.5a7.06,7.06,0,0,0,0,9.9,6.88,6.88,0,0,0,4.9,2,7.14,7.14,0,0,0,4.9-2l7.5-7.5,7.5,7.5a7.13,7.13,0,0,0,9.9,0,7.06,7.06,0,0,0,0-9.9l-7.5-7.5,7.5-7.5A7,7,0,0,0,506.79,407.76Z" transform="translate(-89.5 -44.77)"/><path class="bed6fea0-17cd-4a0e-9a48-696aea0ec116" d="M489.86,377.16a47.69,47.69,0,1,1-47.69,47.69,47.74,47.74,0,0,1,47.69-47.69m0-13a60.69,60.69,0,1,0,60.69,60.69,60.69,60.69,0,0,0-60.69-60.69Z" transform="translate(-89.5 -44.77)"/><path class="bed6fea0-17cd-4a0e-9a48-696aea0ec116" d="M432,581.62a7.06,7.06,0,0,0-9.9,0l-7.5,7.5-7.5-7.5a7,7,0,1,0-9.9,9.9l7.5,7.5-7.5,7.5a7.06,7.06,0,0,0,0,9.9,6.88,6.88,0,0,0,4.9,2,7.14,7.14,0,0,0,4.9-2l7.5-7.5,7.5,7.5a7.13,7.13,0,0,0,9.9,0,7.06,7.06,0,0,0,0-9.9l-7.5-7.5,7.5-7.5A7,7,0,0,0,432,581.62Z" transform="translate(-89.5 -44.77)"/><path class="bed6fea0-17cd-4a0e-9a48-696aea0ec116" d="M415,551a47.7,47.7,0,1,1-47.69,47.69A47.75,47.75,0,0,1,415,551m0-13a60.7,60.7,0,1,0,60.69,60.69A60.69,60.69,0,0,0,415,538Z" transform="translate(-89.5 -44.77)"/><path class="bed6fea0-17cd-4a0e-9a48-696aea0ec116" d="M194,149.8H159a12.6,12.6,0,0,0-12.56,12.57v48.56a39.05,39.05,0,0,0,78.1,0V180.32A30.56,30.56,0,0,0,194,149.8Zm5.57,29.49c-14.31,0-25.3-9.47-31.69-16.92h26a18,18,0,0,1,17.68,14.72,35,35,0,0,1-12,2.2ZM159,189.21V171.07a67.94,67.94,0,0,0,10.33,9.79c.27.18.54.45.81.63A45.38,45.38,0,0,0,159,189.21Zm26.49,48.21A26.51,26.51,0,0,1,159,212c1.26-4,7.63-19.84,27-22.17A43.64,43.64,0,0,0,199.51,192a45.71,45.71,0,0,0,12.39-1.79V211a26.44,26.44,0,0,1-26.39,26.4Z" transform="translate(-89.5 -44.77)"/></svg>